<?xml version="1.0" encoding="UTF-8"?>
<svg version="1.1" xmlns="http://www.w3.org/2000/svg" width="512" height="512">
<path d="M0 0 C5.7767589 3.54096027 9.36523177 8.40000406 11 15 C11.08205328 17.66929013 11.02733463 20.32867706 11 23 C12.09460258 22.99723462 13.18920515 22.99446924 14.3169775 22.99162006 C40.95799873 22.9250047 67.59900915 22.87571476 94.24009609 22.84456348 C107.12355447 22.82909834 120.00695781 22.80801545 132.89038086 22.77368164 C144.12030466 22.74376862 155.3501886 22.72442243 166.58015114 22.71773452 C172.52565163 22.71382552 178.47103808 22.70464593 184.416502 22.68280983 C190.01508438 22.66241474 195.61350596 22.65617237 201.21212196 22.66067696 C203.26436106 22.65985311 205.31660565 22.65390558 207.36881256 22.64238358 C210.17721804 22.62739224 212.9850215 22.63107062 215.79344177 22.63923645 C216.59988913 22.63049793 217.4063365 22.6217594 218.23722166 22.61275607 C224.7011859 22.66333495 230.93046104 23.85132273 236.3046875 27.61328125 C236.82289063 28.17402344 237.34109375 28.73476563 237.875 29.3125 C238.40867187 29.86550781 238.94234375 30.41851562 239.4921875 30.98828125 C243.67324231 36.56663158 244.43750378 41.0846194 244.38768005 47.8256073 C244.39575836 49.14094238 244.39575836 49.14094238 244.40399987 50.4828499 C244.41828268 53.41473564 244.41117499 56.34617011 244.40405273 59.27807617 C244.40975595 61.38244489 244.41672002 63.48681052 244.42485046 65.59117126 C244.44279766 71.30162367 244.44161108 77.01192256 244.43590808 82.7223947 C244.43281995 87.48679855 244.43890417 92.25117274 244.44494683 97.01557237 C244.45899421 108.24990859 244.45742762 119.48416875 244.44604492 130.71850586 C244.43454999 142.32025085 244.44866208 153.92176505 244.4754414 165.52347964 C244.49756212 175.47857107 244.50424437 185.43358985 244.49836498 195.38870412 C244.49498714 201.33728363 244.49746587 207.285715 244.51461601 213.23427391 C244.53002637 218.82314458 244.52619552 224.41167153 244.50731087 230.00052834 C244.50360924 232.05528317 244.50677889 234.11006316 244.51719666 236.16479492 C244.53030027 238.96204682 244.5189544 241.75814266 244.50120544 244.55534363 C244.51081045 245.37517532 244.52041546 246.19500701 244.53031152 247.03968209 C244.45870004 252.49553366 244.45870004 252.49553366 242.15617466 255.02779102 C240 256 240 256 237 256 C237 262.6 237 269.2 237 276 C238.65 276.33 240.3 276.66 242 277 C244.66348248 279.66348248 244.25766251 280.93100968 244.27415466 284.6534729 C244.28412979 285.85629913 244.29410492 287.05912537 244.30438232 288.29840088 C244.30527821 289.63854967 244.30594174 290.97869864 244.30639648 292.31884766 C244.31401499 293.72486819 244.32244195 295.13088453 244.33161926 296.53689575 C244.35361039 300.36364668 244.3623701 304.19031767 244.36744571 308.01712465 C244.37108591 310.40891121 244.37732441 312.80067674 244.3844471 315.19245529 C244.40896418 323.53993399 244.42199694 331.88735042 244.42553711 340.23486328 C244.42916718 348.00907572 244.45901853 355.78289209 244.50094169 363.55698359 C244.53568258 370.23396517 244.55108626 376.91081585 244.55178314 383.58788717 C244.55257512 387.57444922 244.56127524 391.56060868 244.58978081 395.54707718 C244.61602474 399.30158534 244.61813217 403.05535916 244.60212517 406.80991745 C244.59945568 408.8361346 244.62145474 410.86233782 244.64431763 412.88842773 C244.57402145 421.67033776 242.94756028 426.49595545 237.2265625 433.0234375 C236.69804687 433.46945312 236.16953125 433.91546875 235.625 434.375 C235.10164063 434.83648437 234.57828125 435.29796875 234.0390625 435.7734375 C227.49606989 439.70926064 220.29014068 439.29647205 212.90185547 439.29052734 C211.699422 439.29724457 210.49698853 439.30396179 209.25811768 439.31088257 C205.97726959 439.32657302 202.69657385 439.33323425 199.41569281 439.33451414 C197.36377863 439.33593987 195.31189069 439.34021722 193.25998306 439.34550858 C186.09599379 439.36397574 178.9320787 439.37218256 171.76806641 439.37060547 C165.0974239 439.36940205 158.42710389 439.39055184 151.75654304 439.4220928 C146.01962545 439.44824968 140.28281333 439.45897316 134.54583657 439.45769465 C131.12343798 439.45718523 127.70132687 439.46285826 124.27898788 439.48405075 C120.46550224 439.5036002 116.65285399 439.49791619 112.83935547 439.48583984 C111.70883759 439.49707886 110.5783197 439.50831787 109.4135437 439.51989746 C104.82358366 439.48287735 101.83113337 439.45670961 97.76004028 437.21963501 C96 435 96 435 96 431 C89.07 431 82.14 431 75 431 C74.67 432.65 74.34 434.3 74 436 C70.43829119 438.90748758 67.62687855 439.37011032 63.1081543 439.34057617 C61.94732834 439.34034958 60.78650238 439.34012299 59.59049988 439.33988953 C58.34762711 439.32440567 57.10475433 439.30892181 55.82421875 439.29296875 C54.54392288 439.28872391 53.26362701 439.28447906 51.9445343 439.28010559 C48.55286867 439.26869137 45.16159293 439.23925455 41.77008057 439.20599365 C38.30445631 439.17521835 34.83876861 439.16158439 31.37304688 439.14648438 C24.58186271 439.11342192 17.7909667 439.06322669 11 439 C11.01820801 440.26239502 11.03641602 441.52479004 11.05517578 442.82543945 C11.14369166 448.96241017 8.52056849 453.94035039 4.6484375 458.640625 C0.07131 462.88533542 -5.6036369 464.83550378 -11.7421875 465.1328125 C-19.62187734 464.76174677 -24.84617468 462.23906384 -30.3125 456.625 C-34.25567922 450.49116565 -35.14674206 446.0803045 -35 439 C-36.19488037 439.01571045 -37.38976074 439.0314209 -38.62084961 439.04760742 C-43.08806519 439.10223775 -47.55525169 439.1364697 -52.02270508 439.16479492 C-53.94983906 439.17980652 -55.87693932 439.20022216 -57.80395508 439.22631836 C-60.58683639 439.26303943 -63.36926288 439.27980292 -66.15234375 439.29296875 C-67.42790382 439.31619453 -67.42790382 439.31619453 -68.72923279 439.33988953 C-75.41096144 439.34173552 -81.7358976 438.28487168 -87.3046875 434.38671875 C-92.97630055 428.24952552 -95 424.7377883 -95 416 C-100.28 416 -105.56 416 -111 416 C-111 418.31 -111 420.62 -111 423 C-113.17420627 428.70102934 -117.78975544 433.86586822 -123 437 C-130.04877799 439.36469147 -136.79578386 439.33739529 -144.1328125 439.31567383 C-146.36247865 439.31251772 -148.59081016 439.33600405 -150.8203125 439.36132812 C-159.24661112 439.40014298 -167.16023292 439.38783695 -174.3046875 434.38671875 C-179.97630055 428.24952552 -182 424.7377883 -182 416 C-186.95 416 -191.9 416 -197 416 C-197 418.31 -197 420.62 -197 423 C-199.17420627 428.70102934 -203.78975544 433.86586822 -209 437 C-216.04877799 439.36469147 -222.79578386 439.33739529 -230.1328125 439.31567383 C-232.36247865 439.31251772 -234.59081016 439.33600405 -236.8203125 439.36132812 C-245.24661112 439.40014298 -253.16023292 439.38783695 -260.3046875 434.38671875 C-261.08199219 433.54560547 -261.08199219 433.54560547 -261.875 432.6875 C-262.40867187 432.13449219 -262.94234375 431.58148438 -263.4921875 431.01171875 C-267.71312154 425.38016168 -268.45801205 420.75671971 -268.43359375 413.9453125 C-268.44145653 412.65474442 -268.44145653 412.65474442 -268.44947815 411.33810425 C-268.4558791 409.52440465 -268.45458638 407.71066344 -268.44604492 405.89697266 C-268.43754682 403.14018801 -268.46630265 400.38548596 -268.49804688 397.62890625 C-268.49965956 395.85937562 -268.49908006 394.08984135 -268.49609375 392.3203125 C-268.51294472 391.09805466 -268.51294472 391.09805466 -268.53013611 389.85110474 C-268.45059381 383.23009468 -266.58818107 378.06090821 -262.2890625 372.9765625 C-256.94954578 368.63977192 -253.04393727 367 -246 367 C-246 362.38 -246 357.76 -246 353 C-247.485 352.814375 -248.97 352.62875 -250.5 352.4375 C-257.80439147 350.96834477 -261.97579183 346.98186738 -266.07861328 340.93798828 C-268.50321497 336.60972082 -268.5797783 332.72465985 -268.53125 327.84765625 C-268.5350769 326.98869247 -268.53890381 326.1297287 -268.54284668 325.24473572 C-268.54555573 323.43698955 -268.53826539 321.62920351 -268.52148438 319.8215332 C-268.5000855 317.07348055 -268.52130561 314.32804966 -268.546875 311.58007812 C-268.54423103 309.81509846 -268.53910462 308.05012042 -268.53125 306.28515625 C-268.54339539 305.06760399 -268.54339539 305.06760399 -268.55578613 303.82545471 C-268.44877206 297.22541307 -266.57512166 292.04546351 -262.2890625 286.9765625 C-256.94954578 282.63977192 -253.04393727 281 -246 281 C-246 276.38 -246 271.76 -246 267 C-247.485 266.814375 -248.97 266.62875 -250.5 266.4375 C-257.80439147 264.96834477 -261.97579183 260.98186738 -266.07861328 254.93798828 C-268.50321497 250.60972082 -268.5797783 246.72465985 -268.53125 241.84765625 C-268.5350769 240.98869247 -268.53890381 240.1297287 -268.54284668 239.24473572 C-268.54555573 237.43698955 -268.53826539 235.62920351 -268.52148438 233.8215332 C-268.5000855 231.07348055 -268.52130561 228.32804966 -268.546875 225.58007812 C-268.54423103 223.81509846 -268.53910462 222.05012042 -268.53125 220.28515625 C-268.53934692 219.47345474 -268.54744385 218.66175323 -268.55578613 217.82545471 C-268.44877206 211.22541307 -266.57512166 206.04546351 -262.2890625 200.9765625 C-256.94954578 196.63977192 -253.04393727 195 -246 195 C-246 190.38 -246 185.76 -246 181 C-247.485 180.814375 -248.97 180.62875 -250.5 180.4375 C-257.80439147 178.96834477 -261.97579183 174.98186738 -266.07861328 168.93798828 C-268.50321497 164.60972082 -268.5797783 160.72465985 -268.53125 155.84765625 C-268.5350769 154.98869247 -268.53890381 154.1297287 -268.54284668 153.24473572 C-268.54555573 151.43698955 -268.53826539 149.62920351 -268.52148438 147.8215332 C-268.5000855 145.07348055 -268.52130561 142.32804966 -268.546875 139.58007812 C-268.54423103 137.81509846 -268.53910462 136.05012042 -268.53125 134.28515625 C-268.53934692 133.47345474 -268.54744385 132.66175323 -268.55578613 131.82545471 C-268.44877206 125.22541307 -266.57512166 120.04546351 -262.2890625 114.9765625 C-256.94954578 110.63977192 -253.04393727 109 -246 109 C-246 104.38 -246 99.76 -246 95 C-247.32 94.95875 -248.64 94.9175 -250 94.875 C-256.18546876 94.18339641 -260.41585702 91.10694647 -264.3515625 86.375 C-269.40415866 79.10507746 -268.29512515 70.59722781 -268.35009766 62.12329102 C-268.36662104 60.25825491 -268.39386321 58.39328117 -268.43212891 56.52856445 C-268.48722242 53.82730554 -268.50882238 51.12752824 -268.5234375 48.42578125 C-268.54610687 47.60153152 -268.56877625 46.7772818 -268.59213257 45.92805481 C-268.56639259 38.78830325 -265.86034861 34.26356956 -261.2265625 28.9765625 C-260.69804687 28.53054687 -260.16953125 28.08453125 -259.625 27.625 C-259.10164063 27.16351563 -258.57828125 26.70203125 -258.0390625 26.2265625 C-251.00752324 21.99686264 -242.76660434 22.66093974 -234.8671875 22.68432617 C-232.63752135 22.68748228 -230.40918984 22.66399595 -228.1796875 22.63867188 C-219.75338888 22.59985702 -211.83976708 22.61216305 -204.6953125 27.61328125 C-199.02369945 33.75047448 -197 37.2622117 -197 46 C-192.05 46 -187.1 46 -182 46 C-182 43.69 -182 41.38 -182 39 C-179.82579373 33.29897066 -175.21024456 28.13413178 -170 25 C-162.95122201 22.63530853 -156.20421614 22.66260471 -148.8671875 22.68432617 C-146.63752135 22.68748228 -144.40918984 22.66399595 -142.1796875 22.63867188 C-133.75338888 22.59985702 -125.83976708 22.61216305 -118.6953125 27.61328125 C-113.02369945 33.75047448 -111 37.2622117 -111 46 C-105.72 46 -100.44 46 -95 46 C-95 43.69 -95 41.38 -95 39 C-92.82579373 33.29897066 -88.21024456 28.13413178 -83 25 C-77.33833755 23.0071972 -72.31818206 22.73308129 -66.34765625 22.8046875 C-64.99745644 22.80893234 -64.99745644 22.80893234 -63.61997986 22.81326294 C-60.7673468 22.82438722 -57.91503689 22.84947717 -55.0625 22.875 C-53.11914518 22.88503983 -51.17578541 22.89416392 -49.23242188 22.90234375 C-44.48815824 22.92430112 -39.74413376 22.95877699 -35 23 C-35.01820801 21.73760498 -35.03641602 20.47520996 -35.05517578 19.17456055 C-35.14349974 13.05089647 -32.54255298 8.00809086 -28.61328125 3.359375 C-20.30083476 -4.20153523 -9.86077118 -4.60751078 0 0 Z " fill="#BAF39A" transform="translate(268,25)"/>
<path d="M0 0 C62.37 0 124.74 0 189 0 C189.33 9.57 189.66 19.14 190 29 C190.72268235 32.2985139 190.72268235 32.2985139 194.0625 33.6875 C195.031875 34.120625 196.00125 34.55375 197 35 C197.1746397 38.08261456 197.28094067 41.16395833 197.375 44.25 C197.42527344 45.12269531 197.47554687 45.99539062 197.52734375 46.89453125 C197.58466123 49.39739459 197.56876547 51.55984913 197 54 C194.0390625 56.546875 194.0390625 56.546875 191 58 C189.43569075 59.56430925 189.86852204 61.08597124 189.8613348 63.26165104 C189.85586036 64.18674192 189.85038591 65.11183279 189.84474558 66.06495672 C189.84376747 67.09314518 189.84278936 68.12133364 189.84178162 69.18067932 C189.83684364 70.26367512 189.83190566 71.34667092 189.82681805 72.46248478 C189.8113585 76.12155397 189.80305966 79.7806055 189.79467773 83.43969727 C189.78510585 86.05065061 189.77509619 88.66160238 189.76467896 91.27255249 C189.74288498 96.90924401 189.72475123 102.54593789 189.70907402 108.18264961 C189.68640191 116.33247857 189.65825546 124.4822813 189.62875474 132.63208806 C189.58104614 145.85326525 189.53779085 159.07445313 189.49731445 172.2956543 C189.45797613 185.14201694 189.4165425 197.98837002 189.37231445 210.8347168 C189.36956495 211.6340871 189.36681544 212.4334574 189.36398262 213.25705105 C189.34246461 219.50826153 189.32082472 225.75947159 189.29914629 232.01068151 C189.19284175 262.67376841 189.09717259 293.33688017 189 324 C126.63 324 64.26 324 0 324 C-0.66 319.71 -1.32 315.42 -2 311 C-3.32 309.35 -4.64 307.7 -6 306 C-6 305.34 -6 304.68 -6 304 C-9.1632845 302.3279782 -12.3821918 301.07778864 -15.75 299.875 C-17.4825 299.25625 -19.215 298.6375 -21 298 C-21 293.05 -21 288.1 -21 283 C-22.485 282.95875 -23.97 282.9175 -25.5 282.875 C-32.0043726 282.22087754 -36.2121795 279.36154588 -40.34765625 274.375 C-45.33790333 267.22052389 -44.29441148 258.94936481 -44.35009766 250.60546875 C-44.36660245 248.79576712 -44.39381974 246.9861292 -44.43212891 245.17675781 C-44.84509573 225.54826514 -44.84509573 225.54826514 -39 219 C-33.761805 213.72357 -28.26590683 212.23066371 -21 212 C-21 207.05 -21 202.1 -21 197 C-22.485 196.95875 -23.97 196.9175 -25.5 196.875 C-32.0043726 196.22087754 -36.2121795 193.36154588 -40.34765625 188.375 C-45.33790333 181.22052389 -44.29441148 172.94936481 -44.35009766 164.60546875 C-44.36660245 162.79576712 -44.39381974 160.9861292 -44.43212891 159.17675781 C-44.84509573 139.54826514 -44.84509573 139.54826514 -39 133 C-33.761805 127.72357 -28.26590683 126.23066371 -21 126 C-21 121.05 -21 116.1 -21 111 C-22.485 110.95875 -23.97 110.9175 -25.5 110.875 C-32.0043726 110.22087754 -36.2121795 107.36154588 -40.34765625 102.375 C-45.33790333 95.22052389 -44.29441148 86.94936481 -44.35009766 78.60546875 C-44.36660245 76.79576712 -44.39381974 74.9861292 -44.43212891 73.17675781 C-44.84509573 53.54826514 -44.84509573 53.54826514 -39 47 C-33.761805 41.72357 -28.26590683 40.23066371 -21 40 C-21 35.38 -21 30.76 -21 26 C-16.8984375 24.53515625 -16.8984375 24.53515625 -12.796875 23.0703125 C-8.22758795 21.53328485 -8.22758795 21.53328485 -4.9375 18.3125 C-4.628125 17.549375 -4.31875 16.78625 -4 16 C-3.484375 14.948125 -2.96875 13.89625 -2.4375 12.8125 C-0.54252971 8.26274691 -0.54252971 8.26274691 0 0 Z " fill="#FDAC89" transform="translate(278,94)"/>
<path d="M0 0 C5.7767589 3.54096027 9.36523177 8.40000406 11 15 C11.08205328 17.66929013 11.02733463 20.32867706 11 23 C12.09460258 22.99723462 13.18920515 22.99446924 14.3169775 22.99162006 C40.95799873 22.9250047 67.59900915 22.87571476 94.24009609 22.84456348 C107.12355447 22.82909834 120.00695781 22.80801545 132.89038086 22.77368164 C144.12030466 22.74376862 155.3501886 22.72442243 166.58015114 22.71773452 C172.52565163 22.71382552 178.47103808 22.70464593 184.416502 22.68280983 C190.01508438 22.66241474 195.61350596 22.65617237 201.21212196 22.66067696 C203.26436106 22.65985311 205.31660565 22.65390558 207.36881256 22.64238358 C210.17721804 22.62739224 212.9850215 22.63107062 215.79344177 22.63923645 C216.59988913 22.63049793 217.4063365 22.6217594 218.23722166 22.61275607 C224.7011859 22.66333495 230.93046104 23.85132273 236.3046875 27.61328125 C236.82289063 28.17402344 237.34109375 28.73476563 237.875 29.3125 C238.40867187 29.86550781 238.94234375 30.41851562 239.4921875 30.98828125 C243.67324231 36.56663158 244.43750378 41.0846194 244.38768005 47.8256073 C244.39575836 49.14094238 244.39575836 49.14094238 244.40399987 50.4828499 C244.41828268 53.41473564 244.41117499 56.34617011 244.40405273 59.27807617 C244.40975595 61.38244489 244.41672002 63.48681052 244.42485046 65.59117126 C244.44279766 71.30162367 244.44161108 77.01192256 244.43590808 82.7223947 C244.43281995 87.48679855 244.43890417 92.25117274 244.44494683 97.01557237 C244.45899421 108.24990859 244.45742762 119.48416875 244.44604492 130.71850586 C244.43454999 142.32025085 244.44866208 153.92176505 244.4754414 165.52347964 C244.49756212 175.47857107 244.50424437 185.43358985 244.49836498 195.38870412 C244.49498714 201.33728363 244.49746587 207.285715 244.51461601 213.23427391 C244.53002637 218.82314458 244.52619552 224.41167153 244.50731087 230.00052834 C244.50360924 232.05528317 244.50677889 234.11006316 244.51719666 236.16479492 C244.53030027 238.96204682 244.5189544 241.75814266 244.50120544 244.55534363 C244.51081045 245.37517532 244.52041546 246.19500701 244.53031152 247.03968209 C244.45870004 252.49553366 244.45870004 252.49553366 242.15617466 255.02779102 C240 256 240 256 237 256 C237 262.6 237 269.2 237 276 C238.65 276.33 240.3 276.66 242 277 C244.66348248 279.66348248 244.25766251 280.93100968 244.27415466 284.6534729 C244.28412979 285.85629913 244.29410492 287.05912537 244.30438232 288.29840088 C244.30527821 289.63854967 244.30594174 290.97869864 244.30639648 292.31884766 C244.31401499 293.72486819 244.32244195 295.13088453 244.33161926 296.53689575 C244.35361039 300.36364668 244.3623701 304.19031767 244.36744571 308.01712465 C244.37108591 310.40891121 244.37732441 312.80067674 244.3844471 315.19245529 C244.40896418 323.53993399 244.42199694 331.88735042 244.42553711 340.23486328 C244.42916718 348.00907572 244.45901853 355.78289209 244.50094169 363.55698359 C244.53568258 370.23396517 244.55108626 376.91081585 244.55178314 383.58788717 C244.55257512 387.57444922 244.56127524 391.56060868 244.58978081 395.54707718 C244.61602474 399.30158534 244.61813217 403.05535916 244.60212517 406.80991745 C244.59945568 408.8361346 244.62145474 410.86233782 244.64431763 412.88842773 C244.57402145 421.67033776 242.94756028 426.49595545 237.2265625 433.0234375 C236.69804687 433.46945312 236.16953125 433.91546875 235.625 434.375 C235.10164063 434.83648437 234.57828125 435.29796875 234.0390625 435.7734375 C227.49606989 439.70926064 220.29014068 439.29647205 212.90185547 439.29052734 C211.699422 439.29724457 210.49698853 439.30396179 209.25811768 439.31088257 C205.97726959 439.32657302 202.69657385 439.33323425 199.41569281 439.33451414 C197.36377863 439.33593987 195.31189069 439.34021722 193.25998306 439.34550858 C186.09599379 439.36397574 178.9320787 439.37218256 171.76806641 439.37060547 C165.0974239 439.36940205 158.42710389 439.39055184 151.75654304 439.4220928 C146.01962545 439.44824968 140.28281333 439.45897316 134.54583657 439.45769465 C131.12343798 439.45718523 127.70132687 439.46285826 124.27898788 439.48405075 C120.46550224 439.5036002 116.65285399 439.49791619 112.83935547 439.48583984 C111.70883759 439.49707886 110.5783197 439.50831787 109.4135437 439.51989746 C104.82358366 439.48287735 101.83113337 439.45670961 97.76004028 437.21963501 C96 435 96 435 96 431 C89.07 431 82.14 431 75 431 C74.67 432.65 74.34 434.3 74 436 C70.43829119 438.90748758 67.62687855 439.37011032 63.1081543 439.34057617 C61.94732834 439.34034958 60.78650238 439.34012299 59.59049988 439.33988953 C58.34762711 439.32440567 57.10475433 439.30892181 55.82421875 439.29296875 C54.54392288 439.28872391 53.26362701 439.28447906 51.9445343 439.28010559 C48.55286867 439.26869137 45.16159293 439.23925455 41.77008057 439.20599365 C38.30445631 439.17521835 34.83876861 439.16158439 31.37304688 439.14648438 C24.58186271 439.11342192 17.7909667 439.06322669 11 439 C11.01820801 440.26239502 11.03641602 441.52479004 11.05517578 442.82543945 C11.14369166 448.96241017 8.52056849 453.94035039 4.6484375 458.640625 C0.07131 462.88533542 -5.6036369 464.83550378 -11.7421875 465.1328125 C-19.62187734 464.76174677 -24.84617468 462.23906384 -30.3125 456.625 C-34.25567922 450.49116565 -35.14674206 446.0803045 -35 439 C-36.19488037 439.01571045 -37.38976074 439.0314209 -38.62084961 439.04760742 C-43.08806519 439.10223775 -47.55525169 439.1364697 -52.02270508 439.16479492 C-53.94983906 439.17980652 -55.87693932 439.20022216 -57.80395508 439.22631836 C-60.58683639 439.26303943 -63.36926288 439.27980292 -66.15234375 439.29296875 C-67.00271713 439.30845261 -67.85309052 439.32393646 -68.72923279 439.33988953 C-75.41096144 439.34173552 -81.7358976 438.28487168 -87.3046875 434.38671875 C-93.60329631 427.57105996 -95.60062153 422.59932603 -95.34375 413.19140625 C-94.58006374 406.10127362 -91.42108565 401.84251547 -86.07421875 397.32421875 C-79.68578632 393.24572799 -74.56276564 392.57661118 -67.12890625 392.70703125 C-66.206577 392.71127609 -65.28424774 392.71552094 -64.33396912 392.71989441 C-61.40983965 392.73658636 -58.48641851 392.77422062 -55.5625 392.8125 C-53.57097355 392.82755911 -51.57943621 392.84124536 -49.58789062 392.85351562 C-44.72499062 392.88645878 -39.8626151 392.93817501 -35 393 C-35.01442139 391.8960791 -35.02884277 390.7921582 -35.04370117 389.65478516 C-34.96999298 383.49047449 -32.56352564 378.85154352 -28.625 374.1875 C-22.36664377 368.97220314 -17.73136351 366.62430626 -9.6328125 366.71875 C-3.07082363 367.41973397 1.83222698 371.02182667 6 376 C10.63176009 382.38431796 10 384.16003329 10 393 C72.37 393 134.74 393 199 393 C198.93039062 373.92832031 198.86078125 354.85664063 198.7890625 335.20703125 C198.75841954 323.15299155 198.72925246 311.09897568 198.70703125 299.04492188 C198.69528374 292.71476143 198.68316077 286.38460187 198.67041016 280.05444336 C198.66882766 279.26104433 198.66724517 278.46764531 198.66561472 277.65020388 C198.63950792 264.83582722 198.59219915 252.02161184 198.53708322 239.20733086 C198.48100418 226.0596225 198.44765371 212.91199865 198.43546903 199.76417559 C198.42722996 191.64901526 198.40119423 183.53431059 198.3525012 175.41929051 C198.3170812 169.20008018 198.31326125 162.98121834 198.32135391 156.76192093 C198.31969922 154.20808922 198.30771094 151.65424073 198.28476715 149.10051155 C198.25502513 145.62026514 198.26205017 142.14198693 198.2784729 138.66169739 C198.26099585 137.6451603 198.2435188 136.62862321 198.22551215 135.58128196 C198.31071685 128.92643967 198.31071685 128.92643967 200.31369662 126.23430955 C202.43616499 124.38366793 204.10648745 123 207 123 C207 116.73 207 110.46 207 104 C205.68 103.67 204.36 103.34 203 103 C200 101 200 101 199 98 C199 88.43 199 78.86 199 69 C136.63 69 74.26 69 10 69 C10 71.97 10 74.94 10 78 C8.05881824 84.81040304 3.36928829 89.81491803 -2.6875 93.3125 C-8.08416098 95.80248482 -13.57452943 96.11791099 -19.23828125 94.26953125 C-25.82380072 91.23101473 -29.84361153 86.786634 -33.203125 80.453125 C-33.99352457 78.01993416 -34.28691156 75.88493854 -34.54980469 73.34667969 C-34.63542664 72.53350281 -34.72104858 71.72032593 -34.80926514 70.88250732 C-34.87220764 70.26127991 -34.93515015 69.64005249 -35 69 C-36.21993652 69.02618408 -37.43987305 69.05236816 -38.69677734 69.0793457 C-43.26266836 69.17047473 -47.82848053 69.22747541 -52.39501953 69.2746582 C-54.36390747 69.29966047 -56.33270393 69.333674 -58.30126953 69.37719727 C-80.43569684 69.85399056 -80.43569684 69.85399056 -88.5793457 62.59155273 C-94.29249733 56.42241704 -95.64405048 50.0792144 -95.41015625 41.93359375 C-94.44764632 35.04935604 -90.0810607 30.67246239 -85.0390625 26.2265625 C-79.17088945 22.6966653 -72.98415405 22.7250941 -66.34765625 22.8046875 C-65.44752304 22.8075174 -64.54738983 22.81034729 -63.61997986 22.81326294 C-60.7673468 22.82438722 -57.91503689 22.84947717 -55.0625 22.875 C-53.11914518 22.88503983 -51.17578541 22.89416392 -49.23242188 22.90234375 C-44.48815824 22.92430112 -39.74413376 22.95877699 -35 23 C-35.01820801 21.73760498 -35.03641602 20.47520996 -35.05517578 19.17456055 C-35.14349974 13.05089647 -32.54255298 8.00809086 -28.61328125 3.359375 C-20.30083476 -4.20153523 -9.86077118 -4.60751078 0 0 Z " fill="#FA9266" transform="translate(268,25)"/>
<path d="M0 0 C5.7767589 3.54096027 9.36523177 8.40000406 11 15 C11.08205328 17.66929013 11.02733463 20.32867706 11 23 C12.09460258 22.99723462 13.18920515 22.99446924 14.3169775 22.99162006 C40.95799873 22.9250047 67.59900915 22.87571476 94.24009609 22.84456348 C107.12355447 22.82909834 120.00695781 22.80801545 132.89038086 22.77368164 C144.12030466 22.74376862 155.3501886 22.72442243 166.58015114 22.71773452 C172.52565163 22.71382552 178.47103808 22.70464593 184.416502 22.68280983 C190.01508438 22.66241474 195.61350596 22.65617237 201.21212196 22.66067696 C203.26436106 22.65985311 205.31660565 22.65390558 207.36881256 22.64238358 C210.17721804 22.62739224 212.9850215 22.63107062 215.79344177 22.63923645 C216.59988913 22.63049793 217.4063365 22.6217594 218.23722166 22.61275607 C224.7011859 22.66333495 230.93046104 23.85132273 236.3046875 27.61328125 C236.82289063 28.17402344 237.34109375 28.73476563 237.875 29.3125 C238.40867187 29.86550781 238.94234375 30.41851562 239.4921875 30.98828125 C243.67324231 36.56663158 244.43750378 41.0846194 244.38768005 47.8256073 C244.39575836 49.14094238 244.39575836 49.14094238 244.40399987 50.4828499 C244.41828268 53.41473564 244.41117499 56.34617011 244.40405273 59.27807617 C244.40975595 61.38244489 244.41672002 63.48681052 244.42485046 65.59117126 C244.44279766 71.30162367 244.44161108 77.01192256 244.43590808 82.7223947 C244.43281995 87.48679855 244.43890417 92.25117274 244.44494683 97.01557237 C244.45899421 108.24990859 244.45742762 119.48416875 244.44604492 130.71850586 C244.43454999 142.32025085 244.44866208 153.92176505 244.4754414 165.52347964 C244.49756212 175.47857107 244.50424437 185.43358985 244.49836498 195.38870412 C244.49498714 201.33728363 244.49746587 207.285715 244.51461601 213.23427391 C244.53002637 218.82314458 244.52619552 224.41167153 244.50731087 230.00052834 C244.50360924 232.05528317 244.50677889 234.11006316 244.51719666 236.16479492 C244.53030027 238.96204682 244.5189544 241.75814266 244.50120544 244.55534363 C244.51081045 245.37517532 244.52041546 246.19500701 244.53031152 247.03968209 C244.45858255 252.50448492 244.45858255 252.50448492 242.15226841 254.99654102 C239.13586843 256.40288682 237.29303652 256.53763862 234 256 C230.32318715 253.22594461 229.12016988 251.74426513 228.37752342 247.14472771 C228.35315576 245.60415422 228.35623127 244.0629983 228.38095093 242.52243042 C228.37159246 241.24512894 228.37159246 241.24512894 228.36204493 239.9420234 C228.34712681 237.089619 228.36777117 234.23858447 228.38818359 231.38623047 C228.38464273 229.34112055 228.37886552 227.29601345 228.37101746 225.25091553 C228.35883396 220.84790864 228.36231087 216.4452891 228.37784958 212.04229355 C228.40213113 205.08473495 228.3906864 198.12751685 228.37417603 191.16995239 C228.34967316 178.91680174 228.35548703 166.66380554 228.36798096 154.41064453 C228.38656529 135.95300235 228.38178033 117.49538895 228.34794676 99.03776848 C228.33640674 92.11654959 228.34090663 85.19557714 228.35796714 78.27437186 C228.36584325 73.97600866 228.36162752 69.67771783 228.35425758 65.37935638 C228.35344472 63.38103635 228.35782992 61.38270668 228.36770058 59.38441086 C228.3804921 56.66393026 228.37508299 53.94408019 228.36508179 51.22360229 C228.37333996 50.42643417 228.38159814 49.62926605 228.39010656 48.80794132 C228.43945363 44.78953953 228.43945363 44.78953953 226.70877916 41.29882318 C223.74044381 39.04262598 220.09924533 39.58018442 216.51496887 39.60127258 C215.63852539 39.59462576 214.76208191 39.58797893 213.85907954 39.58113068 C210.91090047 39.56242069 207.96312439 39.56511134 205.01489258 39.56762695 C202.90609663 39.55861468 200.79730594 39.54828879 198.68852234 39.53674316 C192.95333201 39.50908429 187.21824082 39.49987659 181.48299241 39.49388909 C175.49315323 39.48452851 169.50338878 39.45832707 163.51359558 39.43388367 C152.16643433 39.39015111 140.81928752 39.36164566 129.47206753 39.33856028 C116.55563495 39.31154479 103.63927729 39.26763107 90.72289813 39.22227156 C64.14863933 39.12932852 37.57435704 39.05769206 11 39 C11 43.95 11 48.9 11 54 C12.02190556 53.99631283 13.04381111 53.99262566 14.0966835 53.98882675 C38.94171605 53.90009786 63.7867281 53.83432998 88.63188553 53.79275131 C100.64673741 53.77211065 112.66148475 53.74396125 124.67626953 53.69824219 C135.14620969 53.65842055 145.61607416 53.63257814 156.08608794 53.62364602 C161.63185098 53.61842337 167.1773974 53.60611691 172.72309113 53.57707977 C177.94003567 53.54998457 183.1566738 53.54154309 188.37368202 53.54756927 C190.29096197 53.5464664 192.20825189 53.53847756 194.12547112 53.5231781 C196.73875105 53.50334228 199.35086676 53.50803708 201.96417236 53.51898193 C202.72681971 53.50733057 203.48946705 53.4956792 204.27522492 53.48367476 C207.78559326 53.52354763 209.65300402 53.73227321 212.47133446 55.90677261 C214.15796265 58.2163009 214.49749785 59.24151003 214.48583984 62.0625 C214.4919931 62.85011719 214.49814636 63.63773437 214.50448608 64.44921875 C214.48292953 65.71185547 214.48292953 65.71185547 214.4609375 67 C214.46002106 67.87269531 214.45910461 68.74539062 214.4581604 69.64453125 C214.45212663 71.48703459 214.43638728 73.32952823 214.41162109 75.171875 C214.37513012 77.98995159 214.37060173 80.80671188 214.37109375 83.625 C214.36126147 85.41667801 214.34960398 87.20834713 214.3359375 89 C214.33371185 89.84175781 214.33148621 90.68351562 214.32919312 91.55078125 C214.31643341 92.33839844 214.30367371 93.12601562 214.29052734 93.9375 C214.28290375 94.62714844 214.27528015 95.31679687 214.26742554 96.02734375 C213.94889089 98.37700478 213.23458518 99.98267237 212 102 C208.98131566 103.50934217 206.32702771 103.17510672 203 103 C200 101 200 101 199 98 C199 88.43 199 78.86 199 69 C136.63 69 74.26 69 10 69 C10 71.97 10 74.94 10 78 C8.05881824 84.81040304 3.36928829 89.81491803 -2.6875 93.3125 C-8.08416098 95.80248482 -13.57452943 96.11791099 -19.23828125 94.26953125 C-25.82380072 91.23101473 -29.84361153 86.786634 -33.203125 80.453125 C-33.99352457 78.01993416 -34.28691156 75.88493854 -34.54980469 73.34667969 C-34.63542664 72.53350281 -34.72104858 71.72032593 -34.80926514 70.88250732 C-34.87220764 70.26127991 -34.93515015 69.64005249 -35 69 C-36.21993652 69.02618408 -37.43987305 69.05236816 -38.69677734 69.0793457 C-43.26266836 69.17047473 -47.82848053 69.22747541 -52.39501953 69.2746582 C-54.36390747 69.29966047 -56.33270393 69.333674 -58.30126953 69.37719727 C-80.43569684 69.85399056 -80.43569684 69.85399056 -88.5793457 62.59155273 C-94.29249733 56.42241704 -95.64405048 50.0792144 -95.41015625 41.93359375 C-94.44764632 35.04935604 -90.0810607 30.67246239 -85.0390625 26.2265625 C-79.17088945 22.6966653 -72.98415405 22.7250941 -66.34765625 22.8046875 C-65.44752304 22.8075174 -64.54738983 22.81034729 -63.61997986 22.81326294 C-60.7673468 22.82438722 -57.91503689 22.84947717 -55.0625 22.875 C-53.11914518 22.88503983 -51.17578541 22.89416392 -49.23242188 22.90234375 C-44.48815824 22.92430112 -39.74413376 22.95877699 -35 23 C-35.01820801 21.73760498 -35.03641602 20.47520996 -35.05517578 19.17456055 C-35.14349974 13.05089647 -32.54255298 8.00809086 -28.61328125 3.359375 C-20.30083476 -4.20153523 -9.86077118 -4.60751078 0 0 Z " fill="#030202" transform="translate(268,25)"/>
<path d="M0 0 C2.18700409 1.35078526 2.18700409 1.35078526 4 4 C4.60902678 7.62355348 4.53894872 11.22064743 4.50793457 14.88743591 C4.51729451 16.57173607 4.51729451 16.57173607 4.52684355 18.29006249 C4.54284541 22.06655175 4.53014052 25.84240201 4.51757812 29.61889648 C4.52079491 32.32071266 4.52997174 35.02250138 4.53881836 37.7243042 C4.55662132 44.30952431 4.5527556 50.89456224 4.5411678 57.47978955 C4.53213993 62.83149767 4.53090666 68.18315469 4.53526306 73.53486824 C4.53587599 74.29610701 4.53648893 75.05734577 4.53712043 75.84165238 C4.53839932 77.38803261 4.53969617 78.93441281 4.5410108 80.48079301 C4.55242199 94.98760968 4.53929486 109.4943253 4.51780933 124.0011254 C4.49994143 136.45075207 4.50303883 148.90022955 4.52148438 161.34985352 C4.54288779 175.80265274 4.55131952 190.25536334 4.53903532 204.7081762 C4.53776111 206.24922278 4.53650363 207.79026938 4.53526306 209.33131599 C4.53433741 210.46868621 4.53433741 210.46868621 4.53339306 211.62903361 C4.52993829 216.97428802 4.53577128 222.31948626 4.54518127 227.66473198 C4.55639695 234.17897245 4.55337061 240.69302012 4.5320583 247.20723849 C4.52154107 250.53153104 4.51958741 253.85523562 4.53065491 257.17956734 C4.54154421 260.78189501 4.52792522 264.38331124 4.50793457 267.98558044 C4.5213189 269.56465759 4.5213189 269.56465759 4.53497362 271.17563528 C4.48929537 275.40330693 4.3334544 278.31307566 2.47049332 282.15082169 C-0.94722329 284.70900202 -3.92994713 284.67968221 -8.03582764 284.60127258 C-8.85187226 284.60554471 -9.66791687 284.60981683 -10.50869012 284.61421841 C-13.24690928 284.62246345 -15.98360135 284.59493937 -18.72167969 284.56762695 C-20.68283553 284.56621681 -22.64399401 284.56700781 -24.60514832 284.56983948 C-29.93348434 284.57127633 -35.26125964 284.54184265 -40.58946514 284.50696969 C-46.15615192 284.47575123 -51.72285101 284.47277901 -57.28961182 284.46684265 C-67.83293629 284.45129097 -78.3760021 284.41024443 -88.91921258 284.3600952 C-100.92145884 284.30424307 -112.92371733 284.27672561 -124.92606115 284.25161803 C-149.61751761 284.19932986 -174.30874432 284.11136169 -199 284 C-199 288.95 -199 293.9 -199 299 C-197.26395508 298.98952637 -195.52791016 298.97905273 -193.73925781 298.96826172 C-187.99968058 298.93599541 -182.26010647 298.91302308 -176.52046585 298.89637566 C-173.04093606 298.88594392 -169.56150451 298.87179599 -166.08203125 298.84912109 C-162.08071963 298.82320905 -158.07951103 298.81352218 -154.078125 298.8046875 C-152.83009094 298.79436493 -151.58205688 298.78404236 -150.29620361 298.77340698 C-149.13530212 298.77325592 -147.97440063 298.77310486 -146.77832031 298.77294922 C-145.75683899 298.768508 -144.73535767 298.76406677 -143.68292236 298.75949097 C-140.89600086 299.00932294 -139.31813714 299.45798438 -137 301 C-134.67420899 304.48868651 -134.58134543 305.89718519 -135 310 C-136.77984405 313.1359157 -137.52308207 313.84102736 -141 315 C-142.88656815 315.08852819 -144.77615524 315.11762222 -146.66479492 315.11352539 C-147.82577194 315.11344986 -148.98674896 315.11337433 -150.1829071 315.11329651 C-152.06270012 315.10555458 -152.06270012 315.10555458 -153.98046875 315.09765625 C-155.26359451 315.0962413 -156.54672028 315.09482635 -157.86872864 315.09336853 C-161.27670241 315.08955405 -164.68463343 315.07973291 -168.09259033 315.06866455 C-171.57148663 315.05842743 -175.05038985 315.05386598 -178.52929688 315.04882812 C-185.35288212 315.03810967 -192.17643901 315.02104609 -199 315 C-198.98179199 316.26239502 -198.96358398 317.52479004 -198.94482422 318.82543945 C-198.85630834 324.96241017 -201.47943151 329.94035039 -205.3515625 334.640625 C-209.92869 338.88533542 -215.6036369 340.83550378 -221.7421875 341.1328125 C-229.62187734 340.76174677 -234.84617468 338.23906384 -240.3125 332.625 C-244.25567922 326.49116565 -245.14674206 322.0803045 -245 315 C-246.19488037 315.01571045 -247.38976074 315.0314209 -248.62084961 315.04760742 C-253.08806519 315.10223775 -257.55525169 315.1364697 -262.02270508 315.16479492 C-263.94983906 315.17980652 -265.87693932 315.20022216 -267.80395508 315.22631836 C-270.58683639 315.26303943 -273.36926288 315.27980292 -276.15234375 315.29296875 C-277.00271713 315.30845261 -277.85309052 315.32393646 -278.72923279 315.33988953 C-285.41096144 315.34173552 -291.7358976 314.28487168 -297.3046875 310.38671875 C-303.60329631 303.57105996 -305.60062153 298.59932603 -305.34375 289.19140625 C-304.58006374 282.10127362 -301.42108565 277.84251547 -296.07421875 273.32421875 C-289.68578632 269.24572799 -284.56276564 268.57661118 -277.12890625 268.70703125 C-276.206577 268.71127609 -275.28424774 268.71552094 -274.33396912 268.71989441 C-271.40983965 268.73658636 -268.48641851 268.77422062 -265.5625 268.8125 C-263.57097355 268.82755911 -261.57943621 268.84124536 -259.58789062 268.85351562 C-254.72499062 268.88645878 -249.8626151 268.93817501 -245 269 C-245.01442139 267.8960791 -245.02884277 266.7921582 -245.04370117 265.65478516 C-244.96999298 259.49047449 -242.56352564 254.85154352 -238.625 250.1875 C-232.36664377 244.97220314 -227.73136351 242.62430626 -219.6328125 242.71875 C-213.07082363 243.41973397 -208.16777302 247.02182667 -204 252 C-199.36823991 258.38431796 -200 260.16003329 -200 269 C-137.63 269 -75.26 269 -11 269 C-11.04640625 249.91671875 -11.0928125 230.8334375 -11.140625 211.171875 C-11.1610527 199.11327981 -11.18049732 187.05469521 -11.1953125 174.99609375 C-11.20314427 168.66389932 -11.21122627 162.33170529 -11.21972656 155.99951172 C-11.22078156 155.20584894 -11.22183655 154.41218617 -11.22292352 153.594473 C-11.24033178 140.77300333 -11.27187308 127.95160525 -11.30861118 115.13017806 C-11.34598671 101.97681887 -11.36822867 88.82349722 -11.37635398 75.6700871 C-11.38184881 67.55042792 -11.39921799 59.43097098 -11.43166587 51.31137404 C-11.45526319 45.09048168 -11.45782842 38.86974425 -11.45243073 32.64881325 C-11.45353461 30.09296483 -11.46153651 27.53710902 -11.4768219 24.98130608 C-11.49662168 21.50106572 -11.49197507 18.02170205 -11.48101807 14.54144287 C-11.49266943 13.52199294 -11.5043208 12.50254301 -11.51632524 11.45220065 C-11.45826663 4.66478652 -11.45826663 4.66478652 -9.18868637 1.37240982 C-5.95289985 -0.65658129 -3.73484719 -0.5335496 0 0 Z " fill="#030202" transform="translate(478,149)"/>
<path d="M0 0 C1.72144318 1.16648579 1.72144318 1.16648579 3 3 C3.38311005 5.59569836 3.38311005 5.59569836 3.39440918 8.77372742 C3.40575897 9.97792831 3.41710876 11.18212921 3.42880249 12.42282104 C3.42615903 13.75933904 3.42318777 15.09585642 3.41992188 16.43237305 C3.42726066 17.83854345 3.43584633 19.24470783 3.44558716 20.65086365 C3.46784026 24.47346845 3.47073171 28.29585791 3.46883965 32.11851859 C3.46872004 35.31158134 3.47728079 38.50459832 3.48561716 41.69764835 C3.50486753 49.23523077 3.50773026 56.77270246 3.50097656 64.31030273 C3.49434501 72.07717007 3.51716029 79.84356138 3.55429029 87.61033219 C3.58502882 94.28310175 3.59634252 100.95571859 3.59245348 107.6285575 C3.59038902 111.61173149 3.59581669 115.59453567 3.62034607 119.57764244 C3.64267769 123.32808715 3.64068314 127.07776199 3.62041855 130.82821083 C3.61540444 132.85201336 3.63498409 134.87583063 3.65542603 136.89953613 C3.5747173 145.67187794 1.94197562 150.50232737 -3.7734375 157.0234375 C-4.30195313 157.46945312 -4.83046875 157.91546875 -5.375 158.375 C-5.89835938 158.83648437 -6.42171875 159.29796875 -6.9609375 159.7734375 C-13.50393011 163.70926064 -20.70985932 163.29647205 -28.09814453 163.29052734 C-29.300578 163.29724457 -30.50301147 163.30396179 -31.74188232 163.31088257 C-35.02273041 163.32657302 -38.30342615 163.33323425 -41.58430719 163.33451414 C-43.63622137 163.33593987 -45.68810931 163.34021722 -47.74001694 163.34550858 C-54.90400621 163.36397574 -62.0679213 163.37218256 -69.23193359 163.37060547 C-75.9025761 163.36940205 -82.57289611 163.39055184 -89.24345696 163.4220928 C-94.98037455 163.44824968 -100.71718667 163.45897316 -106.45416343 163.45769465 C-109.87656202 163.45718523 -113.29867313 163.46285826 -116.72101212 163.48405075 C-120.53449776 163.5036002 -124.34714601 163.49791619 -128.16064453 163.48583984 C-129.85642136 163.50269836 -129.85642136 163.50269836 -131.5864563 163.51989746 C-139.19152661 163.45855912 -139.19152661 163.45855912 -143.20089722 161.18447876 C-145 159 -145 159 -145.625 155.5625 C-144.80880976 150.91021563 -143.83420913 149.76911047 -140 147 C-136.03553204 146.263198 -132.11921683 146.35130122 -128.09716797 146.40405273 C-126.89181396 146.3999942 -125.68645996 146.39593567 -124.44458008 146.39175415 C-121.8286134 146.38623427 -119.21448046 146.38968496 -116.59875107 146.40841484 C-112.4639458 146.43753976 -108.32971133 146.42970641 -104.19485474 146.41651917 C-96.1676879 146.39587327 -88.14079851 146.41145155 -80.11364746 146.43199158 C-69.88871568 146.45715108 -59.66393699 146.4700241 -49.43900025 146.44203526 C-45.32754586 146.43207181 -41.21677571 146.44223101 -37.10539603 146.46794307 C-33.9515991 146.48294849 -30.79785921 146.47260455 -27.64404297 146.46655273 C-25.93276718 146.48588112 -25.93276718 146.48588112 -24.18692017 146.50559998 C-23.14666687 146.49891296 -22.10641357 146.49222595 -21.03463745 146.4853363 C-20.12947828 146.48814322 -19.22431911 146.49095015 -18.29173088 146.49384212 C-15.88591333 146.18071788 -15.88591333 146.18071788 -14.20857334 144.32548618 C-12.7191095 141.45952228 -12.62631375 139.53349473 -12.62818909 136.30688477 C-12.62143158 135.14601349 -12.61467407 133.98514221 -12.60771179 132.78909302 C-12.61543106 131.51935638 -12.62315033 130.24961975 -12.63110352 128.94140625 C-12.62863501 127.5877146 -12.62479609 126.23402485 -12.61968994 124.88034058 C-12.611356 121.96759676 -12.61215589 119.05504848 -12.61987495 116.14230347 C-12.63145801 111.53691561 -12.61929586 106.93177933 -12.60325623 102.32641602 C-12.56706387 90.88864656 -12.56083371 79.45088303 -12.56335449 68.01306152 C-12.56506486 59.12202685 -12.55797224 50.23119754 -12.52337593 41.34022045 C-12.50656625 36.76164473 -12.50838942 32.18356956 -12.52419865 27.60499573 C-12.52999003 24.75745569 -12.51926595 21.91015374 -12.50395203 19.0626564 C-12.49844206 17.11206482 -12.51284902 15.16144892 -12.52781677 13.21090698 C-12.51345078 11.46960007 -12.51345078 11.46960007 -12.49879456 9.69311523 C-12.49900384 8.68433823 -12.49921312 7.67556122 -12.49942875 6.63621521 C-11.14414024 -0.51762242 -6.06149948 -0.67349994 0 0 Z " fill="#020100" transform="translate(509,301)"/>
<path d="M0 0 C3.98603447 3.52271312 7.83662057 7.70016036 9 13 C9.13768688 16.00871322 9.117997 18.99107639 9 22 C9.94875 21.9175 10.8975 21.835 11.875 21.75 C17.93359845 21.79905748 23.57310075 23.86307952 28.125 27.87109375 C34.10996382 34.46702262 35.53515272 39.90498039 35.375 48.7734375 C34.54883636 55.88188715 30.22359681 60.20185306 25.0390625 64.7734375 C18.00752324 69.00313736 9.76660434 68.33906026 1.8671875 68.31567383 C-0.36247865 68.31251772 -2.59081016 68.33600405 -4.8203125 68.36132812 C-13.24661112 68.40014298 -21.16023292 68.38783695 -28.3046875 63.38671875 C-28.82289062 62.82597656 -29.34109375 62.26523437 -29.875 61.6875 C-30.67550781 60.85798828 -30.67550781 60.85798828 -31.4921875 60.01171875 C-35.71312154 54.38016168 -36.45801205 49.75671971 -36.43359375 42.9453125 C-36.4388356 42.08493378 -36.44407745 41.22455505 -36.44947815 40.33810425 C-36.4558791 38.52440465 -36.45458638 36.71066344 -36.44604492 34.89697266 C-36.43754682 32.14018801 -36.46630265 29.38548596 -36.49804688 26.62890625 C-36.49965956 24.85937562 -36.49908006 23.08984135 -36.49609375 21.3203125 C-36.50732773 20.50547394 -36.51856171 19.69063538 -36.53013611 18.85110474 C-36.45059381 12.23009468 -34.58818107 7.06090821 -30.2890625 1.9765625 C-20.95883538 -5.60150929 -10.40714625 -6.16528961 0 0 Z " fill="#010201" transform="translate(36,396)"/>
<path d="M0 0 C2.22966615 0.0031561 4.45799766 -0.02033022 6.6875 -0.0456543 C15.11379862 -0.08446915 23.02742042 -0.07216312 30.171875 4.92895508 C36.13644042 11.383149 38.52565101 16.26734987 38.28125 25.21020508 C37.44942943 31.44885932 34.70820642 36.96938654 30.0546875 41.25317383 C24.05538183 45.1350775 19.00274277 46.76164603 11.8671875 46.31567383 C11.9703125 47.42942383 12.0734375 48.54317383 12.1796875 49.69067383 C12.16873263 55.85826514 9.42382693 61.29091732 5.48046875 65.95629883 C-0.01509102 70.95499977 -6.67201605 72.88918898 -13.96875 72.60083008 C-20.15322168 71.78590872 -24.80605407 68.64243225 -29.1328125 64.31567383 C-32.85801103 58.71190134 -33.73985748 53.69065349 -33.69921875 47.06567383 C-33.70541733 46.208125 -33.71161591 45.35057617 -33.71800232 44.46704102 C-33.72506345 42.66529467 -33.72199174 40.86348256 -33.70922852 39.06176758 C-33.69534585 36.32225393 -33.72950601 33.58615081 -33.76757812 30.84692383 C-33.76852939 29.08650634 -33.76667011 27.32608462 -33.76171875 25.56567383 C-33.77497696 24.75710937 -33.78823517 23.94854492 -33.80189514 23.11547852 C-33.68794161 16.07444123 -30.9323634 11.50987508 -26.359375 6.29223633 C-25.83085937 5.8462207 -25.30234375 5.40020508 -24.7578125 4.94067383 C-24.23445313 4.47918945 -23.71109375 4.01770508 -23.171875 3.54223633 C-16.14033574 -0.68746354 -7.89941684 -0.02338643 0 0 Z " fill="#010101" transform="translate(33.1328125,47.684326171875)"/>
<path d="M0 0 C0.72104416 -0.00524185 1.44208832 -0.0104837 2.1849823 -0.0158844 C3.70184043 -0.02226934 5.2187483 -0.02101363 6.7355957 -0.01245117 C9.0271262 -0.00396492 11.31613831 -0.03270835 13.60742188 -0.06445312 C22.88154527 -0.11040332 31.17368541 0.35737256 38.66796875 6.3984375 C39.18359375 7.04941406 39.69921875 7.70039063 40.23046875 8.37109375 C40.76671875 9.01949219 41.30296875 9.66789062 41.85546875 10.3359375 C45.98569083 16.63687289 46.08291918 23.09896821 45.23046875 30.43359375 C43.13417179 36.21712733 38.4832406 41.27388041 33.23046875 44.43359375 C26.18169076 46.79828522 19.43468489 46.77098904 12.09765625 46.74926758 C9.8679901 46.74611147 7.63965859 46.7695978 5.41015625 46.79492188 C-3.01614237 46.83373673 -10.92976417 46.8214307 -18.07421875 41.8203125 C-24.37282756 35.00465371 -26.37015278 30.03291978 -26.11328125 20.625 C-25.34959499 13.53486737 -22.1906169 9.27610922 -16.84375 4.7578125 C-11.31871053 1.23052742 -6.51771975 -0.0282955 0 0 Z " fill="#020302" transform="translate(111.76953125,417.56640625)"/>
<path d="M0 0 C2.22966615 0.0031561 4.45799766 -0.02033022 6.6875 -0.0456543 C15.11379862 -0.08446915 23.02742042 -0.07216312 30.171875 4.92895508 C36.13644042 11.383149 38.52565101 16.26734987 38.28125 25.21020508 C37.44942943 31.44885932 34.70820642 36.96938654 30.0546875 41.25317383 C21.71981179 46.6463287 13.91008918 46.84550637 4.28662109 46.81665039 C2.00359597 46.81567868 -0.27605266 46.85736651 -2.55859375 46.90161133 C-11.71678458 46.97638736 -19.56985788 46.2195106 -26.72973633 39.90795898 C-32.40628708 33.69487029 -33.77746128 27.41572477 -33.54296875 19.24926758 C-32.58045882 12.36502987 -28.2138732 7.98813622 -23.171875 3.54223633 C-16.14033574 -0.68746354 -7.89941684 -0.02338643 0 0 Z " fill="#020201" transform="translate(119.1328125,47.684326171875)"/>
<path d="M0 0 C5.36400935 4.74051748 8.72494159 9.46908209 9.29052734 16.72949219 C9.31708628 18.16845431 9.33157006 19.60767442 9.3359375 21.046875 C9.3425943 21.81751282 9.3492511 22.58815063 9.35610962 23.38214111 C9.36620658 25.00929388 9.37092756 26.63648781 9.37060547 28.26367188 C9.37496213 30.72857623 9.41126412 33.19166394 9.44921875 35.65625 C9.51931071 45.44124962 9.13448246 52.97157538 2.6875 60.8125 C-3.62710418 65.9522941 -8.79285638 68.28907244 -17 68 C-23.96855734 66.92004413 -28.79384981 63.61183251 -33 58 C-36.14527426 52.86240837 -36.45454298 48.78903334 -36.43359375 42.9453125 C-36.4388356 42.08493378 -36.44407745 41.22455505 -36.44947815 40.33810425 C-36.4558791 38.52440465 -36.45458638 36.71066344 -36.44604492 34.89697266 C-36.43754682 32.14018801 -36.46630265 29.38548596 -36.49804688 26.62890625 C-36.49965956 24.85937562 -36.49908006 23.08984135 -36.49609375 21.3203125 C-36.50732773 20.50547394 -36.51856171 19.69063538 -36.53013611 18.85110474 C-36.45059381 12.23009468 -34.58818107 7.06090821 -30.2890625 1.9765625 C-20.95883538 -5.60150929 -10.40714625 -6.16528961 0 0 Z " fill="#010100" transform="translate(36,310)"/>
<path d="M0 0 C5.36400935 4.74051748 8.72494159 9.46908209 9.29052734 16.72949219 C9.31708628 18.16845431 9.33157006 19.60767442 9.3359375 21.046875 C9.3425943 21.81751282 9.3492511 22.58815063 9.35610962 23.38214111 C9.36620658 25.00929388 9.37092756 26.63648781 9.37060547 28.26367188 C9.37496213 30.72857623 9.41126412 33.19166394 9.44921875 35.65625 C9.51931071 45.44124962 9.13448246 52.97157538 2.6875 60.8125 C-3.62710418 65.9522941 -8.79285638 68.28907244 -17 68 C-23.96855734 66.92004413 -28.79384981 63.61183251 -33 58 C-36.14527426 52.86240837 -36.45454298 48.78903334 -36.43359375 42.9453125 C-36.4388356 42.08493378 -36.44407745 41.22455505 -36.44947815 40.33810425 C-36.4558791 38.52440465 -36.45458638 36.71066344 -36.44604492 34.89697266 C-36.43754682 32.14018801 -36.46630265 29.38548596 -36.49804688 26.62890625 C-36.49965956 24.85937562 -36.49908006 23.08984135 -36.49609375 21.3203125 C-36.50732773 20.50547394 -36.51856171 19.69063538 -36.53013611 18.85110474 C-36.45059381 12.23009468 -34.58818107 7.06090821 -30.2890625 1.9765625 C-20.95883538 -5.60150929 -10.40714625 -6.16528961 0 0 Z " fill="#010100" transform="translate(36,224)"/>
<path d="M0 0 C5.36400935 4.74051748 8.72494159 9.46908209 9.29052734 16.72949219 C9.31708628 18.16845431 9.33157006 19.60767442 9.3359375 21.046875 C9.3425943 21.81751282 9.3492511 22.58815063 9.35610962 23.38214111 C9.36620658 25.00929388 9.37092756 26.63648781 9.37060547 28.26367188 C9.37496213 30.72857623 9.41126412 33.19166394 9.44921875 35.65625 C9.51931071 45.44124962 9.13448246 52.97157538 2.6875 60.8125 C-3.62710418 65.9522941 -8.79285638 68.28907244 -17 68 C-23.96855734 66.92004413 -28.79384981 63.61183251 -33 58 C-36.14527426 52.86240837 -36.45454298 48.78903334 -36.43359375 42.9453125 C-36.4388356 42.08493378 -36.44407745 41.22455505 -36.44947815 40.33810425 C-36.4558791 38.52440465 -36.45458638 36.71066344 -36.44604492 34.89697266 C-36.43754682 32.14018801 -36.46630265 29.38548596 -36.49804688 26.62890625 C-36.49965956 24.85937562 -36.49908006 23.08984135 -36.49609375 21.3203125 C-36.50732773 20.50547394 -36.51856171 19.69063538 -36.53013611 18.85110474 C-36.45059381 12.23009468 -34.58818107 7.06090821 -30.2890625 1.9765625 C-20.95883538 -5.60150929 -10.40714625 -6.16528961 0 0 Z " fill="#010100" transform="translate(36,138)"/>
<path d="M0 0 C5.85624896 3.36999437 10.06155571 8.06074282 12.6875 14.3125 C13.2297842 17.30223317 13.24976134 20.21328867 13.21875 23.24609375 C13.2225769 24.08286148 13.22640381 24.91962921 13.23034668 25.78175354 C13.23305516 27.54242158 13.22576881 29.30313059 13.20898438 31.0637207 C13.18758502 33.7393694 13.20880679 36.41232522 13.234375 39.08789062 C13.23173101 40.80729752 13.22660455 42.52670276 13.21875 44.24609375 C13.22684692 45.03592148 13.23494385 45.82574921 13.24328613 46.63951111 C13.13467531 53.16557312 11.21134395 58.32767999 6.9765625 63.3359375 C0.29971437 68.75891744 -5.7633499 70.17013767 -14.3125 69.3125 C-19.79502718 67.63986459 -24.61829875 64.73822624 -28.3125 60.3125 C-31.10966517 54.85480779 -31.77969554 50.50108439 -31.78125 44.4140625 C-31.78886353 43.57966644 -31.79647705 42.74527039 -31.80432129 41.8855896 C-31.81507389 40.12916031 -31.81799519 38.37266733 -31.81347656 36.61621094 C-31.81250506 33.95137169 -31.85416162 31.2894239 -31.8984375 28.625 C-32.02060658 11.64210233 -32.02060658 11.64210233 -26.3125 5.3125 C-23.9609375 3.15625 -23.9609375 3.15625 -21.6875 1.8125 C-20.93210938 1.3484375 -20.17671875 0.884375 -19.3984375 0.40625 C-13.33519397 -2.77297882 -6.19680066 -2.92168548 0 0 Z " fill="#050505" transform="translate(265.3125,307.6875)"/>
<path d="M0 0 C5.85624896 3.36999437 10.06155571 8.06074282 12.6875 14.3125 C13.2297842 17.30223317 13.24976134 20.21328867 13.21875 23.24609375 C13.2225769 24.08286148 13.22640381 24.91962921 13.23034668 25.78175354 C13.23305516 27.54242158 13.22576881 29.30313059 13.20898438 31.0637207 C13.18758502 33.7393694 13.20880679 36.41232522 13.234375 39.08789062 C13.23173101 40.80729752 13.22660455 42.52670276 13.21875 44.24609375 C13.22684692 45.03592148 13.23494385 45.82574921 13.24328613 46.63951111 C13.13467531 53.16557312 11.21134395 58.32767999 6.9765625 63.3359375 C0.29971437 68.75891744 -5.7633499 70.17013767 -14.3125 69.3125 C-19.79502718 67.63986459 -24.61829875 64.73822624 -28.3125 60.3125 C-31.10966517 54.85480779 -31.77969554 50.50108439 -31.78125 44.4140625 C-31.78886353 43.57966644 -31.79647705 42.74527039 -31.80432129 41.8855896 C-31.81507389 40.12916031 -31.81799519 38.37266733 -31.81347656 36.61621094 C-31.81250506 33.95137169 -31.85416162 31.2894239 -31.8984375 28.625 C-32.02060658 11.64210233 -32.02060658 11.64210233 -26.3125 5.3125 C-23.9609375 3.15625 -23.9609375 3.15625 -21.6875 1.8125 C-20.93210938 1.3484375 -20.17671875 0.884375 -19.3984375 0.40625 C-13.33519397 -2.77297882 -6.19680066 -2.92168548 0 0 Z " fill="#050505" transform="translate(265.3125,221.6875)"/>
<path d="M0 0 C5.85624896 3.36999437 10.06155571 8.06074282 12.6875 14.3125 C13.2297842 17.30223317 13.24976134 20.21328867 13.21875 23.24609375 C13.2225769 24.08286148 13.22640381 24.91962921 13.23034668 25.78175354 C13.23305516 27.54242158 13.22576881 29.30313059 13.20898438 31.0637207 C13.18758502 33.7393694 13.20880679 36.41232522 13.234375 39.08789062 C13.23173101 40.80729752 13.22660455 42.52670276 13.21875 44.24609375 C13.22684692 45.03592148 13.23494385 45.82574921 13.24328613 46.63951111 C13.13467531 53.16557312 11.21134395 58.32767999 6.9765625 63.3359375 C0.29971437 68.75891744 -5.7633499 70.17013767 -14.3125 69.3125 C-19.79502718 67.63986459 -24.61829875 64.73822624 -28.3125 60.3125 C-31.10966517 54.85480779 -31.77969554 50.50108439 -31.78125 44.4140625 C-31.78886353 43.57966644 -31.79647705 42.74527039 -31.80432129 41.8855896 C-31.81507389 40.12916031 -31.81799519 38.37266733 -31.81347656 36.61621094 C-31.81250506 33.95137169 -31.85416162 31.2894239 -31.8984375 28.625 C-32.02060658 11.64210233 -32.02060658 11.64210233 -26.3125 5.3125 C-23.9609375 3.15625 -23.9609375 3.15625 -21.6875 1.8125 C-20.93210938 1.3484375 -20.17671875 0.884375 -19.3984375 0.40625 C-13.33519397 -2.77297882 -6.19680066 -2.92168548 0 0 Z " fill="#050505" transform="translate(265.3125,135.6875)"/>
<path d="M0 0 C0.717323 -0.0038269 1.434646 -0.00765381 2.17370605 -0.01159668 C3.68661914 -0.01431227 5.19957945 -0.00697555 6.71240234 0.00976562 C9.02417976 0.03118449 11.33285013 0.00995649 13.64453125 -0.015625 C15.11719434 -0.01298166 16.5898555 -0.00785653 18.0625 0 C18.75114136 -0.00809692 19.43978271 -0.01619385 20.14929199 -0.02453613 C23.50050713 0.04072426 25.26484492 0.32861096 27.96289062 2.38085938 C29.53125 4.53125 29.53125 4.53125 30.09375 7.46875 C29.32320317 11.66394942 27.87594129 12.91725849 24.53125 15.53125 C21.651258 16.18806505 18.85101952 16.18640122 15.90625 16.15625 C10.56248983 16.02262775 10.56248983 16.02262775 5.53125 17.53125 C3.60491901 21.38391199 4.13636148 25.96380409 4.1796875 30.1953125 C4.09116846 34.41472004 3.86746225 36.08997142 1.21875 39.56640625 C-1.46875 41.53125 -1.46875 41.53125 -5.09375 41.59375 C-8.8875712 40.39939888 -9.59573655 39.92775891 -11.46875 36.53125 C-11.87280273 33.203125 -11.87280273 33.203125 -11.90234375 29.28125 C-11.9075856 28.58612305 -11.91282745 27.89099609 -11.91822815 27.17480469 C-11.92463529 25.70899793 -11.92332822 24.24313967 -11.91479492 22.77734375 C-11.90627617 20.53813013 -11.93507168 18.30146228 -11.96679688 16.0625 C-11.96840891 14.63541743 -11.96783131 13.20833035 -11.96484375 11.78125 C-11.96762329 9.83992188 -11.96762329 9.83992188 -11.97045898 7.859375 C-11.46875 4.53125 -11.46875 4.53125 -9.90454102 2.11132812 C-6.63656449 -0.00858208 -3.77403571 -0.04437445 0 0 Z " fill="#98E29A" transform="translate(26.46875,63.46875)"/>
<path d="M0 0 C3.81255697 1.20024942 4.51367293 1.63171076 6.375 5.0625 C6.74530339 8.48068513 6.85883987 11.78815858 6.90234375 15.21875 C6.99744332 18.21718346 7.24593627 20.74584365 8.3828125 23.53515625 C11.98628827 26.297821 16.67577635 25.53362649 21.0390625 25.46289062 C25.26799856 25.52573321 26.9229841 25.7191306 30.4140625 28.37109375 C32.375 31.0625 32.375 31.0625 32.375 34.6875 C31.03311966 39.21634615 31.03311966 39.21634615 28.375 41.0625 C25.83575884 41.38499094 23.54550189 41.53051216 21.00390625 41.53125 C19.92579933 41.54267029 19.92579933 41.54267029 18.82591248 41.55432129 C17.30707266 41.56511724 15.78815863 41.5679774 14.26928711 41.56347656 C11.94844378 41.56250458 9.63091228 41.60411342 7.31054688 41.6484375 C5.83334022 41.6536451 4.35612208 41.65633268 2.87890625 41.65625 C1.84123863 41.6808429 1.84123863 41.6808429 0.78260803 41.70593262 C-2.73041601 41.65569413 -4.36870553 41.28300375 -7.05859375 38.96875 C-8.97658452 35.41018359 -9.15603646 33.00352573 -9.19140625 28.96875 C-9.19760483 28.29960571 -9.20380341 27.63046143 -9.21018982 26.94104004 C-9.2172638 25.53248543 -9.21415619 24.12384679 -9.20141602 22.71533203 C-9.18753402 20.56776349 -9.2216598 18.42454566 -9.25976562 16.27734375 C-9.26071686 14.90364477 -9.25885777 13.52994038 -9.25390625 12.15625 C-9.25463135 10.91552734 -9.25535645 9.67480469 -9.25610352 8.39648438 C-8.22066821 2.92650194 -5.611108 0.09674324 0 0 Z " fill="#98E29A" transform="translate(23.625,406.9375)"/>
<path d="M0 0 C4.45181247 1.21413067 4.45181247 1.21413067 6.4375 3.9375 C6.82518005 6.51121521 6.82518005 6.51121521 6.84155273 9.63061523 C6.85423691 10.79870224 6.86692108 11.96678925 6.87998962 13.17027283 C6.87705399 14.43279373 6.87411835 15.69531464 6.87109375 16.99609375 C6.8763356 18.29192886 6.88157745 19.58776398 6.88697815 20.92286682 C6.89591231 23.66588063 6.89348333 26.40860336 6.88354492 29.15161133 C6.87205916 32.66361254 6.89225716 36.17460769 6.92146206 39.68647671 C6.94424231 43.03973569 6.93735679 46.3927592 6.93359375 49.74609375 C6.95044472 51.63683876 6.95044472 51.63683876 6.96763611 53.56578064 C6.95825516 54.73701981 6.94887421 55.90825897 6.93920898 57.11499023 C6.93895973 58.66028664 6.93895973 58.66028664 6.93870544 60.23680115 C6.30486897 63.65216996 5.15537112 64.83577327 2.4375 66.9375 C-0.5625 67.4375 -0.5625 67.4375 -3.5625 66.9375 C-6.27421238 64.83832282 -7.42809533 63.65035185 -8.07043457 60.24353027 C-8.07361694 59.21634888 -8.07679932 58.18916748 -8.08007812 57.13085938 C-8.09268677 55.9628479 -8.10529541 54.79483643 -8.11828613 53.59143066 C-8.11018921 52.33407104 -8.10209229 51.07671143 -8.09375 49.78125 C-8.0975769 48.48682983 -8.10140381 47.19240967 -8.10534668 45.85876465 C-8.11123687 43.12163154 -8.10269539 40.38502141 -8.08398438 37.64794922 C-8.06119369 34.14377974 -8.07431954 30.64083566 -8.09827423 27.13671112 C-8.11622454 23.78895979 -8.1036476 20.44153613 -8.09375 17.09375 C-8.10184692 15.83639038 -8.10994385 14.57903076 -8.11828613 13.28356934 C-8.10567749 12.11555786 -8.09306885 10.94754639 -8.08007812 9.74414062 C-8.07689575 8.71695923 -8.07371338 7.68977783 -8.07043457 6.63146973 C-7.1438876 1.71727481 -4.91349598 -0.08620168 0 0 Z " fill="#F3F6F7" transform="translate(256.5625,407.0625)"/>
<path d="M0 0 C2.71236852 2.09573336 3.86455076 3.29100082 4.5146637 6.69396973 C4.52396156 8.23474182 4.52396156 8.23474182 4.53344727 9.80664062 C4.55720177 11.55865784 4.55720177 11.55865784 4.58143616 13.34606934 C4.57647629 14.60342896 4.57151642 15.86078857 4.56640625 17.15625 C4.57260483 18.45067017 4.57880341 19.74509033 4.58518982 21.07873535 C4.59558721 23.81585498 4.59104255 26.55245451 4.57641602 29.28955078 C4.55922036 32.79390391 4.5827325 36.29661857 4.61790562 39.80078888 C4.6451688 43.14853949 4.63514448 46.49589343 4.62890625 49.84375 C4.64216446 51.10110962 4.65542267 52.35846924 4.66908264 53.65393066 C4.65654953 54.82194214 4.64401642 55.98995361 4.63110352 57.19335938 C4.62966087 58.73413147 4.62966087 58.73413147 4.62818909 60.30603027 C4 63 4 63 1.65586853 65.36682129 C-1 67 -1 67 -4.125 66.9375 C-7.13184658 65.95700655 -8.14485875 65.48712586 -10 63 C-10.38768005 60.3815918 -10.38768005 60.3815918 -10.40405273 57.19921875 C-10.41673691 56.0078833 -10.42942108 54.81654785 -10.44248962 53.58911133 C-10.43955399 52.30157959 -10.43661835 51.01404785 -10.43359375 49.6875 C-10.43815457 48.35375705 -10.44345985 47.02001646 -10.44947815 45.6862793 C-10.4584117 42.89199267 -10.45598326 40.09799182 -10.44604492 37.30371094 C-10.43454784 33.72211699 -10.45477493 30.14150788 -10.48396206 26.56004333 C-10.50230351 23.80621066 -10.50203598 21.05261499 -10.49632454 18.29873657 C-10.49609649 16.33608826 -10.51301225 14.3734623 -10.53013611 12.41088867 C-10.52075516 11.21955322 -10.51137421 10.02821777 -10.50170898 8.80078125 C-10.50154282 7.75059814 -10.50137665 6.70041504 -10.50120544 5.6184082 C-10 3 -10 3 -8.15614319 1.16479492 C-5.19741145 -0.4335756 -3.31496694 -0.48343268 0 0 Z " fill="#F3F6F7" transform="translate(259,38)"/>
<path d="M0 0 C0.9265741 0.00565979 1.85314819 0.01131958 2.80780029 0.01715088 C5.76302062 0.03951579 8.71702205 0.08971238 11.671875 0.140625 C13.6770658 0.16068985 15.68227564 0.17894065 17.6875 0.1953125 C22.59942694 0.239381 27.51044442 0.30840945 32.421875 0.390625 C32.421875 5.340625 32.421875 10.290625 32.421875 15.390625 C26.67447742 15.51440104 20.92785873 15.60504748 15.17944336 15.6652832 C13.22487877 15.69039781 11.27040783 15.72449631 9.31616211 15.76782227 C6.50350832 15.82860934 3.69209798 15.85686483 0.87890625 15.87890625 C0.00788773 15.90471268 -0.8631308 15.9305191 -1.76054382 15.95710754 C-6.19206358 15.95914733 -8.00639112 15.82825241 -11.6340332 13.05151367 C-13.578125 10.390625 -13.578125 10.390625 -14.140625 7.328125 C-12.61676134 -0.62982965 -6.73688357 -0.15487262 0 0 Z " fill="#99E49B" transform="translate(201.578125,63.609375)"/>
<path d="M0 0 C0.90437805 0.00424484 1.8087561 0.00848969 2.74053955 0.01286316 C5.62420639 0.02963301 8.50717 0.06728206 11.390625 0.10546875 C13.34764614 0.12051778 15.30467826 0.1342058 17.26171875 0.14648438 C22.05495775 0.17953101 26.84767221 0.2313017 31.640625 0.29296875 C31.640625 5.24296875 31.640625 10.19296875 31.640625 15.29296875 C25.73249958 15.41659357 19.82512726 15.50732005 13.91601562 15.56762695 C11.9061166 15.59276691 9.89630895 15.62688404 7.88671875 15.67016602 C4.99716656 15.7308409 2.10882308 15.75918322 -0.78125 15.78125 C-1.67930359 15.80705643 -2.57735718 15.83286285 -3.50262451 15.85945129 C-9.7172896 15.86224345 -9.7172896 15.86224345 -12.95800781 12.98901367 C-14.8795023 9.29231269 -14.52936087 7.24167107 -13.359375 3.29296875 C-9.75514929 -0.83593027 -5.05339999 -0.08930372 0 0 Z " fill="#9AE49C" transform="translate(202.359375,432.70703125)"/>
<path d="M0 0 C0.717323 -0.0038269 1.434646 -0.00765381 2.17370605 -0.01159668 C3.68661914 -0.01431227 5.19957945 -0.00697555 6.71240234 0.00976562 C9.02417976 0.03118449 11.33285013 0.00995649 13.64453125 -0.015625 C15.11719434 -0.01298166 16.5898555 -0.00785653 18.0625 0 C18.75114136 -0.00809692 19.43978271 -0.01619385 20.14929199 -0.02453613 C23.50050713 0.04072426 25.26484492 0.32861096 27.96289062 2.38085938 C29.53125 4.53125 29.53125 4.53125 30.09375 7.46875 C29.33203759 11.61585092 27.78471322 12.90215019 24.53125 15.53125 C21.19726562 16.17822266 21.19726562 16.17822266 17.4375 16.1953125 C16.76835571 16.20009613 16.09921143 16.20487976 15.40979004 16.20980835 C14.00119666 16.21319656 12.59252348 16.20406922 11.18408203 16.18310547 C9.03629114 16.15631289 6.89372347 16.18287766 4.74609375 16.21484375 C3.37238438 16.21153945 1.99867824 16.20513276 0.625 16.1953125 C-0.61572266 16.18967285 -1.85644531 16.1840332 -3.13476562 16.17822266 C-7.3477475 15.36067711 -8.84127618 13.8597515 -11.46875 10.53125 C-12.03125 7.46875 -12.03125 7.46875 -11.46875 4.53125 C-8.2777471 0.1560393 -5.0963964 -0.05992253 0 0 Z " fill="#96DF98" transform="translate(112.46875,63.46875)"/>
<path d="M0 0 C2.15622571 0.00097226 4.30888763 -0.04066043 6.46459961 -0.08496094 C7.84284744 -0.09016879 9.22110757 -0.09285612 10.59936523 -0.09277344 C11.84645264 -0.09986328 13.09354004 -0.10695313 14.37841797 -0.11425781 C18.63038506 0.66665882 20.13201313 2.10223836 22.72827148 5.50097656 C22.72827148 8.93781107 22.53119807 11.27550385 20.62646484 14.18261719 C17.73339025 16.19195517 14.75915656 15.96873894 11.35717773 15.96972656 C10.27907082 15.98114685 10.27907082 15.98114685 9.17918396 15.99279785 C7.66034414 16.0035938 6.14143011 16.00645396 4.62255859 16.00195312 C2.30171527 16.00098115 -0.01581623 16.04258999 -2.33618164 16.08691406 C-3.8133883 16.09212167 -5.29060643 16.09480925 -6.76782227 16.09472656 C-7.80548988 16.11931946 -7.80548988 16.11931946 -8.86412048 16.14440918 C-12.5402667 16.09183794 -14.01957256 15.73695046 -16.74072266 13.19042969 C-18.27172852 10.50097656 -18.27172852 10.50097656 -18.27172852 6.87597656 C-15.72994872 -1.70253025 -7.4488077 -0.02374122 0 0 Z " fill="#97E099" transform="translate(119.271728515625,432.4990234375)"/>
<path d="M0 0 C3.78837326 1.19263603 4.49610814 1.67798528 6.375 5.0625 C6.92836424 9.4730303 6.84783465 13.89370532 6.82104492 18.33422852 C6.81253919 20.49006777 6.84130016 22.64325077 6.87304688 24.79882812 C6.87465931 26.17708254 6.87408054 27.55534162 6.87109375 28.93359375 C6.87294678 30.18068115 6.8747998 31.42776855 6.87670898 32.71264648 C6.28571318 36.6586579 5.23829636 38.32254171 2.375 41.0625 C-1.125 41.6875 -1.125 41.6875 -4.625 41.0625 C-7.4692311 38.33244523 -8.53152271 36.64672234 -9.15844727 32.72851562 C-9.16932373 31.48779297 -9.1802002 30.24707031 -9.19140625 28.96875 C-9.19760483 28.29960571 -9.20380341 27.63046143 -9.21018982 26.94104004 C-9.2172638 25.53248543 -9.21415619 24.12384679 -9.20141602 22.71533203 C-9.18753402 20.56776349 -9.2216598 18.42454566 -9.25976562 16.27734375 C-9.26071686 14.90364477 -9.25885777 13.52994038 -9.25390625 12.15625 C-9.25463135 10.91552734 -9.25535645 9.67480469 -9.25610352 8.39648438 C-8.22066821 2.92650194 -5.611108 0.09674324 0 0 Z " fill="#99E39B" transform="translate(23.625,320.9375)"/>
<path d="M0 0 C3.78837326 1.19263603 4.49610814 1.67798528 6.375 5.0625 C6.92836424 9.4730303 6.84783465 13.89370532 6.82104492 18.33422852 C6.81253919 20.49006777 6.84130016 22.64325077 6.87304688 24.79882812 C6.87465931 26.17708254 6.87408054 27.55534162 6.87109375 28.93359375 C6.87294678 30.18068115 6.8747998 31.42776855 6.87670898 32.71264648 C6.28571318 36.6586579 5.23829636 38.32254171 2.375 41.0625 C-1.125 41.6875 -1.125 41.6875 -4.625 41.0625 C-7.4692311 38.33244523 -8.53152271 36.64672234 -9.15844727 32.72851562 C-9.16932373 31.48779297 -9.1802002 30.24707031 -9.19140625 28.96875 C-9.19760483 28.29960571 -9.20380341 27.63046143 -9.21018982 26.94104004 C-9.2172638 25.53248543 -9.21415619 24.12384679 -9.20141602 22.71533203 C-9.18753402 20.56776349 -9.2216598 18.42454566 -9.25976562 16.27734375 C-9.26071686 14.90364477 -9.25885777 13.52994038 -9.25390625 12.15625 C-9.25463135 10.91552734 -9.25535645 9.67480469 -9.25610352 8.39648438 C-8.22066821 2.92650194 -5.611108 0.09674324 0 0 Z " fill="#99E39B" transform="translate(23.625,234.9375)"/>
<path d="M0 0 C3.78837326 1.19263603 4.49610814 1.67798528 6.375 5.0625 C6.92836424 9.4730303 6.84783465 13.89370532 6.82104492 18.33422852 C6.81253919 20.49006777 6.84130016 22.64325077 6.87304688 24.79882812 C6.87465931 26.17708254 6.87408054 27.55534162 6.87109375 28.93359375 C6.87294678 30.18068115 6.8747998 31.42776855 6.87670898 32.71264648 C6.28571318 36.6586579 5.23829636 38.32254171 2.375 41.0625 C-1.125 41.6875 -1.125 41.6875 -4.625 41.0625 C-7.4692311 38.33244523 -8.53152271 36.64672234 -9.15844727 32.72851562 C-9.16932373 31.48779297 -9.1802002 30.24707031 -9.19140625 28.96875 C-9.19760483 28.29960571 -9.20380341 27.63046143 -9.21018982 26.94104004 C-9.2172638 25.53248543 -9.21415619 24.12384679 -9.20141602 22.71533203 C-9.18753402 20.56776349 -9.2216598 18.42454566 -9.25976562 16.27734375 C-9.26071686 14.90364477 -9.25885777 13.52994038 -9.25390625 12.15625 C-9.25463135 10.91552734 -9.25535645 9.67480469 -9.25610352 8.39648438 C-8.22066821 2.92650194 -5.611108 0.09674324 0 0 Z " fill="#99E39B" transform="translate(23.625,148.9375)"/>
<path d="M0 0 C4.58341238 1.25002156 4.58341238 1.25002156 6.4375 3.9375 C6.74788354 6.47739379 6.88184424 8.76784636 6.87109375 11.30859375 C6.8763356 12.0273317 6.88157745 12.74606964 6.88697815 13.48658752 C6.89339606 15.00544952 6.89206425 16.52436123 6.88354492 18.04321289 C6.87504142 20.36369686 6.903783 22.68171286 6.93554688 25.00195312 C6.93715924 26.47916593 6.93658069 27.95638308 6.93359375 29.43359375 C6.95044472 30.47126137 6.95044472 30.47126137 6.96763611 31.52989197 C6.91917572 34.89129524 6.64504751 36.66305133 4.59399414 39.37524414 C2.4375 40.9375 2.4375 40.9375 -0.5625 41.4375 C-4.32930691 40.80969885 -5.26987196 39.96279859 -7.5625 36.9375 C-7.96092915 34.3048606 -8.12465695 32.09737832 -8.09375 29.46875 C-8.0975769 28.751427 -8.10140381 28.034104 -8.10534668 27.29504395 C-8.10806227 25.78213086 -8.10072555 24.26917055 -8.08398438 22.75634766 C-8.06256551 20.44457024 -8.08379351 18.13589987 -8.109375 15.82421875 C-8.10673166 14.35155566 -8.10160653 12.8788945 -8.09375 11.40625 C-8.10184692 10.71760864 -8.10994385 10.02896729 -8.11828613 9.31945801 C-8.05336211 5.98551615 -7.74324625 4.18414941 -5.75195312 1.46679688 C-3.5625 -0.0625 -3.5625 -0.0625 0 0 Z " fill="#F2F5F6" transform="translate(256.5625,321.0625)"/>
<path d="M0 0 C4.58341238 1.25002156 4.58341238 1.25002156 6.4375 3.9375 C6.74788354 6.47739379 6.88184424 8.76784636 6.87109375 11.30859375 C6.8763356 12.0273317 6.88157745 12.74606964 6.88697815 13.48658752 C6.89339606 15.00544952 6.89206425 16.52436123 6.88354492 18.04321289 C6.87504142 20.36369686 6.903783 22.68171286 6.93554688 25.00195312 C6.93715924 26.47916593 6.93658069 27.95638308 6.93359375 29.43359375 C6.95044472 30.47126137 6.95044472 30.47126137 6.96763611 31.52989197 C6.91917572 34.89129524 6.64504751 36.66305133 4.59399414 39.37524414 C2.4375 40.9375 2.4375 40.9375 -0.5625 41.4375 C-4.32930691 40.80969885 -5.26987196 39.96279859 -7.5625 36.9375 C-7.96092915 34.3048606 -8.12465695 32.09737832 -8.09375 29.46875 C-8.0975769 28.751427 -8.10140381 28.034104 -8.10534668 27.29504395 C-8.10806227 25.78213086 -8.10072555 24.26917055 -8.08398438 22.75634766 C-8.06256551 20.44457024 -8.08379351 18.13589987 -8.109375 15.82421875 C-8.10673166 14.35155566 -8.10160653 12.8788945 -8.09375 11.40625 C-8.10184692 10.71760864 -8.10994385 10.02896729 -8.11828613 9.31945801 C-8.05336211 5.98551615 -7.74324625 4.18414941 -5.75195312 1.46679688 C-3.5625 -0.0625 -3.5625 -0.0625 0 0 Z " fill="#F2F5F6" transform="translate(256.5625,235.0625)"/>
<path d="M0 0 C4.58341238 1.25002156 4.58341238 1.25002156 6.4375 3.9375 C6.74788354 6.47739379 6.88184424 8.76784636 6.87109375 11.30859375 C6.8763356 12.0273317 6.88157745 12.74606964 6.88697815 13.48658752 C6.89339606 15.00544952 6.89206425 16.52436123 6.88354492 18.04321289 C6.87504142 20.36369686 6.903783 22.68171286 6.93554688 25.00195312 C6.93715924 26.47916593 6.93658069 27.95638308 6.93359375 29.43359375 C6.95044472 30.47126137 6.95044472 30.47126137 6.96763611 31.52989197 C6.91917572 34.89129524 6.64504751 36.66305133 4.59399414 39.37524414 C2.4375 40.9375 2.4375 40.9375 -0.5625 41.4375 C-4.32930691 40.80969885 -5.26987196 39.96279859 -7.5625 36.9375 C-7.96092915 34.3048606 -8.12465695 32.09737832 -8.09375 29.46875 C-8.0975769 28.751427 -8.10140381 28.034104 -8.10534668 27.29504395 C-8.10806227 25.78213086 -8.10072555 24.26917055 -8.08398438 22.75634766 C-8.06256551 20.44457024 -8.08379351 18.13589987 -8.109375 15.82421875 C-8.10673166 14.35155566 -8.10160653 12.8788945 -8.09375 11.40625 C-8.10184692 10.71760864 -8.10994385 10.02896729 -8.11828613 9.31945801 C-8.05336211 5.98551615 -7.74324625 4.18414941 -5.75195312 1.46679688 C-3.5625 -0.0625 -3.5625 -0.0625 0 0 Z " fill="#F2F5F6" transform="translate(256.5625,149.0625)"/>
<path d="M0 0 C13.53 0 27.06 0 41 0 C41 4.95 41 9.9 41 15 C36.71 15 32.42 15 28 15 C28 10.38 28 5.76 28 1 C18.76 1 9.52 1 0 1 C0 0.67 0 0.34 0 0 Z " fill="#84C984" transform="translate(193,433)"/>
<path d="M0 0 C4.29 0 8.58 0 13 0 C13 4.95 13 9.9 13 15 C-0.53 15 -14.06 15 -28 15 C-28 14.67 -28 14.34 -28 14 C-18.76 14 -9.52 14 0 14 C0 9.38 0 4.76 0 0 Z " fill="#84C984" transform="translate(221,64)"/>
<path d="M0 0 C3.96 0 7.92 0 12 0 C12 4.62 12 9.24 12 14 C8.04 14 4.08 14 0 14 C0 9.38 0 4.76 0 0 Z " fill="#FE7D43" transform="translate(279,434)"/>
<path d="M0 0 C3.96 0 7.92 0 12 0 C12 4.62 12 9.24 12 14 C8.04 14 4.08 14 0 14 C0 9.38 0 4.76 0 0 Z " fill="#FE7D43" transform="translate(279,64)"/>
</svg>
