<?xml version="1.0" encoding="UTF-8"?>
<svg version="1.1" xmlns="http://www.w3.org/2000/svg" width="512" height="512">
<path d="M0 0 C1.01823853 0.00215515 2.03647705 0.0043103 3.08557129 0.00653076 C17.7097884 0.05623391 32.00304638 0.37042012 46.375 3.3125 C47.37160645 3.50585938 48.36821289 3.69921875 49.39501953 3.8984375 C97.79648057 13.46213524 141.99059771 35.87987765 177.375 70.3125 C178.37877686 71.27760498 178.37877686 71.27760498 179.40283203 72.26220703 C188.33991207 80.87657599 196.74206664 89.58564609 204.10107422 99.59423828 C205.39750666 101.34285682 206.72788718 103.06078803 208.06640625 104.77734375 C215.93067241 114.9920598 222.3161092 125.94975258 228.375 137.3125 C229.03846436 138.55314209 229.03846436 138.55314209 229.71533203 139.81884766 C241.23204842 161.72199262 248.9030584 186.01309889 253.375 210.3125 C253.53581055 211.11316895 253.69662109 211.91383789 253.86230469 212.73876953 C259.352321 240.80577044 259.12443715 274.31434244 253.375 302.3125 C253.07698486 303.83133789 253.07698486 303.83133789 252.77294922 305.38085938 C240.89469478 364.78102916 208.06580909 421.42141345 159.375 458.3125 C158.84680664 458.72242188 158.31861328 459.13234375 157.77441406 459.5546875 C147.19644526 467.75034012 135.96427651 474.64653339 124.375 481.3125 C123.73127441 481.69003418 123.08754883 482.06756836 122.42431641 482.45654297 C108.87474648 490.37068134 87.38173902 502.79460546 71.375 501.3125 C68.9375 499.9375 68.9375 499.9375 67.375 498.3125 C67.375 497.6525 67.375 496.9925 67.375 496.3125 C66.63894531 496.5290625 65.90289062 496.745625 65.14453125 496.96875 C63.68080078 497.38640625 63.68080078 497.38640625 62.1875 497.8125 C61.22457031 498.0909375 60.26164062 498.369375 59.26953125 498.65625 C56.52154124 499.27927608 54.17901584 499.43552812 51.375 499.3125 C51.313125 500.405625 51.25125 501.49875 51.1875 502.625 C50.375 506.3125 50.375 506.3125 48.44165039 507.93896484 C44.20212912 509.83782215 40.083078 510.39630453 35.49609375 510.9765625 C34.52772079 511.10269928 33.55934784 511.22883606 32.56163025 511.35879517 C21.85609733 512.64746255 11.20691276 512.77692015 0.4375 512.6875 C-1.0711261 512.68052094 -1.0711261 512.68052094 -2.61022949 512.67340088 C-17.13239062 512.59474229 -31.35509771 512.23368897 -45.625 509.3125 C-47.11990967 509.02246094 -47.11990967 509.02246094 -48.64501953 508.7265625 C-89.73382055 500.60778127 -126.82799494 483.23834885 -159.625 457.3125 C-160.66269531 456.50039063 -161.70039063 455.68828125 -162.76953125 454.8515625 C-178.33623494 442.18238389 -192.90286525 427.62451036 -204.625 411.3125 C-205.4887527 410.14261544 -206.35335469 408.9733575 -207.21875 407.8046875 C-222.36207742 387.1786757 -234.4442165 364.56952873 -242.625 340.3125 C-243.03806396 339.08998535 -243.03806396 339.08998535 -243.45947266 337.84277344 C-246.69755506 328.07192323 -249.22985473 318.19031263 -251.375 308.125 C-251.57375732 307.20033936 -251.77251465 306.27567871 -251.97729492 305.32299805 C-255.26999027 289.11638823 -256.00030278 273.1821298 -255.9375 256.6875 C-255.93534485 255.66926147 -255.9331897 254.65102295 -255.93096924 253.60192871 C-255.88126609 238.9777116 -255.56707988 224.68445362 -252.625 210.3125 C-252.33496094 208.81759033 -252.33496094 208.81759033 -252.0390625 207.29248047 C-244.41040781 168.68418872 -228.69757683 132.53083121 -204.625 101.3125 C-203.66013672 100.05953125 -203.66013672 100.05953125 -202.67578125 98.78125 C-188.57295377 80.82715922 -172.21896589 63.63892592 -153.625 50.3125 C-153.08327148 49.920625 -152.54154297 49.52875 -151.98339844 49.125 C-130.96297257 33.97334745 -108.19909835 21.60021655 -83.625 13.3125 C-82.40248535 12.89943604 -82.40248535 12.89943604 -81.15527344 12.47802734 C-71.38442323 9.23994494 -61.50281263 6.70764527 -51.4375 4.5625 C-50.51283936 4.36374268 -49.58817871 4.16498535 -48.63549805 3.96020508 C-32.42888823 0.66750973 -16.4946298 -0.06280278 0 0 Z " fill="#FD7A04" transform="translate(255.625,-0.3125)"/>
<path d="M0 0 C2.44854069 0.00314225 4.89584743 -0.02031933 7.34423828 -0.0456543 C50.89798081 -0.21926123 91.05637894 19.24393576 121.84814453 49.31567383 C151.96203694 79.7437201 168.30973258 120.72245637 168.22314453 163.31567383 C168.22382431 164.61293396 168.22382431 164.61293396 168.22451782 165.93640137 C168.2046517 178.82936314 167.3858711 190.85559274 163.84814453 203.31567383 C163.50783203 204.79680664 163.50783203 204.79680664 163.16064453 206.30786133 C153.9444807 245.13095146 127.18200792 280.89017771 93.84814453 302.31567383 C89.23872343 305.0954425 84.56889081 307.7301248 79.84814453 310.31567383 C78.91615234 310.84161133 77.98416016 311.36754883 77.02392578 311.90942383 C67.46466259 317.03678896 57.22564401 320.28577308 46.84814453 323.31567383 C45.5270166 323.70964355 45.5270166 323.70964355 44.17919922 324.11157227 C30.47140379 328.0345767 17.01372026 328.78636251 2.84814453 328.81567383 C2.0242926 328.82025604 1.20044067 328.82483826 0.35162354 328.82955933 C-14.55025715 328.86243686 -28.3826716 326.71304221 -42.71435547 322.56567383 C-44.04394287 322.18161377 -44.04394287 322.18161377 -45.40039062 321.78979492 C-53.42038529 319.38423152 -60.73527277 316.16706352 -68.15185547 312.31567383 C-69.40531454 311.6910777 -70.65922871 311.0673941 -71.91357422 310.44458008 C-86.52453851 303.06310666 -99.03226536 293.24691192 -111.15185547 282.31567383 C-111.90080078 281.64020508 -112.64974609 280.96473633 -113.42138672 280.26879883 C-136.53919365 258.23390342 -152.25514372 226.46307558 -158.15185547 195.31567383 C-158.33063232 194.4070459 -158.50940918 193.49841797 -158.69360352 192.56225586 C-160.2633105 183.70057819 -160.49154842 175.00414535 -160.4675293 166.03344727 C-160.46437749 163.5827951 -160.48789283 161.13336475 -160.51318359 158.68286133 C-160.57062562 144.55965667 -158.70541791 131.03559611 -154.52685547 117.50317383 C-154.27379639 116.67897949 -154.0207373 115.85478516 -153.76000977 115.00561523 C-147.13344118 94.25901042 -136.67521794 74.60258746 -122.15185547 58.31567383 C-121.38873047 57.44426758 -120.62560547 56.57286133 -119.83935547 55.67504883 C-114.47474143 49.62173434 -109.05093663 43.62973896 -102.77685547 38.50317383 C-100.12024327 36.58646512 -100.12024327 36.58646512 -99.15185547 34.31567383 C-99.31685547 33.09879883 -99.48185547 31.88192383 -99.65185547 30.62817383 C-99.71995692 27.52955793 -99.37325439 26.56777092 -97.29248047 24.19848633 C-94.95591574 22.29716405 -92.86155526 20.63911992 -90.15185547 19.31567383 C-87.78049548 19.59290116 -86.28106765 20.25106774 -84.15185547 21.31567383 C-78.82832057 21.89414899 -75.2665086 20.17921407 -70.71435547 17.69067383 C-57.0694741 10.59244405 -43.18278672 5.59398206 -28.15185547 2.31567383 C-27.29462891 2.12658447 -26.43740234 1.93749512 -25.55419922 1.74267578 C-17.04442432 0.08889768 -8.63597977 -0.02306345 0 0 Z " fill="#FEE82E" transform="translate(252.15185546875,91.684326171875)"/>
<path d="M0 0 C4.51640277 1.68316422 7.95786269 4.05677582 11.6875 7.0625 C12.30471924 7.55419678 12.92193848 8.04589355 13.55786133 8.55249023 C18.89138881 12.83718532 23.97356697 17.36021567 29 22 C29.928125 22.825 30.85625 23.65 31.8125 24.5 C36.54692059 28.71980966 41.09264691 32.92934066 45.16015625 37.80078125 C46.50777009 39.41162328 47.89691109 40.98796805 49.30859375 42.54296875 C69.98136296 65.79599444 84.72817702 93.78655848 95 123 C95.25861816 123.7331543 95.51723633 124.46630859 95.78369141 125.22167969 C98.9764473 134.51894944 100.91568963 144.04087495 102.75 153.6875 C102.96108398 154.7919043 103.17216797 155.89630859 103.38964844 157.03417969 C108.71794534 186.51042317 108.32513188 219.74296795 102 249 C101.82871582 249.8549707 101.65743164 250.70994141 101.48095703 251.59082031 C91.7742811 299.53676426 62.98848001 348.75713794 25 380 C24.15566406 380.7321875 23.31132812 381.464375 22.44140625 382.21875 C-1.31975203 402.59466863 -28.57439281 417.52264376 -58.08642578 427.79418945 C-62.41964548 429.25588538 -62.41964548 429.25588538 -66 432 C-66.40047444 434.32275177 -66.7397104 436.65739357 -67 439 C-68.72681437 439.50806447 -70.45657979 440.00610467 -72.1875 440.5 C-73.15042969 440.7784375 -74.11335938 441.056875 -75.10546875 441.34375 C-77.90238472 441.9778686 -80.15086661 442.32040427 -83 442 C-83.639375 441.154375 -84.27875 440.30875 -84.9375 439.4375 C-89.34216327 435.9317476 -92.71974444 436.9066081 -98.13671875 437.5078125 C-100.09354553 437.757115 -102.0503657 438.0068753 -104.00488281 438.27368164 C-113.0890638 439.36516875 -122.24004419 439.1987843 -131.375 439.1875 C-132.72025253 439.18659363 -132.72025253 439.18659363 -134.09268188 439.18566895 C-146.82417722 439.16231859 -159.40242298 439.02173035 -172 437 C-172.81243164 436.87641113 -173.62486328 436.75282227 -174.46191406 436.62548828 C-219.98752192 429.50941657 -261.64683142 408.17303084 -295.5234375 377.25390625 C-297.20252205 375.7257804 -298.89580823 374.21314142 -300.6015625 372.71484375 C-305.84324538 368.09867892 -310.52633736 363.35372742 -315 358 C-316.28390625 356.53046875 -316.28390625 356.53046875 -317.59375 355.03125 C-323.689501 348.02494355 -329.04712451 340.87634928 -334 333 C-328.44849503 326.21482725 -322.23163553 320.1507052 -316 314 C-315.13955078 313.07960938 -315.13955078 313.07960938 -314.26171875 312.140625 C-313 311 -313 311 -311 311 C-310.67 310.01 -310.34 309.02 -310 308 C-308.5390625 306.5625 -308.5390625 306.5625 -306.625 305 C-301.09342288 300.32330298 -296.0753467 295.15931384 -291 290 C-286.83773645 291.38742118 -285.60533032 294.32318389 -283.375 297.875 C-278.98942368 304.63816348 -274.31527034 310.92540533 -269 317 C-268.54367187 317.52335937 -268.08734375 318.04671875 -267.6171875 318.5859375 C-260.95687278 326.17228529 -254.04644366 332.85689358 -246 339 C-245.08992188 339.72574219 -244.17984375 340.45148438 -243.2421875 341.19921875 C-225.77648781 354.83388622 -206.01102739 364.25384941 -185 371 C-183.82308594 371.3815625 -182.64617187 371.763125 -181.43359375 372.15625 C-135.83656814 385.60609889 -86.57914173 377.39177108 -45.34692383 355.02929688 C-34.44579345 348.90871325 -24.36626966 341.60288539 -15.23046875 333.078125 C-13.18217378 331.16973109 -11.07964403 329.36375274 -8.9375 327.5625 C23.06924258 299.46058001 41.31151863 254.63680718 45 213 C47.02754966 180.726574 41.47635241 148.98809933 27 120 C26.68981934 119.35949707 26.37963867 118.71899414 26.06005859 118.05908203 C18.84830523 103.22750676 9.31367987 89.97401138 -2 78 C-3.15064027 76.64991542 -4.2966696 75.29588411 -5.4375 73.9375 C-16.01967913 61.88490418 -29.60944041 52.6670809 -43 44 C-38.37508621 38.44560076 -33.44639036 33.31474331 -28.3203125 28.22265625 C-27.10116653 27.00563271 -27.10116653 27.00563271 -25.85739136 25.76402283 C-23.28228262 23.1944741 -20.7037038 20.62844032 -18.125 18.0625 C-16.36956054 16.31208071 -14.61434983 14.561432 -12.859375 12.81054688 C-8.57555918 8.53770698 -4.28889528 4.26774101 0 0 Z " fill="#FE7A04" transform="translate(390,57)"/>
<path d="M0 0 C1.01823853 0.00215515 2.03647705 0.0043103 3.08557129 0.00653076 C17.7097884 0.05623391 32.00304638 0.37042012 46.375 3.3125 C47.37160645 3.50585938 48.36821289 3.69921875 49.39501953 3.8984375 C97.79648057 13.46213524 141.99059771 35.87987765 177.375 70.3125 C178.37877686 71.27760498 178.37877686 71.27760498 179.40283203 72.26220703 C188.33991207 80.87657599 196.74206664 89.58564609 204.10107422 99.59423828 C205.39750666 101.34285682 206.72788718 103.06078803 208.06640625 104.77734375 C215.93067241 114.9920598 222.3161092 125.94975258 228.375 137.3125 C229.03846436 138.55314209 229.03846436 138.55314209 229.71533203 139.81884766 C241.23204842 161.72199262 248.9030584 186.01309889 253.375 210.3125 C253.53581055 211.11316895 253.69662109 211.91383789 253.86230469 212.73876953 C259.352321 240.80577044 259.12443715 274.31434244 253.375 302.3125 C253.07698486 303.83133789 253.07698486 303.83133789 252.77294922 305.38085938 C240.89469478 364.78102916 208.06580909 421.42141345 159.375 458.3125 C158.84680664 458.72242188 158.31861328 459.13234375 157.77441406 459.5546875 C147.19644526 467.75034012 135.96427651 474.64653339 124.375 481.3125 C123.73127441 481.69003418 123.08754883 482.06756836 122.42431641 482.45654297 C108.87474648 490.37068134 87.38173902 502.79460546 71.375 501.3125 C68.9375 500.375 68.9375 500.375 67.375 498.3125 C66.74879682 495.19329927 66.51671697 492.38845845 67.375 489.3125 C71.47743715 484.88153093 76.93404344 483.49408567 82.5 481.625 C112.23240757 471.17277552 139.87460346 454.82464718 162.64453125 432.92578125 C164.9546871 430.71477372 167.30748845 428.62351451 169.75 426.5625 C172.93086367 423.79825673 175.70769267 420.85046951 178.421875 417.62890625 C179.84123103 415.94555 181.29384351 414.29006139 182.765625 412.65234375 C201.58538146 391.50998479 214.76891246 366.3624518 225.375 340.3125 C225.79072266 339.2918042 225.79072266 339.2918042 226.21484375 338.25048828 C230.34252119 327.91734981 233.0369681 317.16873605 235.375 306.3125 C235.57544922 305.40145508 235.77589844 304.49041016 235.98242188 303.55175781 C239.11806083 288.68060454 239.74647795 274.07931482 239.75 258.9375 C239.75190338 258.06260925 239.75380676 257.18771851 239.75576782 256.28631592 C239.75178797 240.13230299 238.82893916 223.87885913 235.6875 208 C235.51943848 207.14647949 235.35137695 206.29295898 235.17822266 205.41357422 C226.55822754 163.77922445 206.09878794 125.98376335 177.5625 94.72265625 C175.44233383 92.38668746 173.3780269 90.00923125 171.3125 87.625 C167.61085761 83.46609591 163.63683045 79.88322281 159.375 76.3125 C158.405625 75.466875 157.43625 74.62125 156.4375 73.75 C130.29833426 51.03158428 98.73534969 34.51385135 65.375 25.3125 C64.29605469 24.98894531 63.21710938 24.66539063 62.10546875 24.33203125 C42.89371449 18.80362126 23.61641171 16.63691274 3.66601562 16.79101562 C0.37555325 16.81249639 -2.91272696 16.79104103 -6.203125 16.765625 C-63.22319725 16.69032122 -118.53893118 40.40942788 -160.625 78.3125 C-161.2029834 78.82876953 -161.7809668 79.34503906 -162.37646484 79.87695312 C-168.8677782 85.68942455 -175.10431694 91.55247992 -180.625 98.3125 C-181.57483192 99.42767047 -182.52542971 100.54218884 -183.4765625 101.65625 C-211.15557077 134.44834439 -229.12402884 174.1495251 -236.625 216.3125 C-236.80450195 217.27099854 -236.98400391 218.22949707 -237.16894531 219.21704102 C-239.03766066 230.40175369 -239.02121905 241.56210092 -239 252.875 C-238.99978851 253.91274567 -238.99957703 254.95049133 -238.99935913 256.01968384 C-238.96466856 273.10306345 -238.00394245 289.524079 -234.625 306.3125 C-234.44839844 307.21774414 -234.27179688 308.12298828 -234.08984375 309.05566406 C-225.9345274 349.39427512 -204.8691917 386.86145938 -177.625 417.3125 C-176.72611994 418.33424625 -175.82766904 419.35637024 -174.9296875 420.37890625 C-170.11859696 425.7858658 -165.18143638 430.6869849 -159.625 435.3125 C-158.66980469 436.14394531 -157.71460938 436.97539062 -156.73046875 437.83203125 C-124.86003327 465.49955612 -86.36432132 484.18517009 -44.9375 492.0625 C-43.8330957 492.27358398 -42.72869141 492.48466797 -41.59082031 492.70214844 C-27.92878996 495.17177636 -14.30969856 495.49910907 -0.46777344 495.49780273 C2.10759124 495.49998525 4.68252322 495.51820952 7.2578125 495.53710938 C17.14303427 495.56931456 26.75971416 495.01754727 36.56347656 493.7434082 C45.57901701 492.72416474 45.57901701 492.72416474 49.25 495.4375 C51.375 498.3125 51.375 498.3125 51.875 501.375 C51.30027305 504.75152081 50.80156674 505.915169 48.375 508.3125 C45.75943569 509.0736586 43.41880507 509.59795266 40.75 510 C40.07582031 510.11666016 39.40164063 510.23332031 38.70703125 510.35351562 C30.2217347 511.7784658 21.84426045 512.4729336 13.2421875 512.515625 C12.2958847 512.52268463 11.34958191 512.52974426 10.37460327 512.53701782 C-28.77050628 512.76278019 -28.77050628 512.76278019 -45.625 509.3125 C-47.11990967 509.02246094 -47.11990967 509.02246094 -48.64501953 508.7265625 C-89.73382055 500.60778127 -126.82799494 483.23834885 -159.625 457.3125 C-160.66269531 456.50039063 -161.70039063 455.68828125 -162.76953125 454.8515625 C-178.33623494 442.18238389 -192.90286525 427.62451036 -204.625 411.3125 C-205.4887527 410.14261544 -206.35335469 408.9733575 -207.21875 407.8046875 C-222.36207742 387.1786757 -234.4442165 364.56952873 -242.625 340.3125 C-243.03806396 339.08998535 -243.03806396 339.08998535 -243.45947266 337.84277344 C-246.69755506 328.07192323 -249.22985473 318.19031263 -251.375 308.125 C-251.57375732 307.20033936 -251.77251465 306.27567871 -251.97729492 305.32299805 C-255.26999027 289.11638823 -256.00030278 273.1821298 -255.9375 256.6875 C-255.93534485 255.66926147 -255.9331897 254.65102295 -255.93096924 253.60192871 C-255.88126609 238.9777116 -255.56707988 224.68445362 -252.625 210.3125 C-252.33496094 208.81759033 -252.33496094 208.81759033 -252.0390625 207.29248047 C-244.41040781 168.68418872 -228.69757683 132.53083121 -204.625 101.3125 C-203.66013672 100.05953125 -203.66013672 100.05953125 -202.67578125 98.78125 C-188.57295377 80.82715922 -172.21896589 63.63892592 -153.625 50.3125 C-153.08327148 49.920625 -152.54154297 49.52875 -151.98339844 49.125 C-130.96297257 33.97334745 -108.19909835 21.60021655 -83.625 13.3125 C-82.40248535 12.89943604 -82.40248535 12.89943604 -81.15527344 12.47802734 C-71.38442323 9.23994494 -61.50281263 6.70764527 -51.4375 4.5625 C-50.51283936 4.36374268 -49.58817871 4.16498535 -48.63549805 3.96020508 C-32.42888823 0.66750973 -16.4946298 -0.06280278 0 0 Z " fill="#020000" transform="translate(255.625,-0.3125)"/>
<path d="M0 0 C2.44854069 0.00314225 4.89584743 -0.02031933 7.34423828 -0.0456543 C33.58761175 -0.15026142 58.75281815 6.98066997 81.84814453 19.31567383 C81.84814453 22.97767239 80.71826444 23.7974259 78.23085022 26.30622864 C77.69785812 26.82843491 77.16486603 27.35064117 76.61572266 27.88867188 C76.05976913 28.44506348 75.50381561 29.00145508 74.93101501 29.57470703 C73.08749521 31.41613307 71.23356868 33.24670015 69.37939453 35.07739258 C68.10078863 36.35040463 66.8228425 37.62407967 65.54553223 38.89839172 C62.17863233 42.25382627 58.80282104 45.60015558 55.42510986 48.94470215 C51.98129373 52.35785396 48.54593347 55.77949292 45.10986328 59.20043945 C38.36423147 65.91387728 31.60916018 72.61773162 24.84814453 79.31567383 C24.23455078 78.53450195 23.62095703 77.75333008 22.98876953 76.94848633 C18.24869698 71.11854308 12.81647701 67.97127255 5.39111328 66.99145508 C-0.68608218 66.72073516 -5.21150042 67.73195097 -10.15185547 71.31567383 C-17.23540722 78.52813011 -21.00911934 88.85017971 -25.26831055 97.85693359 C-26.29148931 100.0120589 -27.33190392 102.15817743 -28.37451172 104.30395508 C-28.67986343 104.96333572 -28.98521515 105.62271637 -29.29981995 106.30207825 C-31.28193753 110.3549351 -32.9999685 112.49577802 -37.15185547 114.31567383 C-39.32983398 114.86816406 -39.32983398 114.86816406 -41.53076172 115.12426758 C-42.3601123 115.22916504 -43.18946289 115.3340625 -44.04394531 115.44213867 C-44.92518066 115.54478027 -45.80641602 115.64742188 -46.71435547 115.75317383 C-54.18447337 116.73598049 -61.61888845 117.81016461 -69.02685547 119.19067383 C-70.24610718 119.39648071 -70.24610718 119.39648071 -71.48999023 119.60644531 C-78.01343527 120.86406703 -82.84287842 123.29624231 -86.92919922 128.63989258 C-90.32343163 135.55406971 -91.71373706 141.31765274 -89.37060547 148.81567383 C-85.39006206 157.91405876 -77.83387873 164.3072342 -70.15185547 170.31567383 C-70.7318072 173.47519747 -71.5761522 175.11495506 -73.8401947 177.37823486 C-74.69616493 178.24472656 -74.69616493 178.24472656 -75.56942749 179.12872314 C-76.51309677 180.06092682 -76.51309677 180.06092682 -77.47583008 181.01196289 C-78.13600632 181.67578979 -78.79618256 182.3396167 -79.47636414 183.02355957 C-81.66163674 185.21694197 -83.85758778 187.39927647 -86.05419922 189.58129883 C-87.57306654 191.09964769 -89.09141623 192.61851453 -90.60926819 194.13787842 C-93.79153611 197.3200566 -96.97891313 200.49699906 -100.17016602 203.67016602 C-104.26911779 207.74640186 -108.35687439 211.83364825 -112.44110775 215.9246254 C-115.57444608 219.06129767 -118.71273653 222.19297539 -121.85266304 225.32305145 C-123.36234785 226.82887622 -124.87067343 228.33606493 -126.37763786 229.84461212 C-128.47969939 231.94704267 -130.58811092 234.04288226 -132.69848633 236.13696289 C-133.32557495 236.76652893 -133.95266357 237.39609497 -134.59875488 238.04473877 C-138.9231146 242.31567383 -138.9231146 242.31567383 -141.15185547 242.31567383 C-149.11787479 227.23208695 -154.97025756 212.12139751 -158.15185547 195.31567383 C-158.33063232 194.4070459 -158.50940918 193.49841797 -158.69360352 192.56225586 C-160.2633105 183.70057819 -160.49154842 175.00414535 -160.4675293 166.03344727 C-160.46437749 163.5827951 -160.48789283 161.13336475 -160.51318359 158.68286133 C-160.57062562 144.55965667 -158.70541791 131.03559611 -154.52685547 117.50317383 C-154.27379639 116.67897949 -154.0207373 115.85478516 -153.76000977 115.00561523 C-147.13344118 94.25901042 -136.67521794 74.60258746 -122.15185547 58.31567383 C-121.38873047 57.44426758 -120.62560547 56.57286133 -119.83935547 55.67504883 C-114.47474143 49.62173434 -109.05093663 43.62973896 -102.77685547 38.50317383 C-100.12024327 36.58646512 -100.12024327 36.58646512 -99.15185547 34.31567383 C-99.31685547 33.09879883 -99.48185547 31.88192383 -99.65185547 30.62817383 C-99.71995692 27.52955793 -99.37325439 26.56777092 -97.29248047 24.19848633 C-94.95591574 22.29716405 -92.86155526 20.63911992 -90.15185547 19.31567383 C-87.78049548 19.59290116 -86.28106765 20.25106774 -84.15185547 21.31567383 C-78.82832057 21.89414899 -75.2665086 20.17921407 -70.71435547 17.69067383 C-57.0694741 10.59244405 -43.18278672 5.59398206 -28.15185547 2.31567383 C-27.29462891 2.12658447 -26.43740234 1.93749512 -25.55419922 1.74267578 C-17.04442432 0.08889768 -8.63597977 -0.02306345 0 0 Z " fill="#FEEA2F" transform="translate(252.15185546875,91.684326171875)"/>
<path d="M0 0 C6.11543826 3.93558043 9.47610202 10.0236893 12.375 16.50390625 C13.08345639 18.00836827 13.79312902 19.51225806 14.50390625 21.015625 C15.59431852 23.35110054 16.67465302 25.68975649 17.73388672 28.03955078 C22.16163251 38.74768955 22.16163251 38.74768955 30.78125 45.86328125 C31.59561523 46.12866699 32.40998047 46.39405273 33.24902344 46.66748047 C35.98195571 47.78828977 36.95024982 49.02689959 38.421875 51.55859375 C38.421875 52.54859375 38.421875 53.53859375 38.421875 54.55859375 C39.50855469 54.64947266 39.50855469 54.64947266 40.6171875 54.7421875 C45.59304033 55.17342808 50.50867891 55.62907016 55.421875 56.55859375 C55.710625 55.93984375 55.999375 55.32109375 56.296875 54.68359375 C57.421875 52.55859375 57.421875 52.55859375 59.421875 50.55859375 C66.00309151 49.91337644 70.46809359 51.80039053 76.046875 55.12109375 C80.74435277 59.94218936 83.67289833 65.78427357 84.046875 72.55859375 C83.20044963 85.49681009 73.12441792 93.55800634 64.109375 101.62890625 C62.82249161 102.74990233 61.53358685 103.86858434 60.2421875 104.984375 C59.64148438 105.50386719 59.04078125 106.02335937 58.421875 106.55859375 C57.75929688 107.12964844 57.09671875 107.70070313 56.4140625 108.2890625 C55.77726563 108.87300781 55.14046875 109.45695312 54.484375 110.05859375 C53.91847656 110.56390625 53.35257813 111.06921875 52.76953125 111.58984375 C50.2583564 115.25834266 50.30669917 119.4801736 50.76733398 123.79321289 C50.98204346 124.88239014 51.19675293 125.97156738 51.41796875 127.09375 C51.64677734 128.31642578 51.87558594 129.53910156 52.11132812 130.79882812 C52.60472804 133.31993423 53.09948965 135.84077428 53.59570312 138.36132812 C57.90176503 161.41142422 57.90176503 161.41142422 52.75 169.8828125 C47.63715698 176.33401737 41.62954536 179.82392115 33.484375 181.24609375 C25.91234991 180.95240644 18.92118958 176.11866606 12.421875 172.55859375 C9.92163469 171.18908289 7.4202283 169.82239716 4.91162109 168.46826172 C3.29025991 167.59096509 1.67554536 166.70123493 0.06884766 165.79736328 C-4.5684015 163.27692419 -9.16929546 160.79834744 -14.578125 161.55859375 C-18.87957034 163.19736572 -22.81950647 165.37076819 -26.828125 167.62109375 C-28.95783502 168.77956239 -31.0880423 169.93711736 -33.21875 171.09375 C-34.26498535 171.66706055 -35.3112207 172.24037109 -36.38916016 172.83105469 C-39.61320701 174.57759852 -42.85268511 176.28342206 -46.1171875 177.953125 C-47.54345459 178.68366089 -47.54345459 178.68366089 -48.99853516 179.42895508 C-54.54389652 181.85734681 -58.99187095 180.94434322 -64.640625 179.05859375 C-69.91603038 176.76635289 -73.53001543 173.42517778 -76.578125 168.55859375 C-80.84212775 157.51799418 -78.21793185 145.94631951 -76.015625 134.68359375 C-75.52492938 132.16733737 -75.0441134 129.64912993 -74.57421875 127.12890625 C-74.35950928 126.03336426 -74.1447998 124.93782227 -73.92358398 123.80908203 C-73.45821189 119.43030887 -73.39987365 115.3826327 -75.84985352 111.58984375 C-76.64540649 110.831875 -76.64540649 110.831875 -77.45703125 110.05859375 C-78.04476318 109.48512207 -78.63249512 108.91165039 -79.23803711 108.32080078 C-79.86589111 107.73927246 -80.49374512 107.15774414 -81.140625 106.55859375 C-81.77814697 105.94483887 -82.41566895 105.33108398 -83.07250977 104.69873047 C-86.88826235 101.0503993 -90.82192013 97.55718718 -94.8359375 94.12890625 C-101.48154097 88.13892286 -106.51612002 81.98314995 -107.078125 72.74609375 C-106.84280542 66.3042203 -104.67351573 60.47440876 -99.9284668 56.00463867 C-94.99098224 51.96588312 -90.62706403 50.36927379 -84.390625 49.37109375 C-83.53855469 49.21656738 -82.68648437 49.06204102 -81.80859375 48.90283203 C-74.36886328 47.58922073 -66.87820302 46.53300583 -59.38208008 45.59692383 C-58.5495874 45.48888428 -57.71709473 45.38084473 -56.859375 45.26953125 C-55.76206055 45.13490479 -55.76206055 45.13490479 -54.64257812 44.99755859 C-52.14342534 44.46616353 -50.67772073 44.06441945 -48.578125 42.55859375 C-47.12264704 40.10397887 -45.88214957 37.74557374 -44.6796875 35.171875 C-44.32224457 34.43664108 -43.96480164 33.70140717 -43.5965271 32.94389343 C-42.45374553 30.59170774 -41.32686083 28.23243152 -40.203125 25.87109375 C-39.08600451 23.52789488 -37.96517426 21.18691989 -36.83114624 18.85185242 C-36.12650094 17.40078627 -35.43119985 15.94512929 -34.7472229 14.48420715 C-31.36221335 7.5097989 -27.0477034 1.41334206 -19.7734375 -1.78125 C-12.81994586 -3.8722466 -6.63772029 -2.50585078 0 0 Z " fill="#FD7900" transform="translate(267.578125,160.44140625)"/>
<path d="M0 0 C0.69786621 0.12358887 1.39573242 0.24717773 2.11474609 0.37451172 C49.95676699 9.2222291 91.88854549 36.17413743 119.67871094 76.06201172 C129.42799424 90.36168113 137.96602351 106.40326527 143 123 C143.1954541 123.63212402 143.3909082 124.26424805 143.59228516 124.91552734 C157.91767253 172.09293686 151.75120905 221.50228671 129 264.86328125 C122.71680434 276.44831832 115.06080881 287.14382791 106.07421875 296.7734375 C104.18675832 298.79952496 102.40379289 300.87896905 100.625 303 C72.44838925 335.1007506 27.92673872 354.22791375 -14 358 C-60.65291545 360.88644917 -106.92614977 347.7047187 -143.0078125 317.48046875 C-145.37492206 315.35586124 -147.6880812 313.18418848 -150 311 C-151.32941948 309.87037767 -152.66263718 308.74520688 -154 307.625 C-186.5056107 279.09302107 -205.24543768 234.38275099 -209 192 C-211.02532893 159.76192228 -205.51715401 127.94322548 -191 99 C-190.67386719 98.33822754 -190.34773438 97.67645508 -190.01171875 96.99462891 C-183.28715799 83.44838972 -174.84573533 71.49528261 -165 60 C-164.29230469 59.16855469 -163.58460938 58.33710938 -162.85546875 57.48046875 C-146.16640885 38.3857786 -146.16640885 38.3857786 -138.625 37.6875 C-135 38 -135 38 -132.5625 39.625 C-130.45896742 42.82236952 -130.26054775 44.22879353 -131 48 C-134.02272172 52.78781469 -138.46328297 56.44077903 -142.77734375 60.03125 C-170.04521693 84.18416403 -188.09915905 121.94515692 -192 158 C-192.31390611 163.39868563 -192.3300763 168.80052769 -192.31567383 174.20678711 C-192.31252711 176.66631013 -192.33600923 179.12461014 -192.36132812 181.58398438 C-192.53414025 225.0686862 -172.99158562 265.27269006 -143 296 C-123.26299992 315.51452182 -97.10696407 329.56384499 -70.4375 336.6875 C-69.30526001 336.99119507 -69.30526001 336.99119507 -68.15014648 337.30102539 C-55.48127428 340.55679662 -43.27231042 341.44233451 -30.25 341.4375 C-29.38828186 341.43823517 -28.52656372 341.43897034 -27.63873291 341.43972778 C-13.24174777 341.40753879 0.1378168 340.11525586 14 336 C15.37043457 335.60651367 15.37043457 335.60651367 16.76855469 335.20507812 C58.13050319 323.11399328 92.91200331 295.6601578 113.7890625 258.01171875 C121.47436855 243.87127358 127.65062007 229.80466926 131 214 C131.25450928 212.80511963 131.50901855 211.61023926 131.77124023 210.37915039 C133.81775486 200.16599963 134.4704931 190.28376921 134.39111328 179.87890625 C134.37496295 177.36924314 134.391107 174.86117887 134.41015625 172.3515625 C134.42351415 162.16697582 133.41535842 152.93047484 131 143 C130.71793701 141.71053467 130.71793701 141.71053467 130.43017578 140.39501953 C121.6164129 100.28164995 95.97803072 63.71760006 61.625 41.25 C43.3353751 29.62649458 23.35988367 20.95175965 2 17 C1.09572266 16.82267334 0.19144531 16.64534668 -0.74023438 16.46264648 C-9.64234802 14.88312585 -18.38008651 14.66031551 -27.39208984 14.68432617 C-29.86470684 14.68748684 -32.33612343 14.66393119 -34.80859375 14.63867188 C-44.94973259 14.59818475 -54.10952999 15.59418982 -64 18 C-64.85996582 18.18812256 -65.71993164 18.37624512 -66.60595703 18.57006836 C-80.95418849 21.72249451 -95.21503474 26.77697095 -107.9140625 34.2421875 C-111.3957305 36.22541611 -113.07109045 36.76869969 -117 36 C-119.9375 33.9375 -119.9375 33.9375 -122 31 C-122.125 27.4375 -122.125 27.4375 -121 24 C-116.7807276 19.89816262 -111.57426812 17.60723578 -106.3125 15.125 C-104.91789551 14.46636963 -104.91789551 14.46636963 -103.49511719 13.79443359 C-71.41270212 -1.04436656 -34.90933734 -6.21579433 0 0 Z " fill="#040300" transform="translate(285,78)"/>
<path d="M0 0 C19.12101697 17.53640231 30.57936472 47.05140424 39 71 C39.25861816 71.7331543 39.51723633 72.46630859 39.78369141 73.22167969 C42.9764473 82.51894944 44.91568963 92.04087495 46.75 101.6875 C46.96108398 102.7919043 47.17216797 103.89630859 47.38964844 105.03417969 C52.71794534 134.51042317 52.32513188 167.74296795 46 197 C45.82871582 197.8549707 45.65743164 198.70994141 45.48095703 199.59082031 C35.7742811 247.53676426 6.98848001 296.75713794 -31 328 C-31.84433594 328.7321875 -32.68867188 329.464375 -33.55859375 330.21875 C-57.31975203 350.59466863 -84.57439281 365.52264376 -114.08642578 375.79418945 C-118.41964548 377.25588538 -118.41964548 377.25588538 -122 380 C-122.40047444 382.32275177 -122.7397104 384.65739357 -123 387 C-124.72681437 387.50806447 -126.45657979 388.00610467 -128.1875 388.5 C-129.15042969 388.7784375 -130.11335937 389.056875 -131.10546875 389.34375 C-133.90238472 389.9778686 -136.15086661 390.32040427 -139 390 C-139.639375 389.154375 -140.27875 388.30875 -140.9375 387.4375 C-145.34216327 383.9317476 -148.71974444 384.9066081 -154.13671875 385.5078125 C-156.09354553 385.757115 -158.0503657 386.0068753 -160.00488281 386.27368164 C-169.0890638 387.36516875 -178.24004419 387.1987843 -187.375 387.1875 C-188.72025253 387.18659363 -188.72025253 387.18659363 -190.09268188 387.18566895 C-202.82149588 387.16232351 -215.40619351 387.03402273 -228 385 C-229.24257568 384.80664062 -229.24257568 384.80664062 -230.51025391 384.609375 C-243.69128177 382.49845599 -256.3051089 379.09072753 -269 375 C-269 374.67 -269 374.34 -269 374 C-262.35964509 374.49671946 -255.86039651 375.2817867 -249.3125 376.5 C-239.20231399 378.02606581 -229.08239058 378.24033929 -218.875 378.25 C-218.1317749 378.25100708 -217.3885498 378.25201416 -216.62280273 378.25305176 C-197.40634449 378.23556916 -178.64547954 376.21636198 -159.99072266 371.50292969 C-158.07482912 371.01890459 -156.15271364 370.55971413 -154.23046875 370.1015625 C-112.88769843 359.7988913 -75.53920683 337.40602661 -45 308 C-44.21447754 307.24734863 -44.21447754 307.24734863 -43.41308594 306.47949219 C-26.89750442 290.57749265 -13.20306518 271.98162474 -2 252 C-1.6292334 251.34741211 -1.2584668 250.69482422 -0.87646484 250.02246094 C5.09151518 239.44944819 9.8653674 228.59164998 14.14941406 217.23779297 C14.87542216 215.32774986 15.63366027 213.43000934 16.3984375 211.53515625 C20.9690499 199.75927908 23.48125465 187.34601233 26 175 C26.18369141 174.11940918 26.36738281 173.23881836 26.55664062 172.33154297 C37.13969435 119.21599745 26.16844173 56.58249875 -1.234375 10.18359375 C-3 7 -3 7 -2.875 4.75 C-2 3 -2 3 0 0 Z " fill="#FD6400" transform="translate(446,109)"/>
<path d="M0 0 C6.11543826 3.93558043 9.47610202 10.0236893 12.375 16.50390625 C13.08345639 18.00836827 13.79312902 19.51225806 14.50390625 21.015625 C15.59431852 23.35110054 16.67465302 25.68975649 17.73388672 28.03955078 C22.20456278 38.78203716 22.20456278 38.78203716 30.84375 45.98828125 C32.36677919 46.5204204 33.89225078 47.04571975 35.421875 47.55859375 C37.421875 49.55859375 37.421875 49.55859375 37.796875 53.49609375 C37.7016053 56.25891505 37.62709271 57.27307346 35.984375 59.55859375 C31.40009138 61.34758248 26.97640559 61.33747059 22.26953125 59.90234375 C14.13285598 56.27910256 9.89965456 49.28727048 6.22265625 41.5078125 C5.68006416 40.39778618 5.68006416 40.39778618 5.12651062 39.26533508 C3.98591217 36.93023526 2.85884369 34.58899855 1.734375 32.24609375 C0.59837336 29.88578024 -0.54068208 27.52720538 -1.68989563 25.17329407 C-2.40125098 23.71585754 -3.10502177 22.25468837 -3.80021667 20.78947449 C-5.44754236 17.41038931 -6.38511822 15.68726494 -9.578125 13.55859375 C-12.56794421 13.21468569 -12.56794421 13.21468569 -15.578125 14.55859375 C-17.63337397 17.11251941 -18.93643576 19.97874805 -20.328125 22.93359375 C-21.19395251 24.66409147 -22.0598397 26.39455934 -22.92578125 28.125 C-23.81051981 29.9358932 -24.69463225 31.74709243 -25.578125 33.55859375 C-27.28276916 37.00899594 -29.01727476 40.44267764 -30.765625 43.87109375 C-31.14493164 44.65210449 -31.52423828 45.43311523 -31.91503906 46.23779297 C-35.49981895 53.28030888 -40.00904272 57.95733838 -47.578125 60.55859375 C-49.3893415 60.94445069 -51.21293121 61.27512696 -53.04296875 61.55859375 C-54.08437012 61.72246582 -55.12577148 61.88633789 -56.19873047 62.05517578 C-57.29330566 62.22130371 -58.38788086 62.38743164 -59.515625 62.55859375 C-60.63340332 62.73374512 -61.75118164 62.90889648 -62.90283203 63.08935547 C-69.95646494 64.18704192 -77.01491552 65.20475438 -84.1015625 66.06640625 C-86.81736914 66.44229361 -86.81736914 66.44229361 -89.578125 68.55859375 C-90.26731067 72.58602251 -90.5806393 75.04532879 -88.2890625 78.50439453 C-86.47115349 80.4919543 -84.57244923 82.3107417 -82.578125 84.12109375 C-81.88912109 84.77730713 -81.20011719 85.43352051 -80.49023438 86.10961914 C-76.5253096 89.86066636 -72.45356699 93.48371058 -68.2890625 97.01171875 C-63.32324006 101.50136643 -57.96422609 106.56677449 -57.29492188 113.48657227 C-57.30005829 122.39761174 -58.38986434 130.75820412 -60.078125 139.49609375 C-60.55231711 142.00418553 -61.02124618 144.51327929 -61.484375 147.0234375 C-61.69384766 148.11261475 -61.90332031 149.20179199 -62.11914062 150.32397461 C-63.14466241 156.61108342 -63.14466241 156.61108342 -61.453125 162.49609375 C-58.64999434 164.08453446 -56.78728352 163.85623326 -53.578125 163.55859375 C-50.84376238 162.48988666 -48.34312074 161.06822371 -45.79296875 159.62109375 C-44.27713687 158.79996079 -42.76084551 157.97967558 -41.24414062 157.16015625 C-38.88413938 155.86715215 -36.5293942 154.56632352 -34.18286133 153.24902344 C-16.44272849 143.34285239 -16.44272849 143.34285239 -5.578125 145.55859375 C-1.88878046 146.69895461 1.39601984 148.24195522 4.796875 150.05859375 C5.69027588 150.5076709 6.58367676 150.95674805 7.50415039 151.41943359 C11.67823682 153.53432398 15.79367071 155.75088995 19.89453125 158.00390625 C20.57016113 158.37322266 21.24579102 158.74253906 21.94189453 159.12304688 C23.73663077 160.11570466 25.51547901 161.1369369 27.29296875 162.16015625 C30.65649012 163.66345294 32.78255171 163.93145371 36.421875 163.55859375 C38.44138562 162.6226206 38.44138562 162.6226206 39.421875 160.55859375 C39.62378418 155.88091266 39.21052614 151.61158403 38.328125 147.0234375 C38.10253906 145.80076172 37.87695312 144.57808594 37.64453125 143.31835938 C37.16775081 140.79657742 36.68608358 138.27571383 36.19921875 135.75585938 C32.12180042 113.49315527 32.12180042 113.49315527 36.921875 105.68359375 C41.45960475 99.93154196 46.76269214 94.95905799 52.296875 90.18359375 C53.6747993 88.97859621 55.04952103 87.76993146 56.421875 86.55859375 C57.32164062 85.77355469 58.22140625 84.98851562 59.1484375 84.1796875 C64.16160117 79.86454945 64.16160117 79.86454945 67.0546875 74.140625 C67.11182988 71.72322486 67.11182988 71.72322486 66.421875 68.55859375 C65.60783203 68.19507813 65.60783203 68.19507813 64.77734375 67.82421875 C57.16218771 64.25675826 57.16218771 64.25675826 55.421875 60.55859375 C54.89431983 56.94107256 54.96255187 55.2567649 56.984375 52.18359375 C60.37665142 49.92207613 62.4007921 50.08151612 66.421875 50.55859375 C73.33292104 52.94171308 77.66304053 55.79120517 81.234375 62.18359375 C84.07691884 68.33792675 84.6203329 73.46276511 82.7109375 79.98828125 C78.3124681 90.33956639 68.5630167 97.79503931 60.2421875 104.984375 C59.64148438 105.50386719 59.04078125 106.02335937 58.421875 106.55859375 C57.75929688 107.12964844 57.09671875 107.70070313 56.4140625 108.2890625 C55.77726563 108.87300781 55.14046875 109.45695312 54.484375 110.05859375 C53.91847656 110.56390625 53.35257813 111.06921875 52.76953125 111.58984375 C50.2583564 115.25834266 50.30669917 119.4801736 50.76733398 123.79321289 C50.98204346 124.88239014 51.19675293 125.97156738 51.41796875 127.09375 C51.64677734 128.31642578 51.87558594 129.53910156 52.11132812 130.79882812 C52.60472804 133.31993423 53.09948965 135.84077428 53.59570312 138.36132812 C57.90176503 161.41142422 57.90176503 161.41142422 52.75 169.8828125 C47.63715698 176.33401737 41.62954536 179.82392115 33.484375 181.24609375 C25.91234991 180.95240644 18.92118958 176.11866606 12.421875 172.55859375 C9.92163469 171.18908289 7.4202283 169.82239716 4.91162109 168.46826172 C3.29025991 167.59096509 1.67554536 166.70123493 0.06884766 165.79736328 C-4.5684015 163.27692419 -9.16929546 160.79834744 -14.578125 161.55859375 C-18.87957034 163.19736572 -22.81950647 165.37076819 -26.828125 167.62109375 C-28.95783502 168.77956239 -31.0880423 169.93711736 -33.21875 171.09375 C-34.26498535 171.66706055 -35.3112207 172.24037109 -36.38916016 172.83105469 C-39.61320701 174.57759852 -42.85268511 176.28342206 -46.1171875 177.953125 C-47.54345459 178.68366089 -47.54345459 178.68366089 -48.99853516 179.42895508 C-54.54389652 181.85734681 -58.99187095 180.94434322 -64.640625 179.05859375 C-69.91603038 176.76635289 -73.53001543 173.42517778 -76.578125 168.55859375 C-80.84212775 157.51799418 -78.21793185 145.94631951 -76.015625 134.68359375 C-75.52492938 132.16733737 -75.0441134 129.64912993 -74.57421875 127.12890625 C-74.35950928 126.03336426 -74.1447998 124.93782227 -73.92358398 123.80908203 C-73.45821189 119.43030887 -73.39987365 115.3826327 -75.84985352 111.58984375 C-76.64540649 110.831875 -76.64540649 110.831875 -77.45703125 110.05859375 C-78.04476318 109.48512207 -78.63249512 108.91165039 -79.23803711 108.32080078 C-79.86589111 107.73927246 -80.49374512 107.15774414 -81.140625 106.55859375 C-81.77814697 105.94483887 -82.41566895 105.33108398 -83.07250977 104.69873047 C-86.88826235 101.0503993 -90.82192013 97.55718718 -94.8359375 94.12890625 C-101.48154097 88.13892286 -106.51612002 81.98314995 -107.078125 72.74609375 C-106.84280542 66.3042203 -104.67351573 60.47440876 -99.9284668 56.00463867 C-94.99098224 51.96588312 -90.62706403 50.36927379 -84.390625 49.37109375 C-83.53855469 49.21656738 -82.68648437 49.06204102 -81.80859375 48.90283203 C-74.36886328 47.58922073 -66.87820302 46.53300583 -59.38208008 45.59692383 C-58.5495874 45.48888428 -57.71709473 45.38084473 -56.859375 45.26953125 C-55.76206055 45.13490479 -55.76206055 45.13490479 -54.64257812 44.99755859 C-52.14342534 44.46616353 -50.67772073 44.06441945 -48.578125 42.55859375 C-47.12264704 40.10397887 -45.88214957 37.74557374 -44.6796875 35.171875 C-44.32224457 34.43664108 -43.96480164 33.70140717 -43.5965271 32.94389343 C-42.45374553 30.59170774 -41.32686083 28.23243152 -40.203125 25.87109375 C-39.08600451 23.52789488 -37.96517426 21.18691989 -36.83114624 18.85185242 C-36.12650094 17.40078627 -35.43119985 15.94512929 -34.7472229 14.48420715 C-31.36221335 7.5097989 -27.0477034 1.41334206 -19.7734375 -1.78125 C-12.81994586 -3.8722466 -6.63772029 -2.50585078 0 0 Z " fill="#040300" transform="translate(267.578125,160.44140625)"/>
<path d="M0 0 C4.51640277 1.68316422 7.95786269 4.05677582 11.6875 7.0625 C12.30471924 7.55419678 12.92193848 8.04589355 13.55786133 8.55249023 C18.89138881 12.83718532 23.97356697 17.36021567 29 22 C29.928125 22.825 30.85625 23.65 31.8125 24.5 C37.29572902 29.38722587 42.32256297 34.34380412 47 40 C47.81210937 40.92425781 48.62421875 41.84851563 49.4609375 42.80078125 C50.29882812 43.77402344 51.13671875 44.74726562 52 45.75 C53.175625 47.10351562 53.175625 47.10351562 54.375 48.484375 C56 51 56 51 55.83517456 52.89935303 C54.76483865 55.59148231 53.30752834 57.07367463 51.26220703 59.12597656 C50.07559982 60.32676849 50.07559982 60.32676849 48.86502075 61.55181885 C48.00464203 62.40612488 47.14426331 63.26043091 46.2578125 64.140625 C45.37850067 65.02280701 44.49918884 65.90498901 43.5932312 66.81390381 C41.73223692 68.67694013 39.8684997 70.53664325 37.99951172 72.39160156 C35.60278915 74.7712076 33.21981957 77.16406181 30.84063911 79.56119156 C28.5703035 81.8449609 26.28858253 84.11728351 24.0078125 86.390625 C23.15148224 87.25302795 22.29515198 88.11543091 21.41287231 89.00396729 C20.61549652 89.7918866 19.81812073 90.57980591 18.99658203 91.39160156 C18.29566437 92.09013245 17.5947467 92.78866333 16.87258911 93.50836182 C15 95 15 95 12 95 C10.01171875 92.68359375 10.01171875 92.68359375 7.6875 89.4375 C-6.22405531 70.63739326 -23.62362921 56.81009688 -43 44 C-38.37508621 38.44560076 -33.44639036 33.31474331 -28.3203125 28.22265625 C-27.50754852 27.41130722 -26.69478455 26.59995819 -25.85739136 25.76402283 C-23.28228262 23.1944741 -20.7037038 20.62844032 -18.125 18.0625 C-16.36956054 16.31208071 -14.61434983 14.561432 -12.859375 12.81054688 C-8.57555918 8.53770698 -4.28889528 4.26774101 0 0 Z " fill="#FE9315" transform="translate(390,57)"/>
<path d="M0 0 C2.39518842 1.93457526 4.70748665 3.94495815 7 6 C7.60585937 6.51820313 8.21171875 7.03640625 8.8359375 7.5703125 C11.28093909 9.94644081 12.94495474 11.75597712 13.10009766 15.26220703 C12.99745605 16.10638184 12.89481445 16.95055664 12.7890625 17.8203125 C12.61648926 19.27812134 12.61648926 19.27812134 12.44042969 20.76538086 C12.22241699 22.36651733 12.22241699 22.36651733 12 24 C11.77812012 25.72391968 11.77812012 25.72391968 11.55175781 27.48266602 C11.04244909 31.22668549 10.46537863 34.95546367 9.875 38.6875 C9.6996875 39.95400391 9.524375 41.22050781 9.34375 42.52539062 C9.14523438 43.75837891 8.94671875 44.99136719 8.7421875 46.26171875 C8.5757373 47.36475342 8.40928711 48.46778809 8.23779297 49.60424805 C6.48384285 54.41602166 3.54245224 57.36909215 0 61 C-1.17103271 62.20561836 -1.17103271 62.20561836 -2.36572266 63.43559265 C-5.06801545 66.18397068 -7.79438323 68.90722122 -10.52734375 71.625 C-11.52647028 72.62225677 -12.5253728 73.61973802 -13.52406311 74.61743164 C-16.1274695 77.21705679 -18.7338667 79.81366231 -21.34094238 82.40960693 C-24.01104274 85.06939763 -26.67824277 87.7320934 -29.34570312 90.39453125 C-34.56100038 95.59916888 -39.77946716 100.8006134 -45 106 C-52.1744982 98.82697108 -58.39557213 91.70327722 -63.9375 83.1875 C-64.66477295 82.0752002 -64.66477295 82.0752002 -65.40673828 80.94042969 C-65.85903809 80.23176758 -66.31133789 79.52310547 -66.77734375 78.79296875 C-67.18202881 78.1589917 -67.58671387 77.52501465 -68.00366211 76.87182617 C-69.08538437 74.83958785 -69.6896513 73.28507852 -70 71 C-68.01256687 68.53850294 -66.05483762 66.43484083 -63.79541016 64.24365234 C-63.12416611 63.57328445 -62.45292206 62.90291656 -61.76133728 62.2122345 C-59.53206218 59.99156449 -57.28570822 57.78902061 -55.0390625 55.5859375 C-53.49187606 54.05061246 -51.94585934 52.51410784 -50.40097046 50.97647095 C-46.32510845 46.92540627 -42.23490936 42.88913284 -38.14117432 38.85614014 C-32.3719509 33.16724502 -26.62231576 27.45854265 -20.87045288 21.75210571 C-17.80501782 18.71098834 -14.73421859 15.67544635 -11.65908813 12.64413452 C-10.26050251 11.26195861 -8.86193195 9.87976747 -7.46337891 8.49755859 C-6.82020218 7.86583237 -6.17702545 7.23410614 -5.51435852 6.58323669 C-2.37085206 3.58803966 -2.37085206 3.58803966 0 0 Z " fill="#FEF70B" transform="translate(182,263)"/>
<path d="M0 0 C1.26334749 0.6176213 2.52507535 1.23855612 3.78613281 1.86083984 C4.48893372 2.20625824 5.19173462 2.55167664 5.91583252 2.90756226 C9.05608635 4.55355849 11.89117037 6.53729657 14.75 8.625 C15.34055176 9.05087402 15.93110352 9.47674805 16.53955078 9.91552734 C22.59162357 14.33452679 28.32220759 19.11252302 34 24 C32.73383017 26.76124995 31.42729178 28.82885227 29.30097961 30.99336243 C28.75301224 31.55564041 28.20504486 32.1179184 27.64047241 32.69723511 C26.7420311 33.60374313 26.7420311 33.60374313 25.82543945 34.52856445 C25.19265579 35.17449051 24.55987213 35.82041656 23.90791321 36.48591614 C21.81559636 38.61760079 19.71536387 40.74122827 17.61328125 42.86328125 C16.89570333 43.58901022 16.17812542 44.31473919 15.43880272 45.06245995 C11.64366138 48.89927076 7.84203679 52.72952684 4.03540039 56.55493164 C0.10180967 60.51070178 -3.80787478 64.48925779 -7.71271038 68.47338581 C-10.71832369 71.53120977 -13.74149811 74.57120234 -16.76972389 77.60661888 C-18.21935254 79.0660032 -19.66220446 80.53215125 -21.09808922 82.0050602 C-23.10655862 84.06208119 -25.13865748 86.09252774 -27.1784668 88.1184082 C-27.76730652 88.73286804 -28.35614624 89.34732788 -28.96282959 89.98040771 C-32.15704214 93.09569712 -33.18063291 94.00938033 -37.82926941 93.9561615 C-41 93 -41 93 -42.55322266 91.58300781 C-42.8785498 90.96264648 -43.20387695 90.34228516 -43.5390625 89.703125 C-43.93254883 88.98060547 -44.32603516 88.25808594 -44.73144531 87.51367188 C-45.15006836 86.68416016 -45.56869141 85.85464844 -46 85 C-46.75555176 83.59331055 -46.75555176 83.59331055 -47.52636719 82.15820312 C-49.18430674 79.04195551 -50.78417608 75.90098135 -52.375 72.75 C-52.93316406 71.67492187 -53.49132812 70.59984375 -54.06640625 69.4921875 C-54.58847656 68.45835937 -55.11054688 67.42453125 -55.6484375 66.359375 C-56.12458496 65.42577148 -56.60073242 64.49216797 -57.09130859 63.53027344 C-58.15678266 60.56343485 -58.16895637 59.88299993 -57 57 C-55.26899311 54.99559955 -53.53989478 53.16089683 -51.65405273 51.31347656 C-51.09795319 50.75693893 -50.54185364 50.20040131 -49.96890259 49.6269989 C-48.13082172 47.79100642 -46.28234668 45.96586561 -44.43359375 44.140625 C-43.15641614 42.86904314 -41.87989969 41.59679689 -40.60401917 40.32391357 C-37.24536118 36.97670588 -33.87779136 33.63860517 -30.50830078 30.30230713 C-27.07108069 26.89578373 -23.64234523 23.48074415 -20.21289062 20.06640625 C-13.48354791 13.36923096 -6.74476188 6.68164379 0 0 Z " fill="#FEF70B" transform="translate(335,112)"/>
<path d="M0 0 C4.16168319 1.38722773 5.39570708 4.32279206 7.625 7.875 C12.00828886 14.66626197 16.76870072 20.83235921 22 27 C23.33841013 28.66259252 24.67320711 30.32812196 26 32 C24.58372032 35.21299085 22.88182508 37.37087891 20.40820312 39.85058594 C19.67404175 40.59105164 18.93988037 41.33151733 18.18347168 42.09442139 C17.39073853 42.88310608 16.59800537 43.67179077 15.78125 44.484375 C14.56072937 45.70776581 14.56072937 45.70776581 13.31555176 46.95587158 C11.59645354 48.67632978 9.87483106 50.3942689 8.15087891 52.10986328 C5.50320366 54.74680932 2.86638469 57.3942738 0.23046875 60.04296875 C-1.439463 61.71157942 -3.11001478 63.37956986 -4.78125 65.046875 C-5.97034973 66.24204742 -5.97034973 66.24204742 -7.18347168 67.46136475 C-8.28471375 68.55315033 -8.28471375 68.55315033 -9.40820312 69.66699219 C-10.05503052 70.31222839 -10.70185791 70.9574646 -11.36828613 71.62225342 C-13 73 -13 73 -15 73 C-15 73.66 -15 74.32 -15 75 C-26.97479397 69.51694099 -36.21880944 53.81556975 -43 43 C-37.44849503 36.21482725 -31.23163553 30.1507052 -25 24 C-24.42636719 23.38640625 -23.85273437 22.7728125 -23.26171875 22.140625 C-22 21 -22 21 -20 21 C-19.67 20.01 -19.34 19.02 -19 18 C-17.5390625 16.5625 -17.5390625 16.5625 -15.625 15 C-10.09342288 10.32330298 -5.0753467 5.15931384 0 0 Z " fill="#FE9315" transform="translate(99,347)"/>
<path d="M0 0 C3.01499971 2.98046857 5.81399576 5.88431977 8.3125 9.3125 C8.82425781 10.00988281 9.33601563 10.70726562 9.86328125 11.42578125 C10.23839844 11.94527344 10.61351562 12.46476563 11 13 C9.450168 16.70044944 7.19605329 19.04581087 4.36669922 21.86035156 C3.89823578 22.32910706 3.42977234 22.79786255 2.94711304 23.28082275 C1.40433305 24.82221432 -0.14539964 26.35640873 -1.6953125 27.890625 C-2.76906192 28.96064255 -3.84236933 30.03110381 -4.91525269 31.10198975 C-7.73520452 33.91431879 -10.56111154 36.72058889 -13.38830566 39.52563477 C-16.2742137 42.39105523 -19.15444257 45.26217168 -22.03515625 48.1328125 C-27.68456489 53.76079512 -33.34027825 59.38238884 -39 65 C-39.53399414 64.78923828 -40.06798828 64.57847656 -40.61816406 64.36132812 C-41.32682617 64.08740234 -42.03548828 63.81347656 -42.765625 63.53125 C-43.81411621 63.12229492 -43.81411621 63.12229492 -44.88378906 62.70507812 C-48.12214538 61.62612415 -50.6346735 61.48225746 -54 62 C-55.35827971 63.64639965 -56.69254251 65.31295807 -58 67 C-61.25 67.3125 -61.25 67.3125 -64 67 C-64 63.17289142 -62.5371616 62.18380239 -59.93847656 59.56521606 C-59.3400293 58.97755463 -58.74158203 58.38989319 -58.125 57.78442383 C-57.18865723 56.84742393 -57.18865723 56.84742393 -56.23339844 55.89149475 C-54.16262871 53.82281966 -52.08142546 51.76498011 -50 49.70703125 C-48.56445239 48.27707717 -47.12956449 46.84646051 -45.6953125 45.41520691 C-41.91413006 41.64549226 -38.12402569 37.884872 -34.33203125 34.1260376 C-30.46595472 30.29062012 -26.60833109 26.44672194 -22.75 22.60351562 C-15.17494365 15.06065757 -7.59044055 7.52737438 0 0 Z " fill="#FDF60B" transform="translate(381,150)"/>
<path d="M0 0 C2.12744032 0.67705284 4.18476554 1.39925878 6.24623108 2.25463867 C9.97400223 3.70747724 13.39878255 4.34084195 17.37123108 4.75463867 C12.3062287 10.87882027 6.79293898 16.46179728 1.16029358 22.06323242 C0.18215841 23.03949853 -0.79575327 24.01598861 -1.77345276 24.99269104 C-4.32591291 27.54136444 -6.8813634 30.08701825 -9.43748474 32.63201904 C-12.05386806 35.23810485 -14.66736195 37.84708488 -17.28111267 40.45581055 C-22.39420138 45.55822985 -27.51045804 50.65745725 -32.62876892 55.75463867 C-36.69711397 54.22267577 -39.57903912 52.40908198 -42.94126892 49.62963867 C-43.82427673 48.90518555 -44.70728455 48.18073242 -45.61705017 47.43432617 C-46.28091736 46.8800293 -46.94478455 46.32573242 -47.62876892 45.75463867 C-40.4935827 37.21439378 -32.61724362 29.40832205 -24.78819275 21.5090332 C-22.96552086 19.66461808 -21.14914921 17.81395676 -19.338974 15.95727539 C-16.7193411 13.27109183 -14.08087194 10.60480255 -11.43736267 7.94213867 C-10.62891403 7.10585938 -9.82046539 6.26958008 -8.98751831 5.40795898 C-8.22645279 4.64966797 -7.46538727 3.89137695 -6.68125916 3.11010742 C-6.01762863 2.43616943 -5.35399811 1.76223145 -4.67025757 1.06787109 C-2.62876892 -0.24536133 -2.62876892 -0.24536133 0 0 Z " fill="#FEF60B" transform="translate(197.62876892089844,336.245361328125)"/>
<path d="M0 0 C1.10816566 0.9264712 2.21297428 1.85695849 3.31640625 2.7890625 C4.23981812 3.56564209 4.23981812 3.56564209 5.18188477 4.35791016 C7.76746936 6.69316489 9.84955686 9.26307237 12 12 C10.54131246 15.35999018 8.69131052 17.55203106 6.10107422 20.12597656 C5.3003952 20.92650452 4.49971619 21.72703247 3.67477417 22.55181885 C2.81014557 23.40612488 1.94551697 24.26043091 1.0546875 25.140625 C0.1696756 26.02280701 -0.7153363 26.90498901 -1.62716675 27.81390381 C-3.97450131 30.15194543 -6.32606785 32.48555874 -8.67980957 34.81713867 C-11.08313927 37.19996526 -13.48077767 39.58850348 -15.87890625 41.9765625 C-20.58071467 46.65631862 -25.28818664 51.33031867 -30 56 C-33.26609702 53.4322693 -36.11954138 50.91818661 -38.8125 47.75 C-39.71935547 46.69039062 -39.71935547 46.69039062 -40.64453125 45.609375 C-41.09183594 45.07828125 -41.53914063 44.5471875 -42 44 C-40.54131246 40.64000982 -38.69131052 38.44796894 -36.10107422 35.87402344 C-34.90005569 34.67323151 -34.90005569 34.67323151 -33.67477417 33.44818115 C-32.81014557 32.59387512 -31.94551697 31.73956909 -31.0546875 30.859375 C-30.1696756 29.97719299 -29.2846637 29.09501099 -28.37283325 28.18609619 C-26.02549869 25.84805457 -23.67393215 23.51444126 -21.32019043 21.18286133 C-18.91686073 18.80003474 -16.51922233 16.41149652 -14.12109375 14.0234375 C-9.41928533 9.34368138 -4.71181336 4.66968133 0 0 Z " fill="#FE7B05" transform="translate(423,83)"/>
<path d="M0 0 C3.80962112 1.44837744 6.63023424 3.06018879 9.8125 5.625 C10.60269531 6.25664062 11.39289063 6.88828125 12.20703125 7.5390625 C12.79871094 8.02117187 13.39039063 8.50328125 14 9 C12.54131246 12.35999018 10.69131052 14.55203106 8.10107422 17.12597656 C7.3003952 17.92650452 6.49971619 18.72703247 5.67477417 19.55181885 C4.81014557 20.40612488 3.94551697 21.26043091 3.0546875 22.140625 C2.1696756 23.02280701 1.2846637 23.90498901 0.37283325 24.81390381 C-1.97450131 27.15194543 -4.32606785 29.48555874 -6.67980957 31.81713867 C-9.08313927 34.19996526 -11.48077767 36.58850348 -13.87890625 38.9765625 C-18.58071467 43.65631862 -23.28818664 48.33031867 -28 53 C-32.03224571 51.49047757 -34.63914056 49.81154157 -37.8125 46.875 C-38.60269531 46.15054688 -39.39289063 45.42609375 -40.20703125 44.6796875 C-40.79871094 44.12539063 -41.39039062 43.57109375 -42 43 C-37.43852453 37.52686034 -32.59258679 32.46045191 -27.5390625 27.44140625 C-26.74849457 26.65225327 -25.95792664 25.86310028 -25.1434021 25.05003357 C-22.63962374 22.55181339 -20.13237525 20.05710956 -17.625 17.5625 C-15.91773752 15.86025792 -14.21070391 14.15778627 -12.50390625 12.45507812 C-8.33858102 8.30072637 -4.17040781 4.14924919 0 0 Z " fill="#FE9315" transform="translate(138,393)"/>
<path d="M0 0 C4.49699606 3.65461928 8.62848394 7.25880554 12 12 C11.67 12.99 11.34 13.98 11 15 C7.44101807 13.53546319 5.59825849 11.6456231 3.25 8.625 C2.63640625 7.85414062 2.0228125 7.08328125 1.390625 6.2890625 C0 4 0 4 0 0 Z " fill="#F06000" transform="translate(423,83)"/>
</svg>
