<?xml version="1.0" encoding="UTF-8"?>
<svg version="1.1" xmlns="http://www.w3.org/2000/svg" width="512" height="512">
<path d="M0 0 C0.85236242 -0.00445784 1.70472485 -0.00891569 2.58291644 -0.01350862 C3.51451738 -0.01332426 4.44611832 -0.01313989 5.40594959 -0.01294994 C6.89613117 -0.01846498 6.89613117 -0.01846498 8.41641742 -0.02409142 C11.7549591 -0.03512992 15.09346966 -0.03897239 18.43202686 -0.04278088 C20.82192553 -0.04904537 23.21182323 -0.05569216 25.60171986 -0.0626936 C32.77998302 -0.08192005 39.95824675 -0.0925214 47.13652846 -0.10142139 C50.51894724 -0.10580737 53.90136446 -0.11117336 57.28378201 -0.11641026 C68.53100955 -0.1334201 79.77823612 -0.1479138 91.02547455 -0.155159 C93.94289304 -0.15706881 96.86031153 -0.15898916 99.77772999 -0.16094494 C100.50281719 -0.16142868 101.2279044 -0.16191242 101.97496394 -0.16241082 C113.71835693 -0.17070943 125.461648 -0.19604456 137.20499649 -0.22852562 C149.268051 -0.26161833 161.33105376 -0.27960973 173.39415389 -0.28280324 C180.16456539 -0.28496623 186.93482824 -0.29368395 193.70519543 -0.31926441 C200.07539634 -0.34253243 206.44532986 -0.34678324 212.81556225 -0.33650303 C215.15161497 -0.33600727 217.48768079 -0.34233955 219.82369328 -0.35605907 C223.01736633 -0.37376394 226.21007833 -0.36667798 229.40375233 -0.35352612 C230.78442333 -0.36997998 230.78442333 -0.36997998 232.19298667 -0.38676625 C240.05863751 -0.30877433 246.94842897 1.90172669 252.77303028 7.38350391 C253.75290535 8.29399337 253.75290535 8.29399337 254.75257587 9.22287655 C255.40258816 9.85362024 256.05260044 10.48436394 256.72231007 11.13422108 C257.37222164 11.75636934 258.02213322 12.37851761 258.69173908 13.01951885 C260.78241831 15.04439223 262.84886875 17.09155369 264.91078663 19.14569569 C265.68581532 19.91415318 266.460844 20.68261066 267.25935841 21.47435474 C269.7967636 23.99221243 272.33028076 26.51392884 274.86293507 29.03656483 C276.16834877 30.33586524 276.16834877 30.33586524 277.50013447 31.66141415 C282.09831501 36.23882224 286.6932744 40.81943688 291.28578663 45.40253162 C295.07778808 49.18645074 298.87627054 52.96373141 302.68031788 56.73553944 C307.28906518 61.30585421 311.88791975 65.88590159 316.47974873 70.47321224 C318.22584515 72.21444557 319.97531177 73.95230626 321.72823811 75.68666363 C324.17882989 78.11288183 326.61645769 80.55145349 329.05141163 82.99335194 C329.77252125 83.7016515 330.49363087 84.40995106 331.23659229 85.13971424 C338.42556575 92.40352084 341.84039567 99.21925021 341.85653114 109.48343468 C341.86098899 110.79785532 341.86544683 112.11227595 341.87003976 113.46652752 C341.86995047 114.92888392 341.86976061 116.39124031 341.86948109 117.85359669 C341.87278047 119.40425996 341.87650619 120.95492238 341.88062257 122.5055837 C341.89064235 126.77370418 341.89435933 131.0418106 341.89701188 135.30994117 C341.90091501 139.91067565 341.91049337 144.51139898 341.91922474 149.11212635 C341.93898931 160.22666172 341.94905554 171.34119801 341.95795253 182.45574656 C341.96233561 187.68983927 341.96770238 192.92393097 341.9729414 198.15802288 C341.98995399 215.55764684 342.00444801 232.95727017 342.01169014 250.35690117 C342.01360003 254.87243685 342.01552037 259.38797253 342.01747608 263.90350819 C342.01795982 265.02582253 342.01844356 266.14813688 342.01894196 267.30446076 C342.02724169 285.48391241 342.05257752 303.66329825 342.08505676 321.84272117 C342.11813091 340.50731707 342.13613924 359.17187952 342.13933438 377.83650488 C342.14149919 388.31590762 342.15024358 398.7952144 342.17579556 409.27458858 C342.19750742 418.19968101 342.20555057 427.12465417 342.19582877 436.04977001 C342.19128545 440.6020278 342.1931722 445.15403953 342.21259022 449.70626354 C342.23023243 453.87828987 342.2292157 458.04989082 342.21369293 462.22192173 C342.21131845 463.72670374 342.21563211 465.23151529 342.22752158 466.7362522 C342.33118611 480.72914163 339.51692698 491.1190018 329.65199757 501.26312733 C322.34734304 508.1732796 314.49958283 512.24927351 304.35699081 512.26844215 C303.2620241 512.2729 302.16705738 512.27735784 301.03890985 512.28195077 C299.83630677 512.28176641 298.63370369 512.28158205 297.39465809 512.2813921 C296.11676617 512.28506879 294.83887426 512.28874547 293.52225834 512.29253358 C289.97243674 512.30254496 286.42263204 512.30626899 282.87279832 512.30892289 C279.04507599 512.31282854 275.21736701 512.32240675 271.38965321 512.33113575 C262.14387817 512.35089355 252.89810205 512.36096584 243.65231118 512.36986354 C239.29686496 512.37424786 234.94141995 512.37961433 230.58597469 512.38485241 C216.10470901 512.40186457 201.62344409 512.41635809 187.14216995 512.42360115 C183.38462225 512.42551101 179.62707455 512.42743134 175.86952686 512.42938709 C174.93562125 512.42987083 174.00171563 512.43035457 173.03950984 512.43085297 C157.91548555 512.43915084 142.79154041 512.4644837 127.66755068 512.49696777 C112.13534889 512.53005623 96.6031873 512.54805156 81.07095009 512.55124539 C72.3521166 512.55340891 63.63339852 512.56213435 54.91459942 512.58770657 C47.48818052 512.60943805 40.06190507 512.61745199 32.63545799 512.60773978 C28.84873201 512.60320204 25.06230184 512.60505025 21.27561665 512.62450123 C17.16315337 512.64544242 13.05134302 512.63512528 8.93884754 512.62196827 C7.75185951 512.63293752 6.56487148 512.64390676 5.34191412 512.65520841 C-7.1464821 512.55894577 -16.49870548 508.72662798 -25.40659618 500.06390858 C-33.11541924 491.91498697 -36.43534638 483.81386855 -36.41191101 472.67617416 C-36.41426324 471.91846294 -36.41661547 471.16075171 -36.41903898 470.38007954 C-36.42572633 467.82650903 -36.42527084 465.27298943 -36.42486095 462.7194109 C-36.42815975 460.87588694 -36.43188535 459.03236371 -36.43600243 457.1888414 C-36.44602886 452.1112094 -36.44974026 447.03358921 -36.45239174 441.95594871 C-36.4562929 436.48404142 -36.46587138 431.01214351 -36.47460461 425.5402422 C-36.49437451 412.3196439 -36.50443597 399.09904484 -36.5133324 385.87843546 C-36.5177145 379.65412206 -36.52308151 373.42980951 -36.52832127 367.20549679 C-36.54533419 346.51692954 -36.55985347 325.82836276 -36.56707001 305.13978958 C-36.56754476 303.80182779 -36.56802065 302.463866 -36.56849767 301.12590421 C-36.56873405 300.46239941 -36.56897042 299.79889462 -36.56921396 299.11528362 C-36.57041515 295.75367618 -36.5716306 292.39206874 -36.57285595 289.03046131 C-36.57321617 288.02978186 -36.57321617 288.02978186 -36.57358368 287.00888667 C-36.58147501 265.38366954 -36.60490325 243.75850728 -36.63741189 222.13331411 C-36.67172403 199.26663623 -36.69142132 176.39998229 -36.69471425 153.53327709 C-36.69688007 141.06973788 -36.70563937 128.60627932 -36.73117542 116.14276409 C-36.75287185 105.52868819 -36.76093801 94.91471253 -36.75120864 84.30061697 C-36.7466609 78.88561055 -36.74857795 73.47081098 -36.76797009 68.05583286 C-36.78558035 63.09554852 -36.7846212 58.13562226 -36.76907279 53.17533422 C-36.76669349 51.38387931 -36.77103695 49.59239973 -36.78290144 47.80098253 C-36.8746983 33.02138291 -34.78472584 21.88202215 -24.20737743 11.00531483 C-17.3769508 4.54377883 -9.59434117 0.02335298 0 0 Z " fill="#F3F3F3" transform="translate(103.27768993377686,-0.13422107696533203)"/>
<path d="M0 0 C0.85236242 -0.00445784 1.70472485 -0.00891569 2.58291644 -0.01350862 C3.51451738 -0.01332426 4.44611832 -0.01313989 5.40594959 -0.01294994 C6.89613117 -0.01846498 6.89613117 -0.01846498 8.41641742 -0.02409142 C11.7549591 -0.03512992 15.09346966 -0.03897239 18.43202686 -0.04278088 C20.82192553 -0.04904537 23.21182323 -0.05569216 25.60171986 -0.0626936 C32.77998302 -0.08192005 39.95824675 -0.0925214 47.13652846 -0.10142139 C50.51894724 -0.10580737 53.90136446 -0.11117336 57.28378201 -0.11641026 C68.53100955 -0.1334201 79.77823612 -0.1479138 91.02547455 -0.155159 C93.94289304 -0.15706881 96.86031153 -0.15898916 99.77772999 -0.16094494 C100.50281719 -0.16142868 101.2279044 -0.16191242 101.97496394 -0.16241082 C113.71835693 -0.17070943 125.461648 -0.19604456 137.20499649 -0.22852562 C149.268051 -0.26161833 161.33105376 -0.27960973 173.39415389 -0.28280324 C180.16456539 -0.28496623 186.93482824 -0.29368395 193.70519543 -0.31926441 C200.07539634 -0.34253243 206.44532986 -0.34678324 212.81556225 -0.33650303 C215.15161497 -0.33600727 217.48768079 -0.34233955 219.82369328 -0.35605907 C223.01736633 -0.37376394 226.21007833 -0.36667798 229.40375233 -0.35352612 C230.78442333 -0.36997998 230.78442333 -0.36997998 232.19298667 -0.38676625 C240.05863751 -0.30877433 246.94842897 1.90172669 252.77303028 7.38350391 C253.75290535 8.29399337 253.75290535 8.29399337 254.75257587 9.22287655 C255.40258816 9.85362024 256.05260044 10.48436394 256.72231007 11.13422108 C257.37222164 11.75636934 258.02213322 12.37851761 258.69173908 13.01951885 C260.78241831 15.04439223 262.84886875 17.09155369 264.91078663 19.14569569 C265.68581532 19.91415318 266.460844 20.68261066 267.25935841 21.47435474 C269.7967636 23.99221243 272.33028076 26.51392884 274.86293507 29.03656483 C276.16834877 30.33586524 276.16834877 30.33586524 277.50013447 31.66141415 C282.09831501 36.23882224 286.6932744 40.81943688 291.28578663 45.40253162 C295.07778808 49.18645074 298.87627054 52.96373141 302.68031788 56.73553944 C307.28906518 61.30585421 311.88791975 65.88590159 316.47974873 70.47321224 C318.22584515 72.21444557 319.97531177 73.95230626 321.72823811 75.68666363 C324.17882989 78.11288183 326.61645769 80.55145349 329.05141163 82.99335194 C329.77252125 83.7016515 330.49363087 84.40995106 331.23659229 85.13971424 C338.42556575 92.40352084 341.84039567 99.21925021 341.85653114 109.48343468 C341.86098899 110.79785532 341.86544683 112.11227595 341.87003976 113.46652752 C341.86995047 114.92888392 341.86976061 116.39124031 341.86948109 117.85359669 C341.87278047 119.40425996 341.87650619 120.95492238 341.88062257 122.5055837 C341.89064235 126.77370418 341.89435933 131.0418106 341.89701188 135.30994117 C341.90091501 139.91067565 341.91049337 144.51139898 341.91922474 149.11212635 C341.93898931 160.22666172 341.94905554 171.34119801 341.95795253 182.45574656 C341.96233561 187.68983927 341.96770238 192.92393097 341.9729414 198.15802288 C341.98995399 215.55764684 342.00444801 232.95727017 342.01169014 250.35690117 C342.01360003 254.87243685 342.01552037 259.38797253 342.01747608 263.90350819 C342.01795982 265.02582253 342.01844356 266.14813688 342.01894196 267.30446076 C342.02724169 285.48391241 342.05257752 303.66329825 342.08505676 321.84272117 C342.11813091 340.50731707 342.13613924 359.17187952 342.13933438 377.83650488 C342.14149919 388.31590762 342.15024358 398.7952144 342.17579556 409.27458858 C342.19750742 418.19968101 342.20555057 427.12465417 342.19582877 436.04977001 C342.19128545 440.6020278 342.1931722 445.15403953 342.21259022 449.70626354 C342.23023243 453.87828987 342.2292157 458.04989082 342.21369293 462.22192173 C342.21131845 463.72670374 342.21563211 465.23151529 342.22752158 466.7362522 C342.33118611 480.72914163 339.51692698 491.1190018 329.65199757 501.26312733 C322.34734304 508.1732796 314.49958283 512.24927351 304.35699081 512.26844215 C303.2620241 512.2729 302.16705738 512.27735784 301.03890985 512.28195077 C299.83630677 512.28176641 298.63370369 512.28158205 297.39465809 512.2813921 C296.11676617 512.28506879 294.83887426 512.28874547 293.52225834 512.29253358 C289.97243674 512.30254496 286.42263204 512.30626899 282.87279832 512.30892289 C279.04507599 512.31282854 275.21736701 512.32240675 271.38965321 512.33113575 C262.14387817 512.35089355 252.89810205 512.36096584 243.65231118 512.36986354 C239.29686496 512.37424786 234.94141995 512.37961433 230.58597469 512.38485241 C216.10470901 512.40186457 201.62344409 512.41635809 187.14216995 512.42360115 C183.38462225 512.42551101 179.62707455 512.42743134 175.86952686 512.42938709 C174.93562125 512.42987083 174.00171563 512.43035457 173.03950984 512.43085297 C157.91548555 512.43915084 142.79154041 512.4644837 127.66755068 512.49696777 C112.13534889 512.53005623 96.6031873 512.54805156 81.07095009 512.55124539 C72.3521166 512.55340891 63.63339852 512.56213435 54.91459942 512.58770657 C47.48818052 512.60943805 40.06190507 512.61745199 32.63545799 512.60773978 C28.84873201 512.60320204 25.06230184 512.60505025 21.27561665 512.62450123 C17.16315337 512.64544242 13.05134302 512.63512528 8.93884754 512.62196827 C7.75185951 512.63293752 6.56487148 512.64390676 5.34191412 512.65520841 C-7.1464821 512.55894577 -16.49870548 508.72662798 -25.40659618 500.06390858 C-33.11541924 491.91498697 -36.43534638 483.81386855 -36.41191101 472.67617416 C-36.41426324 471.91846294 -36.41661547 471.16075171 -36.41903898 470.38007954 C-36.42572633 467.82650903 -36.42527084 465.27298943 -36.42486095 462.7194109 C-36.42815975 460.87588694 -36.43188535 459.03236371 -36.43600243 457.1888414 C-36.44602886 452.1112094 -36.44974026 447.03358921 -36.45239174 441.95594871 C-36.4562929 436.48404142 -36.46587138 431.01214351 -36.47460461 425.5402422 C-36.49437451 412.3196439 -36.50443597 399.09904484 -36.5133324 385.87843546 C-36.5177145 379.65412206 -36.52308151 373.42980951 -36.52832127 367.20549679 C-36.54533419 346.51692954 -36.55985347 325.82836276 -36.56707001 305.13978958 C-36.56754476 303.80182779 -36.56802065 302.463866 -36.56849767 301.12590421 C-36.56873405 300.46239941 -36.56897042 299.79889462 -36.56921396 299.11528362 C-36.57041515 295.75367618 -36.5716306 292.39206874 -36.57285595 289.03046131 C-36.57321617 288.02978186 -36.57321617 288.02978186 -36.57358368 287.00888667 C-36.58147501 265.38366954 -36.60490325 243.75850728 -36.63741189 222.13331411 C-36.67172403 199.26663623 -36.69142132 176.39998229 -36.69471425 153.53327709 C-36.69688007 141.06973788 -36.70563937 128.60627932 -36.73117542 116.14276409 C-36.75287185 105.52868819 -36.76093801 94.91471253 -36.75120864 84.30061697 C-36.7466609 78.88561055 -36.74857795 73.47081098 -36.76797009 68.05583286 C-36.78558035 63.09554852 -36.7846212 58.13562226 -36.76907279 53.17533422 C-36.76669349 51.38387931 -36.77103695 49.59239973 -36.78290144 47.80098253 C-36.8746983 33.02138291 -34.78472584 21.88202215 -24.20737743 11.00531483 C-17.3769508 4.54377883 -9.59434117 0.02335298 0 0 Z M-16.80503368 25.87640858 C-20.4483874 31.46224001 -21.72293118 36.24624696 -21.66079998 42.87050056 C-21.6657595 43.62184268 -21.67071901 44.37318479 -21.67582881 45.14729485 C-21.68876722 47.6612834 -21.68040596 50.17473929 -21.67209911 52.68874073 C-21.67698885 54.51082078 -21.68317904 56.33289772 -21.690557 58.15496939 C-21.70696916 63.15939003 -21.70463597 68.16365326 -21.69918203 73.16809142 C-21.69651341 78.56632113 -21.71104051 83.96450873 -21.72327709 89.36272144 C-21.74434054 99.93768179 -21.74887141 110.51258733 -21.74708921 121.08756617 C-21.74578201 129.68285875 -21.74958356 138.27813422 -21.75701427 146.87342358 C-21.75911345 149.34851684 -21.76121105 151.82361011 -21.76330709 154.29870337 C-21.76435062 155.53059894 -21.76539415 156.76249451 -21.7664693 158.03172024 C-21.78537545 181.33496292 -21.78432035 204.63817412 -21.77749997 227.94142129 C-21.77192456 249.26088578 -21.79274923 270.58019219 -21.82586044 291.89963201 C-21.85959189 313.78825247 -21.87476643 335.67681535 -21.87014341 357.56546229 C-21.86789814 369.85511243 -21.87315048 382.1446515 -21.898036 394.43427944 C-21.91904205 404.8971904 -21.92264795 415.3599294 -21.90373641 425.8228474 C-21.8945743 431.16082747 -21.8934504 436.49848685 -21.91409206 441.83644199 C-21.93278714 446.72508848 -21.92831477 451.6131513 -21.90554625 456.50177547 C-21.90135681 458.26822052 -21.90557205 460.0347102 -21.91914219 461.8011081 C-21.99360259 472.20371898 -21.78452103 481.24699841 -14.28793001 489.26142627 C-6.46849704 496.77000784 0.68820806 497.57577696 11.15843678 497.52190113 C12.41171823 497.52728667 13.66499969 497.53267221 14.95625937 497.53822094 C18.42342661 497.55265266 21.89035568 497.54843805 25.35753584 497.54105413 C29.10133713 497.53631906 32.84508716 497.54883533 36.58887196 497.55907154 C43.91895063 497.57625858 51.24894358 497.57709971 58.57903717 497.57185864 C64.53799368 497.56781533 70.49692487 497.56926241 76.45588017 497.5746069 C77.30436913 497.57535532 78.1528581 497.57610374 79.02705885 497.57687484 C80.75083553 497.57840634 82.47461221 497.57994469 84.19838889 497.58148981 C100.36013604 497.59521464 116.52183478 497.5897774 132.68358083 497.5783046 C147.46281664 497.56837344 162.24192723 497.58131087 177.02114372 497.60523879 C192.20313842 497.62963327 207.38507482 497.63923673 222.56708872 497.63258606 C231.08794554 497.62909446 239.60870608 497.63132194 248.12954807 497.64883709 C255.38359313 497.66356348 262.6374741 497.6641889 269.89151596 497.64676618 C273.59091912 497.63825711 277.29002924 497.63610403 280.98941708 497.65141773 C285.00392064 497.66782979 289.01771801 497.65311022 293.03221607 497.63542652 C294.19574679 497.64503153 295.3592775 497.65463653 296.55806673 497.6645326 C305.81208284 497.58067186 313.30780845 495.34626199 320.16508847 488.92377508 C327.19742762 480.84223376 327.43276495 472.15566394 327.32358265 461.88504505 C327.32576597 460.35023385 327.33014927 458.81542448 327.33652848 457.28062499 C327.34766051 453.08439452 327.32777605 448.88880725 327.30263817 444.69265866 C327.28098211 440.15973236 327.28835723 435.62684034 327.29214954 431.09387684 C327.29476729 423.24730731 327.27912194 415.40094617 327.25096035 407.55442905 C327.21027046 396.20981399 327.19729751 384.86529936 327.19102039 373.52061923 C327.18008582 355.1132797 327.14683434 336.70605115 327.09950733 318.29877186 C327.05359007 300.42117333 327.01820875 282.54360498 326.99696827 264.66595936 C326.99565465 263.56339823 326.99434103 262.4608371 326.99298761 261.32486503 C326.98646227 255.7934652 326.98014377 250.26206515 326.97392809 244.73066497 C326.92212117 198.86510681 326.83407868 152.99966968 326.72231007 107.13422108 C325.990611 107.12835484 325.25891193 107.12248859 324.50504017 107.11644459 C317.57634332 107.05830492 310.64791668 106.98610799 303.71953392 106.89850616 C300.15838966 106.85396487 296.59735553 106.8146743 293.03603077 106.78778553 C288.93247337 106.75656453 284.82951308 106.7017833 280.72621632 106.64593983 C279.46024113 106.6395499 278.19426594 106.63315998 276.88992786 106.62657642 C265.00207037 106.43057698 255.85375243 103.70825959 246.97231007 95.63422108 C246.22981007 94.80922108 245.48731007 93.98422108 244.72231007 93.13422108 C244.04168507 92.39172108 243.36106007 91.64922108 242.65981007 90.88422108 C235.57152758 80.82343303 234.42515747 70.08261738 234.30824757 58.10297108 C234.27919834 56.25548267 234.27919834 56.25548267 234.24956226 54.37067127 C234.19005219 50.45859041 234.14349512 46.54647968 234.09731007 42.63422108 C234.06015606 39.97273155 234.02005087 37.31129662 233.98012257 34.64984608 C233.88437411 28.14474487 233.79924373 21.63957055 233.72231007 15.13422108 C203.95497147 15.02007217 174.18764026 14.93162843 144.42012984 14.87889443 C140.90301768 14.87264116 137.38590596 14.86616952 133.86879444 14.85956287 C133.16862307 14.85825132 132.46845171 14.85693977 131.74706303 14.85558847 C120.42116346 14.83385262 109.09539125 14.79444122 97.76956715 14.7484571 C86.14169649 14.7016416 74.51389995 14.67428902 62.88593948 14.6637786 C56.35738348 14.65726383 49.82911598 14.64196662 43.3006525 14.60557079 C37.15290314 14.57157584 31.00556052 14.56117547 24.8577261 14.56868267 C22.60432378 14.56730972 20.35090753 14.55739856 18.09758663 14.5381937 C15.01335089 14.51320148 11.93063729 14.51933903 8.84636402 14.53294849 C7.96111959 14.51838429 7.07587515 14.50382008 6.16380513 14.48881453 C-3.43074514 14.60272641 -10.64601694 18.64296876 -16.80503368 25.87640858 Z " fill="#000000" transform="translate(103.27768993377686,-0.13422107696533203)"/>
<path d="M0 0 C1.01295387 -0.00788544 1.01295387 -0.00788544 2.04637146 -0.01593018 C4.27342016 -0.02910817 6.49975096 -0.02039951 8.72680664 -0.01025391 C10.27853024 -0.01227553 11.83025291 -0.0151877 13.38197327 -0.01895142 C16.63267063 -0.02337196 19.8831205 -0.01695345 23.13378906 -0.00292969 C27.29454512 0.014148 31.45472001 0.00432866 35.61545467 -0.01364708 C38.81971082 -0.0245045 42.02382994 -0.0210294 45.22809029 -0.0132637 C46.76184725 -0.01126636 48.29561676 -0.0137046 49.82935905 -0.02070236 C51.97641659 -0.02834779 54.12254282 -0.01667018 56.26953125 0 C57.48990585 0.00238678 58.71028046 0.00477356 59.96763611 0.00723267 C64.63779436 0.55772662 67.08121018 1.97609055 69.99067688 5.65007019 C71.47940298 9.02229723 71.56054332 11.51406609 71.54003906 15.19799805 C71.54047714 15.86197098 71.54091522 16.52594391 71.54136658 17.21003723 C71.53928712 19.39081889 71.5159975 21.57081856 71.49243164 23.75146484 C71.48683265 25.2688912 71.48256398 26.78632299 71.47956848 28.30375671 C71.46814347 32.28723259 71.43869684 36.27037753 71.40545654 40.25372314 C71.37470486 44.3225863 71.36105228 48.39150321 71.34594727 52.46044922 C71.31382457 60.43651212 71.26265698 68.41230663 71.19946289 76.38818359 C73.10622803 76.3567627 73.10622803 76.3567627 75.05151367 76.32470703 C79.78137892 76.25214103 84.51119524 76.20632334 89.24145508 76.16845703 C91.28613569 76.14837939 93.33075916 76.12111135 95.37524414 76.08642578 C98.31939826 76.03773841 101.26279123 76.01517616 104.20727539 75.99755859 C105.11688019 75.97691345 106.02648499 75.95626831 106.96365356 75.93499756 C112.56492107 75.9330308 115.76122336 76.63308401 120.19946289 80.38818359 C122.88452277 83.41970281 123.4533969 85.75123123 123.32446289 89.70068359 C122.70656588 93.40573127 121.6594258 95.41647983 119.12710571 98.17312622 C118.49420246 98.86525333 117.86129921 99.55738045 117.20921707 100.27048111 C113.92612539 103.72991484 110.60193082 107.14151054 107.23217773 110.51660156 C106.08689354 111.66933311 106.08689354 111.66933311 104.91847229 112.84535217 C102.41852897 115.35977717 99.91481778 117.87040279 97.41040039 120.38037109 C96.12203215 121.6729804 96.12203215 121.6729804 94.80763626 122.99170303 C90.2723312 127.54193519 85.73420711 132.08933268 81.19360352 136.63427734 C76.50492962 141.32846096 71.82562204 146.03186762 67.14839745 150.73745537 C63.5452205 154.35923038 59.93537808 157.97430496 56.32365799 161.58755875 C54.59479574 163.31944878 52.86843626 165.05384096 51.14463425 166.79076767 C48.73941357 169.21300676 46.32494843 171.62564482 43.90795898 174.03613281 C43.19822433 174.75508224 42.48848969 175.47403168 41.75724792 176.21476746 C37.49829928 180.43785878 34.36035345 182.98466565 28.26196289 183.76318359 C20.98739208 182.87241982 15.85768707 176.33730995 10.9309082 171.39428711 C10.12369827 170.59218811 9.31648834 169.79008911 8.4848175 168.96368408 C5.82723016 166.31995864 3.17709882 163.66890763 0.52758789 161.01708984 C-1.31970584 159.17368383 -3.16722291 157.33050159 -5.01495361 155.48753357 C-8.88200084 151.62868304 -12.74449041 147.76531145 -16.60473633 143.8996582 C-21.06314162 139.4352039 -25.53066763 134.98002763 -30.00271869 130.52924591 C-34.31291864 126.23879083 -38.61473174 121.94002247 -42.91330719 117.63792229 C-44.74023059 115.81151271 -46.56952283 113.98746948 -48.40120697 112.16583443 C-50.95787808 109.62147687 -53.50485394 107.06779065 -56.04956055 104.51147461 C-57.18880226 103.3836985 -57.18880226 103.3836985 -58.35105896 102.23313904 C-59.04351212 101.53367157 -59.73596527 100.8342041 -60.44940186 100.11354065 C-61.0518359 99.51127435 -61.65426994 98.90900805 -62.27495956 98.28849125 C-64.72017069 95.24265891 -65.68479928 92.2947966 -66.17553711 88.45068359 C-65.59474418 83.70754134 -63.44132316 80.73042923 -59.77441406 77.73071289 C-55.47260442 75.78870064 -51.57085504 76.01625493 -46.90600586 76.09521484 C-45.48497307 76.10158211 -45.48497307 76.10158211 -44.03523254 76.108078 C-41.01920763 76.1248267 -38.00385895 76.16247213 -34.98803711 76.20068359 C-32.93921866 76.21573534 -30.8903897 76.22942289 -28.84155273 76.24169922 C-23.82762161 76.27471781 -18.81419389 76.32647413 -13.80053711 76.38818359 C-13.84694336 75.13521484 -13.89334961 73.88224609 -13.94116211 72.59130859 C-13.97868524 70.94029078 -14.01508482 69.28924717 -14.05053711 67.63818359 C-14.10081055 66.40068359 -14.10081055 66.40068359 -14.15209961 65.13818359 C-14.25073045 59.02307163 -14.25073045 59.02307163 -11.97241211 55.81005859 C-9.80053711 54.38818359 -9.80053711 54.38818359 -6.80053711 54.38818359 C-6.80053711 47.78818359 -6.80053711 41.18818359 -6.80053711 34.38818359 C-8.45053711 33.72818359 -10.10053711 33.06818359 -11.80053711 32.38818359 C-14.69946195 28.03979633 -14.1303143 24.12723265 -14.11303711 19.01318359 C-14.12915039 18.06701172 -14.14526367 17.12083984 -14.16186523 16.14599609 C-14.16805917 7.3258279 -14.16805917 7.3258279 -10.80053711 3.38818359 C-7.33677958 0.09094894 -4.70053613 0.00919919 0 0 Z " fill="#94D428" transform="translate(222.800537109375,157.61181640625)"/>
<path d="M0 0 C1.01295387 -0.00788544 1.01295387 -0.00788544 2.04637146 -0.01593018 C4.27342016 -0.02910817 6.49975096 -0.02039951 8.72680664 -0.01025391 C10.27853024 -0.01227553 11.83025291 -0.0151877 13.38197327 -0.01895142 C16.63267063 -0.02337196 19.8831205 -0.01695345 23.13378906 -0.00292969 C27.29454512 0.014148 31.45472001 0.00432866 35.61545467 -0.01364708 C38.81971082 -0.0245045 42.02382994 -0.0210294 45.22809029 -0.0132637 C46.76184725 -0.01126636 48.29561676 -0.0137046 49.82935905 -0.02070236 C51.97641659 -0.02834779 54.12254282 -0.01667018 56.26953125 0 C57.48990585 0.00238678 58.71028046 0.00477356 59.96763611 0.00723267 C64.63779436 0.55772662 67.08121018 1.97609055 69.99067688 5.65007019 C71.47940298 9.02229723 71.56054332 11.51406609 71.54003906 15.19799805 C71.54047714 15.86197098 71.54091522 16.52594391 71.54136658 17.21003723 C71.53928712 19.39081889 71.5159975 21.57081856 71.49243164 23.75146484 C71.48683265 25.2688912 71.48256398 26.78632299 71.47956848 28.30375671 C71.46814347 32.28723259 71.43869684 36.27037753 71.40545654 40.25372314 C71.37470486 44.3225863 71.36105228 48.39150321 71.34594727 52.46044922 C71.31382457 60.43651212 71.26265698 68.41230663 71.19946289 76.38818359 C73.10622803 76.3567627 73.10622803 76.3567627 75.05151367 76.32470703 C79.78137892 76.25214103 84.51119524 76.20632334 89.24145508 76.16845703 C91.28613569 76.14837939 93.33075916 76.12111135 95.37524414 76.08642578 C98.31939826 76.03773841 101.26279123 76.01517616 104.20727539 75.99755859 C105.11688019 75.97691345 106.02648499 75.95626831 106.96365356 75.93499756 C112.56492107 75.9330308 115.76122336 76.63308401 120.19946289 80.38818359 C122.88452277 83.41970281 123.4533969 85.75123123 123.32446289 89.70068359 C122.70656588 93.40573127 121.6594258 95.41647983 119.12710571 98.17312622 C118.49420246 98.86525333 117.86129921 99.55738045 117.20921707 100.27048111 C113.92612539 103.72991484 110.60193082 107.14151054 107.23217773 110.51660156 C106.08689354 111.66933311 106.08689354 111.66933311 104.91847229 112.84535217 C102.41852897 115.35977717 99.91481778 117.87040279 97.41040039 120.38037109 C96.12203215 121.6729804 96.12203215 121.6729804 94.80763626 122.99170303 C90.2723312 127.54193519 85.73420711 132.08933268 81.19360352 136.63427734 C76.50492962 141.32846096 71.82562204 146.03186762 67.14839745 150.73745537 C63.5452205 154.35923038 59.93537808 157.97430496 56.32365799 161.58755875 C54.59479574 163.31944878 52.86843626 165.05384096 51.14463425 166.79076767 C48.73941357 169.21300676 46.32494843 171.62564482 43.90795898 174.03613281 C43.19822433 174.75508224 42.48848969 175.47403168 41.75724792 176.21476746 C37.49829928 180.43785878 34.36035345 182.98466565 28.26196289 183.76318359 C20.98739208 182.87241982 15.85768707 176.33730995 10.9309082 171.39428711 C10.12369827 170.59218811 9.31648834 169.79008911 8.4848175 168.96368408 C5.82723016 166.31995864 3.17709882 163.66890763 0.52758789 161.01708984 C-1.31970584 159.17368383 -3.16722291 157.33050159 -5.01495361 155.48753357 C-8.88200084 151.62868304 -12.74449041 147.76531145 -16.60473633 143.8996582 C-21.06314162 139.4352039 -25.53066763 134.98002763 -30.00271869 130.52924591 C-34.31291864 126.23879083 -38.61473174 121.94002247 -42.91330719 117.63792229 C-44.74023059 115.81151271 -46.56952283 113.98746948 -48.40120697 112.16583443 C-50.95787808 109.62147687 -53.50485394 107.06779065 -56.04956055 104.51147461 C-57.18880226 103.3836985 -57.18880226 103.3836985 -58.35105896 102.23313904 C-59.04351212 101.53367157 -59.73596527 100.8342041 -60.44940186 100.11354065 C-61.0518359 99.51127435 -61.65426994 98.90900805 -62.27495956 98.28849125 C-64.72017069 95.24265891 -65.68479928 92.2947966 -66.17553711 88.45068359 C-65.59474418 83.70754134 -63.44132316 80.73042923 -59.77441406 77.73071289 C-55.47260442 75.78870064 -51.57085504 76.01625493 -46.90600586 76.09521484 C-45.48497307 76.10158211 -45.48497307 76.10158211 -44.03523254 76.108078 C-41.01920763 76.1248267 -38.00385895 76.16247213 -34.98803711 76.20068359 C-32.93921866 76.21573534 -30.8903897 76.22942289 -28.84155273 76.24169922 C-23.82762161 76.27471781 -18.81419389 76.32647413 -13.80053711 76.38818359 C-13.84694336 75.13521484 -13.89334961 73.88224609 -13.94116211 72.59130859 C-13.97868524 70.94029078 -14.01508482 69.28924717 -14.05053711 67.63818359 C-14.10081055 66.40068359 -14.10081055 66.40068359 -14.15209961 65.13818359 C-14.25069523 59.02525519 -14.25069523 59.02525519 -12.00366211 55.84521484 C-8.74447176 53.6897574 -6.61361921 53.77536683 -2.80053711 54.38818359 C-0.20188751 56.58775486 1.03695188 58.37426075 1.58032227 61.7644043 C1.73907244 64.62886569 1.7447227 67.45734326 1.69946289 70.32568359 C1.72266602 71.79038086 1.72266602 71.79038086 1.74633789 73.28466797 C1.71465813 79.125624 1.30622568 82.90496754 -2.80053711 87.38818359 C-8.80053711 91.38818359 -8.80053711 91.38818359 -45.80053711 92.38818359 C-21.38053711 116.80818359 3.03946289 141.22818359 28.19946289 166.38818359 C33.55615879 161.85281627 33.55615879 161.85281627 38.62278748 157.08511353 C39.2045726 156.50470306 39.78635773 155.9242926 40.38577271 155.32629395 C40.99645599 154.71201538 41.60713928 154.09773682 42.23632812 153.46484375 C42.90059311 152.80072479 43.56485809 152.13660583 44.24925232 151.45236206 C46.42123558 149.279688 48.58966568 147.10350487 50.75805664 144.92724609 C52.27240971 143.41102588 53.78698526 141.89502783 55.30177307 140.37924194 C59.27084661 136.40636657 63.2369067 132.43049629 67.20233154 128.45397949 C71.25618851 124.38985805 75.31290926 120.32859738 79.36938477 116.26708984 C87.31553815 108.31024033 95.25850866 100.35022165 103.19946289 92.38818359 C101.55747925 92.36630981 101.55747925 92.36630981 99.88232422 92.34399414 C95.80989384 92.28589621 91.73800974 92.20866432 87.66601562 92.12573242 C85.90568934 92.09253705 84.14525801 92.06448835 82.38476562 92.04174805 C79.84988764 92.00810239 77.31596766 91.95578299 74.78149414 91.89990234 C73.99797073 91.89351242 73.21444733 91.8871225 72.40718079 91.88053894 C67.83558488 91.75831839 64.84112454 91.20593989 61.19946289 88.38818359 C57.05978253 83.67354762 56.07408781 81.3354748 56.0859375 75.10253906 C56.08579147 74.45851135 56.08564545 73.81448364 56.085495 73.15093994 C56.08619249 71.01904957 56.09397723 68.88724623 56.10180664 66.75537109 C56.1036714 65.27849373 56.10509503 63.80161575 56.10609436 62.32473755 C56.10991497 58.43506161 56.11974137 54.54542293 56.13079834 50.65576172 C56.14281939 45.99016591 56.14741688 41.32455766 56.15325165 36.65895081 C56.16295336 29.56866914 56.18211309 22.47846926 56.19946289 15.38818359 C38.04946289 15.38818359 19.89946289 15.38818359 1.19946289 15.38818359 C1.19946289 19.67818359 1.19946289 23.96818359 1.19946289 28.38818359 C-2.80053711 33.38818359 -2.80053711 33.38818359 -4.83569336 34.01708984 C-10.35591608 33.8362733 -10.35591608 33.8362733 -12.52172852 31.65356445 C-13.98341994 29.06421075 -14.18688377 27.53464967 -14.19897461 24.57958984 C-14.20477539 23.21157227 -14.20477539 23.21157227 -14.21069336 21.81591797 C-14.1990918 20.87039062 -14.18749023 19.92486328 -14.17553711 18.95068359 C-14.18713867 18.00902344 -14.19874023 17.06736328 -14.21069336 16.09716797 C-14.17365068 7.34892102 -14.17365068 7.34892102 -10.80053711 3.38818359 C-7.33736326 0.09052389 -4.70018101 0.0091985 0 0 Z " fill="#020301" transform="translate(222.800537109375,157.61181640625)"/>
<path d="M0 0 C4.10060168 0.65902527 5.03743355 1.29333939 7.5 4.5625 C7.99829102 7.81469727 7.99829102 7.81469727 8.00390625 11.62890625 C8.01332748 12.30420883 8.02274872 12.97951141 8.03245544 13.67527771 C8.06105749 15.82549619 8.06418507 17.97460682 8.0625 20.125 C8.06610771 22.27880127 8.07562259 24.43180056 8.10325623 26.58543396 C8.12774915 28.53672343 8.12997833 30.48825441 8.13110352 32.43969727 C8.24366664 35.46514416 8.24366664 35.46514416 9.64348602 37.23386574 C12.31311682 39.14441583 14.30773045 38.94011411 17.57312012 38.94345093 C18.84344589 38.9519104 20.11377167 38.96036987 21.42259216 38.96908569 C22.83316168 38.96325259 24.24372993 38.95710807 25.65429688 38.95068359 C27.13754157 38.95474799 28.62078325 38.96008913 30.10401917 38.96661377 C34.13498141 38.98030896 38.16571372 38.97497973 42.19668007 38.96547651 C46.41135919 38.95789128 50.62601837 38.96492236 54.84069824 38.96963501 C61.91906272 38.97509589 68.99733336 38.96789227 76.07568359 38.95361328 C84.2640197 38.9372861 92.45213173 38.94257437 100.6404624 38.9590925 C107.66558423 38.97269793 114.69063854 38.97463165 121.71576929 38.96677649 C125.91385732 38.96209477 130.11183997 38.96148876 134.30992126 38.97138596 C138.25636748 38.98003969 142.20252425 38.97406315 146.14893913 38.95670319 C147.59897823 38.95272978 149.04904161 38.95388697 150.49907112 38.96049118 C152.47499864 38.9686622 154.45097928 38.95660903 156.42687988 38.94345093 C158.08717602 38.94175431 158.08717602 38.94175431 159.78101349 38.94002342 C162.50482761 38.77643351 162.50482761 38.77643351 164.35651398 37.23386574 C166.22503448 34.50276007 165.86921636 31.88491924 165.87109375 28.62890625 C165.8884756 27.24413815 165.90605999 25.85937258 165.92382812 24.47460938 C165.93390062 22.29772277 165.93749687 20.12100074 165.93579102 17.9440918 C165.93936582 15.83853353 165.96672198 13.73423918 165.99609375 11.62890625 C165.99794678 10.37021729 165.9997998 9.11152832 166.00170898 7.81469727 C166.5 4.5625 166.5 4.5625 168.31274414 2.15600586 C170.5 0.5625 170.5 0.5625 174 0 C177.5 0.5625 177.5 0.5625 179.68334961 2.65161133 C181.92723279 6.24707151 182.02971268 8.47945792 182.06640625 12.69921875 C182.07260483 13.37870071 182.07880341 14.05818268 182.08518982 14.758255 C182.09226963 16.19290747 182.08914593 17.6276424 182.07641602 19.06225586 C182.06264412 21.22734304 182.09651976 23.38801817 182.13476562 25.55273438 C182.18074173 33.71801935 181.53777152 40.77684155 176.5 47.5625 C171.08366116 52.62022779 165.50955363 54.80596081 158.08161926 54.83665466 C156.13669586 54.85161736 156.13669586 54.85161736 154.15248108 54.86688232 C152.72250379 54.86777805 151.29252633 54.86844166 149.86254883 54.86889648 C148.35095817 54.87652125 146.83937138 54.8849493 145.32778931 54.89411926 C141.22629756 54.91604383 137.12488037 54.92486077 133.02333665 54.92994571 C130.45781147 54.93359264 127.89230571 54.93983455 125.32678795 54.9469471 C116.36750814 54.97143752 107.40828617 54.98449196 98.44897461 54.98803711 C90.11296233 54.99166886 81.77731902 55.0215393 73.44141942 55.06344169 C66.27348065 55.09820283 59.10566377 55.11358658 51.93764132 55.11428314 C47.66155391 55.11507418 43.38584223 55.12373204 39.1098423 55.15228081 C35.08362691 55.17856067 31.05809606 55.18061207 27.03183365 55.16462517 C25.56052463 55.16281833 24.08917535 55.16943192 22.61795235 55.18544388 C13.8210181 55.2752873 6.87040884 54.68121374 -0.5 49.5625 C-2.75390625 47.24609375 -2.75390625 47.24609375 -4.0625 45 C-4.51753906 44.25621094 -4.97257813 43.51242187 -5.44140625 42.74609375 C-8.39785426 36.64773789 -7.75820065 29.91813333 -7.79516602 23.29077148 C-7.80670847 21.84861457 -7.82719638 20.40650112 -7.85668945 18.96459961 C-7.89942869 16.87324207 -7.91553892 14.78314657 -7.92578125 12.69140625 C-7.94036377 11.44431885 -7.95494629 10.19723145 -7.9699707 8.91235352 C-7.22496627 3.60211673 -5.36256114 0.86184018 0 0 Z " fill="#060606" transform="translate(164.5,334.4375)"/>
<path d="M0 0 C10.56 0 21.12 0 32 0 C32.33 22.44 32.66 44.88 33 68 C23.1 68 13.2 68 3 68 C0 65 0 65 -0.36076355 62.17158508 C-0.35410172 61.0235289 -0.34743988 59.87547272 -0.34057617 58.69262695 C-0.34034958 57.39150467 -0.34012299 56.09038239 -0.33988953 54.74983215 C-0.32456952 53.3293117 -0.30892153 51.90879474 -0.29296875 50.48828125 C-0.28737276 49.03525734 -0.28310267 47.58222776 -0.28010559 46.12919617 C-0.26865695 42.30679671 -0.23918999 38.4847398 -0.20599365 34.66247559 C-0.16989422 30.07534616 -0.15613166 25.48810213 -0.13863373 20.90087128 C-0.10955221 13.93367602 -0.05206622 6.96723222 0 0 Z " fill="#88C526" transform="translate(247,173)"/>
<path d="M0 0 C0.66 0 1.32 0 2 0 C3.27433777 1.29310608 3.27433777 1.29310608 4.82104492 3.18774414 C10.15853587 9.45799716 16.03910721 15.18310606 21.86328125 20.99609375 C23.10416506 22.23765226 24.34490048 23.47935909 25.585495 24.72120667 C28.17004159 27.30721912 30.75636727 29.8914351 33.34399414 32.47436523 C36.66411224 35.78875069 39.97967216 39.10765417 43.29394245 42.42788601 C45.84768024 44.98522896 48.40378446 47.54019587 50.96062279 50.09443855 C52.18500392 51.31815215 53.40864139 52.54261029 54.63152504 53.76782036 C56.33308304 55.47190798 58.03779592 57.17277436 59.7434082 58.87280273 C60.50158844 59.63401932 60.50158844 59.63401932 61.27508545 60.41061401 C63.88956138 63.03465971 63.88956138 63.03465971 67 65 C67 65.66 67 66.32 67 67 C60.77446052 67.09948619 54.54939218 67.17175931 48.32324219 67.21972656 C46.20890228 67.23974016 44.09461701 67.26695972 41.98046875 67.30175781 C38.92694552 67.35072941 35.87415922 67.37307182 32.8203125 67.390625 C31.88760529 67.41127014 30.95489807 67.43191528 29.993927 67.45318604 C22.30284835 67.45576737 15.63216958 65.67405629 9.37890625 61.0703125 C1.28260212 52.39943195 -0.16123218 45.42410632 -0.09765625 33.88671875 C-0.0962413 32.91716751 -0.09482635 31.94761627 -0.09336853 30.94868469 C-0.08778513 27.86159133 -0.07523564 24.77457133 -0.0625 21.6875 C-0.05748286 19.59049584 -0.05292032 17.49349054 -0.04882812 15.39648438 C-0.03782112 10.26429479 -0.02056788 5.13215982 0 0 Z " fill="#A4CBD0" transform="translate(352,26)"/>
<path d="M0 0 C9.9 0 19.8 0 30 0 C23.25 7.875 23.25 7.875 20.65896606 10.46128845 C20.07014145 11.05148773 19.48131683 11.64168701 18.87464905 12.24977112 C18.25101974 12.86980515 17.62739044 13.48983917 16.98486328 14.12866211 C15.97405449 15.13968994 15.97405449 15.13968994 14.94282532 16.17114258 C12.7376857 18.37559126 10.52903641 20.57648684 8.3203125 22.77734375 C6.78167206 24.3141171 5.24325375 25.85111288 3.70504761 27.38832092 C-0.32701166 31.41657796 -4.36206595 35.4418217 -8.39776611 39.46643066 C-12.52221022 43.58061116 -16.64379431 47.69765465 -20.765625 51.81445312 C-28.84096439 59.87909568 -36.91947294 67.94055557 -45 76 C-46.11228972 75.0542569 -47.22348623 74.107228 -48.33422852 73.15966797 C-48.95314468 72.63243134 -49.57206085 72.1051947 -50.20973206 71.5619812 C-52.5563298 69.51461082 -54.75278049 67.34333058 -56.9375 65.125 C-57.70964844 64.34382813 -58.48179687 63.56265625 -59.27734375 62.7578125 C-59.84582031 62.17773438 -60.41429687 61.59765625 -61 61 C-59.93576813 60.17926498 -59.93576813 60.17926498 -58.85003662 59.34194946 C-55.86424599 56.88844739 -53.12270551 54.26324233 -50.39941406 51.52880859 C-49.86384384 50.99499069 -49.32827362 50.46117279 -48.776474 49.91117859 C-47.02034665 48.15942571 -45.26787061 46.40407256 -43.515625 44.6484375 C-42.29219937 43.42568587 -41.06862535 42.20308269 -39.84490967 40.98062134 C-37.28804412 38.42522653 -34.73298741 35.86804042 -32.17919922 33.30957031 C-28.90171174 30.02636777 -25.61973114 26.74769911 -22.33639908 23.47034264 C-19.81250469 20.95005523 -17.2909888 18.42739906 -14.77019501 15.90401077 C-13.56043705 14.69358487 -12.34993342 13.48390375 -11.1386795 12.27497482 C-9.45102813 10.58985416 -7.76660055 8.90157664 -6.08300781 7.21240234 C-5.32874763 6.46117851 -5.32874763 6.46117851 -4.55924988 5.69477844 C-1.95193423 3.0940543 -1.95193423 3.0940543 0 0 Z " fill="#87C326" transform="translate(297,249)"/>
</svg>
