<?xml version="1.0" encoding="UTF-8"?>
<svg version="1.1" xmlns="http://www.w3.org/2000/svg" width="512" height="512">
<path d="M0 0 C1.89748794 -0.00302293 3.79497465 -0.00691312 5.69245923 -0.01159257 C10.8914434 -0.02186297 16.09035855 -0.01969317 21.28934836 -0.01541197 C26.90227738 -0.01294303 32.51518985 -0.02196099 38.12811279 -0.02944946 C49.11842188 -0.04219363 60.10870654 -0.04399052 71.09902178 -0.0416492 C80.03270353 -0.03986563 88.96637788 -0.04161653 97.90005875 -0.04587364 C99.17190534 -0.04646883 100.44375194 -0.04706402 101.75413934 -0.04767724 C104.33795523 -0.048889 106.92177111 -0.05010314 109.505587 -0.05131962 C126.85174252 -0.05910564 144.19789366 -0.06302679 161.54405022 -0.05900288 C162.22200316 -0.0588465 162.89995609 -0.05869012 163.59845306 -0.05852901 C167.03438192 -0.05772326 170.47031077 -0.05687749 173.90623961 -0.05601571 C174.92977133 -0.05575908 174.92977133 -0.05575908 175.97398046 -0.05549726 C177.35386575 -0.0551506 178.73375105 -0.05480207 180.11363634 -0.05445167 C201.5843289 -0.04909456 223.05498038 -0.05702594 244.52566528 -0.07548523 C268.66288599 -0.09621288 292.80007491 -0.10689543 316.93730748 -0.10290974 C329.71208399 -0.10099741 342.48682308 -0.1034885 355.26159286 -0.11762428 C366.13643007 -0.12953606 377.01120682 -0.13094518 387.88604484 -0.11883412 C393.43282013 -0.11294416 398.97948482 -0.11184937 404.52625275 -0.12383652 C409.60781383 -0.13469057 414.68917191 -0.1315975 419.77072348 -0.11757483 C421.60508075 -0.11492662 423.43945391 -0.11729832 425.27379559 -0.1253107 C450.32924865 -0.22712163 450.32924865 -0.22712163 458.88357544 6.67085266 C464.96328779 12.98320707 467.5363754 18.71465222 467.5462532 27.3868227 C467.55009435 28.6514592 467.55393549 29.9160957 467.55789304 31.21905452 C467.5571128 32.62521324 467.55623401 34.03137191 467.55526733 35.43753052 C467.55785095 36.9291724 467.5608641 38.4208136 467.56427073 39.91245383 C467.57234429 44.01727533 467.5741305 48.12207935 467.5748682 52.22690785 C467.57671812 56.65169375 467.5842651 61.07647057 467.59100342 65.50125122 C467.60458936 75.17886043 467.61061174 84.85646549 467.61501408 94.53408265 C467.61777582 100.57523006 467.62201302 106.61637587 467.62651825 112.6575222 C467.6387108 129.37946504 467.64901044 146.10140658 467.65239334 162.82335377 C467.65261291 163.89372762 467.65283247 164.96410148 467.65305869 166.0669109 C467.65327697 167.13986146 467.65349525 168.21281202 467.65372014 169.31827623 C467.65416361 171.49252371 467.65461017 173.66677119 467.65505981 175.84101868 C467.65528124 176.91952305 467.65550267 177.99802741 467.65573081 179.10921373 C467.65967989 196.58973726 467.67713731 214.07021914 467.70041934 231.55072657 C467.72412259 249.49209555 467.73659471 267.43344362 467.73776126 285.37482852 C467.73867855 295.45054975 467.74444451 305.52621669 467.76258087 315.60192299 C467.77796794 324.18053662 467.78311053 332.75907918 467.77484277 341.33770398 C467.77093144 345.71525355 467.77188938 350.09265993 467.78590012 354.47019196 C467.79860996 358.47788175 467.7974673 362.48532034 467.7853094 366.49300965 C467.78334735 367.94253636 467.7864543 369.3920807 467.79515377 370.84158263 C467.87009332 384.17237938 467.87009332 384.17237938 464.41482544 390.26069641 C463.87857544 391.27132141 463.34232544 392.28194641 462.78982544 393.32319641 C456.99575448 400.48954734 450.34796123 403.12021774 441.41482544 404.26069641 C435.21932935 404.55305119 429.03087101 404.53539013 422.82965088 404.52139282 C420.93216294 404.52441575 419.03467623 404.52830594 417.13719165 404.53298539 C411.93820747 404.5432558 406.73929233 404.54108599 401.54030252 404.5368048 C395.9273735 404.53433585 390.31446103 404.54335381 384.70153809 404.55084229 C373.71122899 404.56358646 362.72094434 404.56538334 351.7306291 404.56304202 C342.79694735 404.56125845 333.863273 404.56300935 324.92959213 404.56726646 C323.02182224 404.56815925 323.02182224 404.56815925 321.07551154 404.56907007 C318.49169565 404.57028183 315.90787977 404.57149596 313.32406388 404.57271244 C295.97790836 404.58049847 278.63175722 404.58441962 261.28560066 404.5803957 C260.60764772 404.58023932 259.92969479 404.58008295 259.23119782 404.57992183 C255.79526896 404.57911608 252.35934011 404.57827031 248.92341127 404.57740853 C247.89987955 404.5771519 247.89987955 404.5771519 246.85567042 404.57689008 C245.47578512 404.57654343 244.09589983 404.5761949 242.71601454 404.5758445 C221.24532198 404.57048738 199.77467049 404.57841877 178.3039856 404.59687805 C154.16676489 404.6176057 130.02957597 404.62828826 105.8923434 404.62430257 C93.11756689 404.62239023 80.3428278 404.62488132 67.56805801 404.63901711 C56.69322081 404.65092888 45.81844406 404.652338 34.94360603 404.64022694 C29.39683075 404.63433698 23.85016606 404.63324219 18.30339813 404.64522934 C13.22183705 404.65608339 8.14047897 404.65299032 3.0589274 404.63896766 C1.22457013 404.63631945 -0.60980303 404.63869115 -2.44414471 404.64670352 C-27.49959778 404.74851446 -27.49959778 404.74851446 -36.05392456 397.85054016 C-42.13363692 391.53818575 -44.70672452 385.8067406 -44.71660233 377.13457012 C-44.72044347 375.86993362 -44.72428462 374.60529712 -44.72824216 373.3023383 C-44.72746192 371.89617958 -44.72658313 370.49002091 -44.72561646 369.0838623 C-44.72820007 367.59222042 -44.73121322 366.10057923 -44.73461986 364.60893899 C-44.74269341 360.50411749 -44.74447962 356.39931347 -44.74521732 352.29448497 C-44.74706724 347.86969907 -44.75461422 343.44492226 -44.76135254 339.0201416 C-44.77493848 329.34253239 -44.78096087 319.66492733 -44.7853632 309.98731017 C-44.78812494 303.94616276 -44.79236214 297.90501695 -44.79686737 291.86387062 C-44.80905992 275.14192779 -44.81935956 258.41998624 -44.82274246 241.69803905 C-44.82296203 240.6276652 -44.82318159 239.55729134 -44.82340781 238.45448192 C-44.82362609 237.38153136 -44.82384437 236.30858081 -44.82406926 235.2031166 C-44.82451273 233.02886911 -44.82495929 230.85462163 -44.82540894 228.68037415 C-44.82563037 227.60186978 -44.8258518 226.52336541 -44.82607993 225.41217909 C-44.83002901 207.93165556 -44.84748643 190.45117369 -44.87076846 172.97066625 C-44.89447171 155.02929727 -44.90694383 137.0879492 -44.90811038 119.1465643 C-44.90902767 109.07084307 -44.91479363 98.99517613 -44.93292999 88.91946983 C-44.94831706 80.3408562 -44.95345965 71.76231364 -44.94519189 63.18368884 C-44.94128057 58.80613927 -44.9422385 54.42873289 -44.95624924 50.05120087 C-44.96895908 46.04351107 -44.96781642 42.03607248 -44.95565853 38.02838317 C-44.95369647 36.57885646 -44.95680342 35.12931213 -44.96550289 33.67981019 C-45.04044244 20.34901344 -45.04044244 20.34901344 -41.58517456 14.26069641 C-41.04892456 13.25007141 -40.51267456 12.23944641 -39.96017456 11.19819641 C-29.78842453 -1.38265231 -14.75300072 -0.03330027 0 0 Z " fill="#E2E8F6" transform="translate(44.585174560546875,53.73930358886719)"/>
<path d="M0 0 C2.19439602 1.35370731 2.19439602 1.35370731 4 4 C4.61239512 7.71164557 4.54325287 11.39882546 4.5146637 15.15318298 C4.52160922 16.30463462 4.52855475 17.45608626 4.53571075 18.64243037 C4.55085802 21.83918208 4.54802168 25.03533815 4.53755772 28.23209035 C4.53057538 31.6793603 4.54655627 35.12653436 4.55955505 38.57377625 C4.58121689 45.32743064 4.58106258 52.08091669 4.57292951 58.83459442 C4.56663393 64.32312694 4.56776247 69.8116103 4.57420158 75.30014229 C4.57510324 76.08080858 4.57600489 76.86147488 4.57693387 77.66579773 C4.57878504 79.25163695 4.5806476 80.83747616 4.58252143 82.42331535 C4.59910761 97.30067217 4.59037388 112.17793421 4.57353585 127.05528534 C4.5588393 140.67024097 4.57346514 154.28497591 4.60230602 167.89990311 C4.63168958 181.87494136 4.64267528 195.84987772 4.63312382 209.82494551 C4.63210125 211.40531097 4.63110664 212.98567645 4.6301403 214.56604195 C4.62966391 215.34363753 4.62918752 216.12123311 4.6286967 216.9223922 C4.62653112 222.40442087 4.63634428 227.88635322 4.65091133 233.36836052 C4.66841592 240.04914686 4.6683446 246.72965183 4.64555968 253.41042703 C4.63439987 256.81977024 4.63129325 260.22861739 4.64986038 263.63793945 C4.66570309 267.33238229 4.65092029 271.02545618 4.62818909 274.71983337 C4.64002482 275.79978811 4.65186054 276.87974284 4.66405493 277.99242347 C4.64542187 279.47713247 4.64542187 279.47713247 4.62641239 280.99183559 C4.62600786 282.27070885 4.62600786 282.27070885 4.62559515 283.57541794 C3.67897808 287.24416563 1.98189635 288.72352521 -1 291 C-4.35958767 291.62674582 -4.35958767 291.62674582 -8.2855072 291.6292057 C-9.37584997 291.64010651 -9.37584997 291.64010651 -10.48821986 291.65122753 C-12.93139138 291.66951965 -15.37300126 291.65210417 -17.81616211 291.63491821 C-19.58233666 291.64067778 -21.34850523 291.64861778 -23.11466122 291.65855443 C-27.97374745 291.67947375 -32.83234422 291.66908952 -37.69143248 291.65362334 C-42.92942379 291.64233454 -48.16732951 291.65976026 -53.40530396 291.67352295 C-63.66875556 291.69578631 -73.93202461 291.69094035 -84.19548345 291.67645974 C-92.53486841 291.66517969 -100.87420213 291.66363126 -109.21359253 291.66907883 C-110.99219285 291.67022807 -110.99219285 291.67022807 -112.80672449 291.67140054 C-115.21532418 291.67299912 -117.62392385 291.67462019 -120.03252351 291.6762635 C-142.63174209 291.69053008 -165.23085935 291.67411399 -187.83006132 291.64726166 C-207.2321359 291.62492209 -226.63406093 291.62880196 -246.03613281 291.65185547 C-268.5530484 291.6785974 -291.06987514 291.6891567 -313.58680439 291.67379415 C-315.98667207 291.67220136 -318.38653976 291.67062951 -320.78640747 291.66907883 C-321.96726817 291.66830745 -323.14812886 291.66753607 -324.36477321 291.66674132 C-332.69664414 291.6624195 -341.02845883 291.66972125 -349.36032104 291.68147659 C-359.51052915 291.69548226 -369.66054387 291.69174232 -379.81072974 291.66507287 C-384.99212399 291.65190871 -390.1731955 291.64682659 -395.35458755 291.66331863 C-400.09442615 291.67817736 -404.83364173 291.67009758 -409.5734235 291.64343087 C-411.29138035 291.63782855 -413.00938944 291.6407254 -414.72731292 291.65280981 C-417.05712843 291.66794598 -419.38479101 291.65249712 -421.7144928 291.6292057 C-423.65782297 291.62798806 -423.65782297 291.62798806 -425.64041233 291.62674582 C-429.88841654 290.834262 -431.3652118 289.3606199 -434 286 C-434.75 282.6875 -434.75 282.6875 -434 279 C-429.48839063 272.73566484 -423.50532365 267.36333176 -418.05413818 261.92715454 C-417.1763937 261.04785007 -416.29864922 260.1685456 -415.39430642 259.26259553 C-412.97777437 256.84278346 -410.55904424 254.42520875 -408.13931799 252.00859332 C-405.52269824 249.39424701 -402.9089711 246.77701138 -400.29486084 244.16015625 C-395.18277667 239.04363709 -390.068007 233.9298108 -384.95225307 228.81696112 C-380.79585871 224.66282849 -376.64044549 220.50771677 -372.4857254 216.35190964 C-371.59755634 215.46351073 -371.59755634 215.46351073 -370.69144447 214.55716436 C-369.48851217 213.35391233 -368.28558211 212.15065806 -367.08265427 210.94740157 C-355.81784817 199.67974766 -344.54998534 188.41515456 -333.28106645 177.15161411 C-323.60914053 167.4841614 -313.93984756 157.81408174 -304.27246094 148.14208984 C-293.04045807 136.90473886 -281.80683932 125.66900733 -270.57062554 114.43586671 C-269.37341878 113.2389785 -268.1762141 112.04208819 -266.97901154 110.84519577 C-266.09546272 109.96187836 -266.09546272 109.96187836 -265.19406442 109.06071616 C-261.04017294 104.90768869 -256.88744416 100.75350078 -252.73516083 96.59886551 C-247.67991165 91.54081578 -242.62289284 86.48454346 -237.56357643 81.43056186 C-234.98170654 78.85132461 -232.4006511 76.27128587 -229.82174683 73.6890831 C-227.02984181 70.89366105 -224.23409296 68.10210419 -221.43792725 65.3109436 C-220.61877767 64.48956331 -219.7996281 63.66818301 -218.95565581 62.82191241 C-218.20855291 62.07741725 -217.46145 61.33292209 -216.69170761 60.56586647 C-216.04656008 59.92088129 -215.40141254 59.2758961 -214.73671508 58.61136591 C-211.36394055 55.48202479 -208.79451558 54.36552216 -204.15467834 54.50007629 C-201.50307188 55.11529616 -200.33452226 56.09824119 -198.33764648 57.9362793 C-197.64242889 58.57399261 -196.9472113 59.21170593 -196.23092651 59.8687439 C-192.19701049 63.72243791 -188.22528178 67.63254891 -184.28515625 71.58203125 C-183.38880966 72.47742111 -182.49246307 73.37281097 -181.56895447 74.29533386 C-179.68950398 76.17410776 -177.81107813 78.05383991 -175.93432617 79.93530273 C-173.52795724 82.34741773 -171.11705876 84.75494807 -168.70484257 87.16121387 C-166.39585567 89.46573023 -164.09066856 91.7740396 -161.78515625 94.08203125 C-160.91858902 94.94657425 -160.05202179 95.81111725 -159.15919495 96.70185852 C-157.9667643 97.89901741 -157.9667643 97.89901741 -156.75024414 99.12036133 C-155.69722862 100.17457024 -155.69722862 100.17457024 -154.62294006 101.25007629 C-153 103 -153 103 -152 105 C-152.11859375 105.70769531 -152.2371875 106.41539062 -152.359375 107.14453125 C-152.94722666 111.15955806 -153.17636435 114.34568117 -150.72851562 117.78808594 C-147.12790697 121.85560102 -143.10573322 125.45260138 -139 129 C-132.22424358 123.44265485 -126.1202043 117.24674864 -119.94604492 111.04370117 C-118.73667365 109.83240829 -117.5270727 108.62134468 -116.31726074 107.41049194 C-113.72404031 104.81412322 -111.13237846 102.2162124 -108.54192162 99.61708641 C-104.44796845 95.50957016 -100.35016713 91.40590744 -96.25178528 87.30281067 C-87.56072043 78.60066957 -78.87390453 69.89429262 -70.1875 61.1875 C-60.79195422 51.76993351 -51.39567929 42.35310136 -41.99453813 32.94111997 C-37.91760553 28.85919644 -33.84312535 24.77484515 -29.77048624 20.68863809 C-27.24372801 18.15444337 -24.71492023 15.62230164 -22.18553925 13.09072495 C-21.00993517 11.91324238 -19.83519905 10.73489255 -18.66137886 9.55563164 C-17.06418788 7.95126843 -15.46398 6.34997705 -13.86296082 4.74943542 C-12.96685184 3.85110583 -12.07074286 2.95277624 -11.14747906 2.02722454 C-7.30910138 -1.59621169 -5.08714672 -1.14022254 0 0 Z " fill="#B3E56D" transform="translate(471,129)"/>
<path d="M0 0 C1.89748794 -0.00302293 3.79497465 -0.00691312 5.69245923 -0.01159257 C10.8914434 -0.02186297 16.09035855 -0.01969317 21.28934836 -0.01541197 C26.90227738 -0.01294303 32.51518985 -0.02196099 38.12811279 -0.02944946 C49.11842188 -0.04219363 60.10870654 -0.04399052 71.09902178 -0.0416492 C80.03270353 -0.03986563 88.96637788 -0.04161653 97.90005875 -0.04587364 C99.17190534 -0.04646883 100.44375194 -0.04706402 101.75413934 -0.04767724 C104.33795523 -0.048889 106.92177111 -0.05010314 109.505587 -0.05131962 C126.85174252 -0.05910564 144.19789366 -0.06302679 161.54405022 -0.05900288 C162.22200316 -0.0588465 162.89995609 -0.05869012 163.59845306 -0.05852901 C167.03438192 -0.05772326 170.47031077 -0.05687749 173.90623961 -0.05601571 C174.92977133 -0.05575908 174.92977133 -0.05575908 175.97398046 -0.05549726 C177.35386575 -0.0551506 178.73375105 -0.05480207 180.11363634 -0.05445167 C201.5843289 -0.04909456 223.05498038 -0.05702594 244.52566528 -0.07548523 C268.66288599 -0.09621288 292.80007491 -0.10689543 316.93730748 -0.10290974 C329.71208399 -0.10099741 342.48682308 -0.1034885 355.26159286 -0.11762428 C366.13643007 -0.12953606 377.01120682 -0.13094518 387.88604484 -0.11883412 C393.43282013 -0.11294416 398.97948482 -0.11184937 404.52625275 -0.12383652 C409.60781383 -0.13469057 414.68917191 -0.1315975 419.77072348 -0.11757483 C421.60508075 -0.11492662 423.43945391 -0.11729832 425.27379559 -0.1253107 C450.32924865 -0.22712163 450.32924865 -0.22712163 458.88357544 6.67085266 C464.96328779 12.98320707 467.5363754 18.71465222 467.5462532 27.3868227 C467.55009435 28.6514592 467.55393549 29.9160957 467.55789304 31.21905452 C467.5571128 32.62521324 467.55623401 34.03137191 467.55526733 35.43753052 C467.55785095 36.9291724 467.5608641 38.4208136 467.56427073 39.91245383 C467.57234429 44.01727533 467.5741305 48.12207935 467.5748682 52.22690785 C467.57671812 56.65169375 467.5842651 61.07647057 467.59100342 65.50125122 C467.60458936 75.17886043 467.61061174 84.85646549 467.61501408 94.53408265 C467.61777582 100.57523006 467.62201302 106.61637587 467.62651825 112.6575222 C467.6387108 129.37946504 467.64901044 146.10140658 467.65239334 162.82335377 C467.65261291 163.89372762 467.65283247 164.96410148 467.65305869 166.0669109 C467.65327697 167.13986146 467.65349525 168.21281202 467.65372014 169.31827623 C467.65416361 171.49252371 467.65461017 173.66677119 467.65505981 175.84101868 C467.65528124 176.91952305 467.65550267 177.99802741 467.65573081 179.10921373 C467.65967989 196.58973726 467.67713731 214.07021914 467.70041934 231.55072657 C467.72412259 249.49209555 467.73659471 267.43344362 467.73776126 285.37482852 C467.73867855 295.45054975 467.74444451 305.52621669 467.76258087 315.60192299 C467.77796794 324.18053662 467.78311053 332.75907918 467.77484277 341.33770398 C467.77093144 345.71525355 467.77188938 350.09265993 467.78590012 354.47019196 C467.79860996 358.47788175 467.7974673 362.48532034 467.7853094 366.49300965 C467.78334735 367.94253636 467.7864543 369.3920807 467.79515377 370.84158263 C467.87009332 384.17237938 467.87009332 384.17237938 464.41482544 390.26069641 C463.87857544 391.27132141 463.34232544 392.28194641 462.78982544 393.32319641 C456.99575448 400.48954734 450.34796123 403.12021774 441.41482544 404.26069641 C435.21932935 404.55305119 429.03087101 404.53539013 422.82965088 404.52139282 C420.93216294 404.52441575 419.03467623 404.52830594 417.13719165 404.53298539 C411.93820747 404.5432558 406.73929233 404.54108599 401.54030252 404.5368048 C395.9273735 404.53433585 390.31446103 404.54335381 384.70153809 404.55084229 C373.71122899 404.56358646 362.72094434 404.56538334 351.7306291 404.56304202 C342.79694735 404.56125845 333.863273 404.56300935 324.92959213 404.56726646 C323.02182224 404.56815925 323.02182224 404.56815925 321.07551154 404.56907007 C318.49169565 404.57028183 315.90787977 404.57149596 313.32406388 404.57271244 C295.97790836 404.58049847 278.63175722 404.58441962 261.28560066 404.5803957 C260.60764772 404.58023932 259.92969479 404.58008295 259.23119782 404.57992183 C255.79526896 404.57911608 252.35934011 404.57827031 248.92341127 404.57740853 C247.89987955 404.5771519 247.89987955 404.5771519 246.85567042 404.57689008 C245.47578512 404.57654343 244.09589983 404.5761949 242.71601454 404.5758445 C221.24532198 404.57048738 199.77467049 404.57841877 178.3039856 404.59687805 C154.16676489 404.6176057 130.02957597 404.62828826 105.8923434 404.62430257 C93.11756689 404.62239023 80.3428278 404.62488132 67.56805801 404.63901711 C56.69322081 404.65092888 45.81844406 404.652338 34.94360603 404.64022694 C29.39683075 404.63433698 23.85016606 404.63324219 18.30339813 404.64522934 C13.22183705 404.65608339 8.14047897 404.65299032 3.0589274 404.63896766 C1.22457013 404.63631945 -0.60980303 404.63869115 -2.44414471 404.64670352 C-27.49959778 404.74851446 -27.49959778 404.74851446 -36.05392456 397.85054016 C-42.13363692 391.53818575 -44.70672452 385.8067406 -44.71660233 377.13457012 C-44.72044347 375.86993362 -44.72428462 374.60529712 -44.72824216 373.3023383 C-44.72746192 371.89617958 -44.72658313 370.49002091 -44.72561646 369.0838623 C-44.72820007 367.59222042 -44.73121322 366.10057923 -44.73461986 364.60893899 C-44.74269341 360.50411749 -44.74447962 356.39931347 -44.74521732 352.29448497 C-44.74706724 347.86969907 -44.75461422 343.44492226 -44.76135254 339.0201416 C-44.77493848 329.34253239 -44.78096087 319.66492733 -44.7853632 309.98731017 C-44.78812494 303.94616276 -44.79236214 297.90501695 -44.79686737 291.86387062 C-44.80905992 275.14192779 -44.81935956 258.41998624 -44.82274246 241.69803905 C-44.82296203 240.6276652 -44.82318159 239.55729134 -44.82340781 238.45448192 C-44.82362609 237.38153136 -44.82384437 236.30858081 -44.82406926 235.2031166 C-44.82451273 233.02886911 -44.82495929 230.85462163 -44.82540894 228.68037415 C-44.82563037 227.60186978 -44.8258518 226.52336541 -44.82607993 225.41217909 C-44.83002901 207.93165556 -44.84748643 190.45117369 -44.87076846 172.97066625 C-44.89447171 155.02929727 -44.90694383 137.0879492 -44.90811038 119.1465643 C-44.90902767 109.07084307 -44.91479363 98.99517613 -44.93292999 88.91946983 C-44.94831706 80.3408562 -44.95345965 71.76231364 -44.94519189 63.18368884 C-44.94128057 58.80613927 -44.9422385 54.42873289 -44.95624924 50.05120087 C-44.96895908 46.04351107 -44.96781642 42.03607248 -44.95565853 38.02838317 C-44.95369647 36.57885646 -44.95680342 35.12931213 -44.96550289 33.67981019 C-45.04044244 20.34901344 -45.04044244 20.34901344 -41.58517456 14.26069641 C-41.04892456 13.25007141 -40.51267456 12.23944641 -39.96017456 11.19819641 C-29.78842453 -1.38265231 -14.75300072 -0.03330027 0 0 Z M-26.58517456 23.26069641 C-27.92778373 25.94591475 -27.71564439 28.0101629 -27.72218895 31.01858139 C-27.72726349 32.25198533 -27.73233804 33.48538927 -27.73756635 34.75616908 C-27.73816808 36.13745924 -27.73866714 37.51874944 -27.73907471 38.90003967 C-27.74308785 40.35767015 -27.74752582 41.81529952 -27.75235426 43.27292752 C-27.76434216 47.29298147 -27.76997333 51.3130234 -27.77453542 55.33309174 C-27.7804831 59.66314485 -27.79209499 63.99318353 -27.80282593 68.32322693 C-27.82736861 78.78746794 -27.84197957 89.25171374 -27.854886 99.71597469 C-27.85859649 102.67017293 -27.86256983 105.62437069 -27.86663866 108.57856846 C-27.8918731 126.91293813 -27.9139322 145.24730853 -27.92636681 163.58169174 C-27.92929664 167.83016208 -27.93225828 172.07863239 -27.93527222 176.32710266 C-27.93601827 177.38307542 -27.93676432 178.43904819 -27.93753298 179.52702013 C-27.95019128 196.63978589 -27.98341966 213.75244786 -28.02507405 230.86516508 C-28.0674635 248.42339076 -28.09105836 265.98156326 -28.09628737 283.53983998 C-28.09970483 293.40266079 -28.11149936 303.26531938 -28.14439011 313.1280899 C-28.1723507 321.52638432 -28.18340753 329.92448328 -28.17219464 338.32282063 C-28.16699777 342.60919806 -28.16996104 346.89516594 -28.19466019 351.18148422 C-28.21707953 355.10484618 -28.21647056 359.02750268 -28.19745632 362.95087638 C-28.19464596 364.37084284 -28.20031231 365.79085639 -28.21526925 367.21074685 C-28.58068714 375.67129702 -28.58068714 375.67129702 -25.17217445 383.08240128 C-21.09971367 386.51147815 -18.24075772 386.40604529 -13.10937881 386.3977108 C-12.32546332 386.40036263 -11.54154782 386.40301445 -10.7338773 386.40574664 C-8.079175 386.41347077 -5.42451872 386.41399999 -2.76980591 386.41459656 C-0.85844767 386.41860913 1.05290971 386.423047 2.96426606 386.42787611 C8.23849331 386.4398703 13.51271141 386.44549663 18.78694963 386.45005727 C24.4667067 386.45600255 30.14645274 386.46761501 35.82620239 386.47834778 C49.55335859 386.50289563 63.28051843 386.517502 77.00768983 386.53040785 C80.88248333 386.5341179 84.75727646 386.53809128 88.63206959 386.54216051 C112.67553577 386.56739406 136.71900164 386.58947117 160.76247787 386.60188866 C166.33441928 386.60481008 171.90636065 386.60777758 177.478302 386.61079407 C178.51668703 386.61135043 178.51668703 386.61135043 179.57604953 386.61191803 C202.02562271 386.62407621 224.47511755 386.65502412 246.92465393 386.69671559 C270.64988965 386.74069596 294.37506446 386.76642026 318.10034394 386.77180922 C331.0371724 386.77522805 343.97387725 386.78703885 356.91066742 386.81991196 C367.92569259 386.8478553 378.94056883 386.85893693 389.9556267 386.8477165 C395.57864282 386.8425153 401.20134677 386.8455114 406.82431793 386.87018204 C411.9689043 386.892566 417.11295229 386.89201941 422.25754741 386.87297817 C424.12165398 386.87016288 425.98579623 386.87586087 427.84984514 386.8907911 C430.37911239 386.90981563 432.90644362 386.89816513 435.43566513 386.87872887 C436.16374764 386.89157809 436.89183015 386.90442731 437.64197576 386.9176659 C443.28708702 386.82198719 445.59081954 385.11836703 449.41482544 381.26069641 C450.75743461 378.57547807 450.54529527 376.51122993 450.55183983 373.50281143 C450.55691437 372.26940749 450.56198891 371.03600356 450.56721723 369.76522374 C450.56781896 368.38393358 450.56831802 367.00264338 450.56872559 365.62135315 C450.57273872 364.16372267 450.5771767 362.70609331 450.58200514 361.2484653 C450.59399304 357.22841135 450.59962421 353.20836942 450.6041863 349.18830109 C450.61013398 344.85824797 450.62174587 340.52820929 450.63247681 336.19816589 C450.65701949 325.73392488 450.67163045 315.26967908 450.68453687 304.80541813 C450.68824737 301.85121989 450.69222071 298.89702213 450.69628954 295.94282436 C450.72152398 277.60845469 450.74358308 259.27408429 450.75601768 240.93970108 C450.75894752 236.69123075 450.76190916 232.44276044 450.7649231 228.19429016 C450.76604217 226.61033102 450.76604217 226.61033102 450.76718386 224.9943727 C450.77984216 207.88160693 450.81307054 190.76894496 450.85472493 173.65622774 C450.89711438 156.09800206 450.92070924 138.53982956 450.92593825 120.98155284 C450.92935571 111.11873204 450.94115024 101.25607344 450.97404099 91.39330292 C451.00200158 82.99500851 451.01305841 74.59690954 451.00184552 66.19857219 C450.99664865 61.91219476 450.99961192 57.62622689 451.02431107 53.3399086 C451.04673041 49.41654664 451.04612144 45.49389015 451.02710719 41.57051644 C451.02429683 40.15054998 451.02996319 38.73053643 451.04492013 37.31064597 C451.41033802 28.8500958 451.41033802 28.8500958 448.00182533 21.43899155 C443.92936455 18.00991467 441.0704086 18.11534754 435.93902969 18.12368202 C435.15511419 18.1210302 434.37119869 18.11837837 433.56352818 18.11564618 C430.90882588 18.10792205 428.2541696 18.10739283 425.59945679 18.10679626 C423.68809855 18.1027837 421.77674117 18.09834582 419.86538482 18.09351671 C414.59115757 18.08152252 409.31693947 18.07589619 404.04270124 18.07133555 C398.36294418 18.06539027 392.68319814 18.05377781 387.00344849 18.04304504 C373.27629229 18.01849719 359.54913244 18.00389082 345.82196105 17.99098498 C341.94716755 17.98727492 338.07237442 17.98330154 334.19758129 17.97923231 C310.15411511 17.95399876 286.11064924 17.93192165 262.067173 17.91950417 C256.4952316 17.91658274 250.92329023 17.91361524 245.35134888 17.91059875 C244.65909219 17.91022785 243.96683551 17.90985694 243.25360135 17.90947479 C220.80402817 17.89731661 198.35453333 17.8663687 175.90499695 17.82467723 C152.17976123 17.78069686 128.45458642 17.75497256 104.72930694 17.7495836 C91.79247848 17.74616477 78.85577363 17.73435398 65.91898346 17.70148087 C54.90395829 17.67353752 43.88908205 17.66245589 32.87402418 17.67367633 C27.25100806 17.67887752 21.62830411 17.67588142 16.00533295 17.65121078 C10.86074657 17.62882682 5.71669859 17.62937341 0.57210347 17.64841466 C-1.2920031 17.65122995 -3.15614535 17.64553195 -5.02019426 17.63060172 C-7.54946151 17.6115772 -10.07679274 17.62322769 -12.60601425 17.64266396 C-13.33409676 17.62981474 -14.06217927 17.61696551 -14.81232488 17.60372692 C-20.45743614 17.69940563 -22.76116866 19.40302579 -26.58517456 23.26069641 Z " fill="#000000" transform="translate(44.585174560546875,53.73930358886719)"/>
<path d="M0 0 C2.19439602 1.35370731 2.19439602 1.35370731 4 4 C4.61239512 7.71164557 4.54325287 11.39882546 4.5146637 15.15318298 C4.52160922 16.30463462 4.52855475 17.45608626 4.53571075 18.64243037 C4.55085802 21.83918208 4.54802168 25.03533815 4.53755772 28.23209035 C4.53057538 31.6793603 4.54655627 35.12653436 4.55955505 38.57377625 C4.58121689 45.32743064 4.58106258 52.08091669 4.57292951 58.83459442 C4.56663393 64.32312694 4.56776247 69.8116103 4.57420158 75.30014229 C4.57510324 76.08080858 4.57600489 76.86147488 4.57693387 77.66579773 C4.57878504 79.25163695 4.5806476 80.83747616 4.58252143 82.42331535 C4.59910761 97.30067217 4.59037388 112.17793421 4.57353585 127.05528534 C4.5588393 140.67024097 4.57346514 154.28497591 4.60230602 167.89990311 C4.63168958 181.87494136 4.64267528 195.84987772 4.63312382 209.82494551 C4.63210125 211.40531097 4.63110664 212.98567645 4.6301403 214.56604195 C4.62966391 215.34363753 4.62918752 216.12123311 4.6286967 216.9223922 C4.62653112 222.40442087 4.63634428 227.88635322 4.65091133 233.36836052 C4.66841592 240.04914686 4.6683446 246.72965183 4.64555968 253.41042703 C4.63439987 256.81977024 4.63129325 260.22861739 4.64986038 263.63793945 C4.66570309 267.33238229 4.65092029 271.02545618 4.62818909 274.71983337 C4.64002482 275.79978811 4.65186054 276.87974284 4.66405493 277.99242347 C4.64542187 279.47713247 4.64542187 279.47713247 4.62641239 280.99183559 C4.62600786 282.27070885 4.62600786 282.27070885 4.62559515 283.57541794 C3.67897808 287.24416563 1.98189635 288.72352521 -1 291 C-4.35958767 291.62674582 -4.35958767 291.62674582 -8.2855072 291.6292057 C-9.37584997 291.64010651 -9.37584997 291.64010651 -10.48821986 291.65122753 C-12.93139138 291.66951965 -15.37300126 291.65210417 -17.81616211 291.63491821 C-19.58233666 291.64067778 -21.34850523 291.64861778 -23.11466122 291.65855443 C-27.97374745 291.67947375 -32.83234422 291.66908952 -37.69143248 291.65362334 C-42.92942379 291.64233454 -48.16732951 291.65976026 -53.40530396 291.67352295 C-63.66875556 291.69578631 -73.93202461 291.69094035 -84.19548345 291.67645974 C-92.53486841 291.66517969 -100.87420213 291.66363126 -109.21359253 291.66907883 C-110.99219285 291.67022807 -110.99219285 291.67022807 -112.80672449 291.67140054 C-115.21532418 291.67299912 -117.62392385 291.67462019 -120.03252351 291.6762635 C-142.63174209 291.69053008 -165.23085935 291.67411399 -187.83006132 291.64726166 C-207.2321359 291.62492209 -226.63406093 291.62880196 -246.03613281 291.65185547 C-268.5530484 291.6785974 -291.06987514 291.6891567 -313.58680439 291.67379415 C-315.98667207 291.67220136 -318.38653976 291.67062951 -320.78640747 291.66907883 C-321.96726817 291.66830745 -323.14812886 291.66753607 -324.36477321 291.66674132 C-332.69664414 291.6624195 -341.02845883 291.66972125 -349.36032104 291.68147659 C-359.51052915 291.69548226 -369.66054387 291.69174232 -379.81072974 291.66507287 C-384.99212399 291.65190871 -390.1731955 291.64682659 -395.35458755 291.66331863 C-400.09442615 291.67817736 -404.83364173 291.67009758 -409.5734235 291.64343087 C-411.29138035 291.63782855 -413.00938944 291.6407254 -414.72731292 291.65280981 C-417.05712843 291.66794598 -419.38479101 291.65249712 -421.7144928 291.6292057 C-423.65782297 291.62798806 -423.65782297 291.62798806 -425.64041233 291.62674582 C-429.88841654 290.834262 -431.3652118 289.3606199 -434 286 C-434.75 282.6875 -434.75 282.6875 -434 279 C-429.48839063 272.73566484 -423.50532365 267.36333176 -418.05413818 261.92715454 C-417.1763937 261.04785007 -416.29864922 260.1685456 -415.39430642 259.26259553 C-412.97777437 256.84278346 -410.55904424 254.42520875 -408.13931799 252.00859332 C-405.52269824 249.39424701 -402.9089711 246.77701138 -400.29486084 244.16015625 C-395.18277667 239.04363709 -390.068007 233.9298108 -384.95225307 228.81696112 C-380.79585871 224.66282849 -376.64044549 220.50771677 -372.4857254 216.35190964 C-371.59755634 215.46351073 -371.59755634 215.46351073 -370.69144447 214.55716436 C-369.48851217 213.35391233 -368.28558211 212.15065806 -367.08265427 210.94740157 C-355.81784817 199.67974766 -344.54998534 188.41515456 -333.28106645 177.15161411 C-323.60914053 167.4841614 -313.93984756 157.81408174 -304.27246094 148.14208984 C-293.04045807 136.90473886 -281.80683932 125.66900733 -270.57062554 114.43586671 C-269.37341878 113.2389785 -268.1762141 112.04208819 -266.97901154 110.84519577 C-266.09546272 109.96187836 -266.09546272 109.96187836 -265.19406442 109.06071616 C-261.04017294 104.90768869 -256.88744416 100.75350078 -252.73516083 96.59886551 C-247.67991165 91.54081578 -242.62289284 86.48454346 -237.56357643 81.43056186 C-234.98170654 78.85132461 -232.4006511 76.27128587 -229.82174683 73.6890831 C-227.02984181 70.89366105 -224.23409296 68.10210419 -221.43792725 65.3109436 C-220.61877767 64.48956331 -219.7996281 63.66818301 -218.95565581 62.82191241 C-218.20855291 62.07741725 -217.46145 61.33292209 -216.69170761 60.56586647 C-216.04656008 59.92088129 -215.40141254 59.2758961 -214.73671508 58.61136591 C-211.36394055 55.48202479 -208.79451558 54.36552216 -204.15467834 54.50007629 C-201.50307188 55.11529616 -200.33452226 56.09824119 -198.33764648 57.9362793 C-197.64242889 58.57399261 -196.9472113 59.21170593 -196.23092651 59.8687439 C-192.19701049 63.72243791 -188.22528178 67.63254891 -184.28515625 71.58203125 C-183.38880966 72.47742111 -182.49246307 73.37281097 -181.56895447 74.29533386 C-179.68950398 76.17410776 -177.81107813 78.05383991 -175.93432617 79.93530273 C-173.52795724 82.34741773 -171.11705876 84.75494807 -168.70484257 87.16121387 C-166.39585567 89.46573023 -164.09066856 91.7740396 -161.78515625 94.08203125 C-160.91858902 94.94657425 -160.05202179 95.81111725 -159.15919495 96.70185852 C-157.9667643 97.89901741 -157.9667643 97.89901741 -156.75024414 99.12036133 C-155.69722862 100.17457024 -155.69722862 100.17457024 -154.62294006 101.25007629 C-151.80386296 104.28972635 -151.59262012 106.89622938 -151.66015625 111.0234375 C-152 113 -152 113 -154.0625 115.5 C-157.94814118 117.4841572 -159.64966792 117.71756088 -164 117 C-167.48430633 114.45054757 -170.34083725 111.35209852 -173.29296875 108.21484375 C-174.16141922 107.32463028 -175.02986969 106.43441681 -175.92463684 105.51722717 C-178.22561963 103.15624473 -180.51195758 100.78234624 -182.78997803 98.39923096 C-186.00671909 95.03469711 -189.23490645 91.68184317 -192.48249817 88.34706116 C-194.21024042 86.5720595 -195.9257176 84.78502335 -197.62773132 82.9853363 C-198.40566544 82.18443069 -199.18359955 81.38352509 -199.98510742 80.55834961 C-200.66570724 79.84553329 -201.34630707 79.13271698 -202.04753113 78.39830017 C-203.86148439 76.76946205 -203.86148439 76.76946205 -205.90093064 77.21457905 C-208.39715492 78.14860576 -209.65688311 79.28411361 -211.53757858 81.1684351 C-212.225019 81.8499029 -212.91245941 82.5313707 -213.62073135 83.23348904 C-214.36760082 83.9890965 -215.11447029 84.74470396 -215.88397217 85.52320862 C-216.68175583 86.31842422 -217.47953949 87.11363983 -218.30149841 87.93295288 C-220.99303314 90.61950478 -223.67362972 93.31671728 -226.35449219 96.01391602 C-228.30590488 97.9679142 -230.25957414 99.91965058 -232.21315384 101.8714819 C-236.92334569 106.58007733 -241.62576352 111.29636113 -246.32552893 116.01536098 C-251.76091946 121.47233043 -257.20587156 126.91968669 -262.65087891 132.36706543 C-277.02543242 146.7573774 -291.38691398 161.16074221 -305.75 175.5625 C-337.8425 207.716875 -369.935 239.87125 -403 273 C-209.95 273.495 -209.95 273.495 -13 274 C-13.495 153.22 -13.495 153.22 -14 30 C-30.08878906 46.15839844 -46.17757813 62.31679687 -62.75390625 78.96484375 C-72.92869009 89.17027016 -83.10420463 99.37495177 -93.28320312 109.57617188 C-98.62856661 114.9332829 -103.97374211 120.29058139 -109.31860352 125.64819336 C-109.98851871 126.31969105 -110.65843391 126.99118873 -111.34864956 127.68303484 C-122.16894012 138.52943361 -132.97858225 149.38638543 -143.78434182 160.2472586 C-154.87112271 171.39011433 -165.96923911 182.52158457 -177.07799858 193.64252955 C-183.93442034 200.50719113 -190.78180686 207.38061849 -197.61796349 214.26546229 C-202.30424677 218.98341895 -207.00147793 223.69028808 -211.70752359 228.38853186 C-214.42389357 231.10105222 -217.13511669 233.81824805 -219.83346939 236.54870224 C-222.75768759 239.50745391 -225.70457595 242.44252754 -228.65431213 245.37583923 C-229.93108593 246.6788286 -229.93108593 246.6788286 -231.23365313 248.00814098 C-237.71342088 254.3904428 -237.71342088 254.3904428 -241.90441799 255.1288538 C-245 255 -245 255 -247.875 253.5625 C-250.14209065 250.82865539 -251.15843546 248.69811086 -251.38476628 245.11864525 C-250.89656908 242.43047655 -249.94277735 241.35047531 -248.09373951 239.35167599 C-247.45167612 238.65434349 -246.80961272 237.95701099 -246.14809287 237.23854721 C-242.22772881 233.1531 -238.25894298 229.1219411 -234.25016785 225.1231842 C-233.27601289 224.14787494 -232.30207569 223.17234814 -231.32833558 222.1966247 C-228.67087896 219.53501776 -226.01034217 216.87650907 -223.34925616 214.21853149 C-220.47294054 211.34448716 -217.59951471 208.46755606 -214.72570801 205.59100342 C-209.10461721 199.96547544 -203.4808379 194.34264266 -197.85607674 188.72078479 C-193.28682145 184.15379025 -188.71854602 179.58581772 -184.15096474 175.01714897 C-183.50028072 174.36631172 -182.8495967 173.71547447 -182.17919499 173.04491488 C-180.85731996 171.72272012 -179.53544716 170.40052312 -178.21357659 169.07832389 C-165.83239465 156.69429353 -153.44815467 144.31332492 -141.06286011 131.93340778 C-130.42924561 121.30426707 -119.79826455 110.67249837 -109.16918945 100.03881836 C-96.82347732 87.68776011 -84.47615171 75.33831856 -72.12622911 62.99147028 C-70.81080278 61.67636251 -69.49537855 60.36125265 -68.17995644 59.04614067 C-67.20912707 58.07554272 -67.20912707 58.07554272 -66.218685 57.08533673 C-61.65104786 52.51856417 -57.08457447 47.9506299 -52.51854515 43.38224983 C-46.96114455 37.82205091 -41.40197856 32.26362445 -35.84050944 26.70749486 C-33.00155332 23.87117435 -30.16341653 21.03404631 -27.327425 18.19476128 C-24.73483145 15.59920228 -22.13996684 13.00593713 -19.54321984 10.41453367 C-18.15254481 9.02551632 -16.76434218 7.63402501 -15.37620991 6.24246651 C-14.14881517 5.01898338 -14.14881517 5.01898338 -12.89662457 3.77078342 C-12.18730429 3.06162551 -11.47798402 2.35246759 -10.7471692 1.62182003 C-7.16006741 -1.7079282 -4.65219071 -1.0427324 0 0 Z " fill="#020302" transform="translate(471,129)"/>
<path d="M0 0 C5 5 10 10 15 15 C13.48627863 18.5638108 11.40912487 20.82433019 8.66612244 23.53401184 C7.30107323 24.8901786 7.30107323 24.8901786 5.90844727 26.27374268 C4.89728533 27.26825816 3.88605248 28.26270155 2.87475586 29.25708008 C1.81158532 30.30986172 0.74889886 31.36313241 -0.31333923 32.41685486 C-2.60029421 34.68394024 -4.89012032 36.94807179 -7.18205452 39.21012306 C-10.80638064 42.78830111 -14.42092306 46.37625168 -18.03355408 49.9662323 C-28.30724027 60.17306733 -38.58906419 70.37160087 -48.8918457 80.54907227 C-54.58290869 86.17107946 -60.26318882 91.80374845 -65.93169302 97.44850272 C-68.93108743 100.43435741 -71.93590689 103.41427323 -74.9542408 106.38099098 C-77.79307024 109.1712742 -80.61770542 111.9751662 -83.43212318 114.79006386 C-84.46654052 115.81964167 -85.50610994 116.84407327 -86.55116653 117.86285019 C-87.97896344 119.25622652 -89.38657382 120.67019851 -90.79310608 122.08503723 C-91.58601579 122.86981854 -92.3789255 123.65459986 -93.19586277 124.46316242 C-95.47733453 127.67119072 -95.79397629 130.10243041 -96 134 C-95.18028284 136.84902067 -95.18028284 136.84902067 -94 139 C-94.41507812 139.34289062 -94.83015625 139.68578125 -95.2578125 140.0390625 C-95.87398438 140.56242188 -96.49015625 141.08578125 -97.125 141.625 C-97.84800293 142.23069824 -98.57100586 142.83639648 -99.31591797 143.46044922 C-101.40111478 145.43336328 -102.98129125 147.20522104 -104.69921875 149.45898438 C-109.40096683 155.32676521 -113.71900743 160.05740408 -121.44873047 161.13818359 C-127.60901782 161.54416498 -133.71978315 161.22724209 -139.875 160.875 C-142.02713918 160.80463474 -144.17950159 160.74078104 -146.33203125 160.68359375 C-151.55980068 160.53069893 -156.77836478 160.29184362 -162 160 C-158.07967057 155.30714817 -154.00342695 150.8619459 -149.66654968 146.55302429 C-149.05776295 145.9440887 -148.44897622 145.33515311 -147.8217414 144.70776492 C-145.79978693 142.68649989 -143.77429098 140.66882288 -141.7487793 138.65112305 C-140.29118448 137.19544908 -138.83381842 135.73954603 -137.37666321 134.28343201 C-134.24827007 131.15819109 -131.11833233 128.03450839 -127.98718834 124.91202354 C-123.03955726 119.97793798 -118.0957635 115.04001959 -113.15254211 110.10151672 C-102.66715358 99.62721293 -92.17753441 89.15715061 -81.6875 78.6875 C-70.34521158 67.3672251 -59.00365075 56.04622694 -47.66694385 44.72036201 C-42.7487313 39.80714255 -37.82808824 34.89637403 -32.90559518 29.98744333 C-29.85242779 26.94171037 -26.80131122 23.89392943 -23.75076103 20.84557533 C-22.33139469 19.4280882 -20.91116067 18.01146931 -19.49001694 16.59576416 C-17.55722812 14.67014243 -15.62750122 12.7415044 -13.6985321 10.8120575 C-12.84524992 9.96416775 -12.84524992 9.96416775 -11.97472972 9.09914893 C-9.13567019 6.31587105 -9.13567019 6.31587105 -7 3 C-4.69034152 1.94647157 -2.3570226 0.94280904 0 0 Z " fill="#9FD655" transform="translate(317,243)"/>
<path d="M0 0 C4.83110985 4.05421516 4.83110985 4.05421516 5.625 8.5 C4.82883761 12.95850936 3.69186542 14.40783917 0 17 C-3.69177763 17.46986261 -6.18868155 17.30483749 -9.671875 15.99609375 C-17.48124406 13.65878259 -28.45687722 13.4204608 -36.0625 16.5625 C-38.0814789 17.65756601 -38.0814789 17.65756601 -40 19 C-41.14855469 19.74636719 -41.14855469 19.74636719 -42.3203125 20.5078125 C-49.67122777 25.72380848 -54.66904435 32.23266683 -57 41 C-58.52097422 53.73047538 -56.93465743 65.0431018 -48.875 75.375 C-41.76209563 82.81333137 -32.33423236 86.4721473 -22.25 87.3125 C-12.10384958 86.95440057 -3.57487023 83.76472368 4 77 C11.24690512 69.20153339 15.50096663 58.8458651 15.26953125 48.13671875 C14.95155153 45.61592301 14.27235897 43.35707004 13.5 40.9375 C12.17468719 36.78315407 11.31051512 33.39546613 12 29 C14.59216083 25.30813458 16.04149064 24.17116239 20.5 23.375 C23.83708817 23.9709086 25.66386595 24.47066349 27.8671875 27.08984375 C34.07122164 37.5511289 35.02719155 51.3908479 32.08203125 63.06640625 C27.73058853 77.93507106 19.44227795 89.66299094 6.1875 97.875 C-7.48123806 105.23107659 -21.88885761 107.59358291 -36.9375 103.375 C-50.82355388 98.41816236 -62.76822842 88.9546239 -70 76 C-76.5758276 61.51609922 -78.26028217 47.23875635 -73 32 C-67.77554774 18.37022149 -58.07502033 7.58348422 -45 1 C-41.38631851 -0.53593242 -37.75896214 -1.86682827 -34 -3 C-33.37609375 -3.19207031 -32.7521875 -3.38414063 -32.109375 -3.58203125 C-21.62258656 -5.65996896 -9.79795045 -4.11986109 0 0 Z " fill="#040404" transform="translate(140,123)"/>
<path d="M0 0 C5.169545 1.40987591 8.75341352 4.86322045 12 9 C12.703125 11.2265625 12.703125 11.2265625 13 13 C12.34 13 11.68 13 11 13 C9.23063796 18.30808611 9.79502794 22.70999132 11.5 27.9375 C14.25103457 36.64910947 13.10513655 44.48556197 10 53 C5.20718206 61.81779424 -2.12420976 69.69542479 -11.83203125 72.94921875 C-22.79596268 75.66505498 -32.49297936 76.18016833 -42.71484375 70.48828125 C-52.04484459 64.24489723 -58.16863533 57.06039476 -61 46 C-62.17865705 36.74241302 -62.34463896 26.98376193 -57 19 C-56.56429687 18.30777344 -56.12859375 17.61554688 -55.6796875 16.90234375 C-52.21553907 11.83862952 -48.17428121 8.25681014 -43 5 C-42.37996094 4.58492187 -41.75992188 4.16984375 -41.12109375 3.7421875 C-33.74971083 -0.38347887 -24.20993941 0.07369454 -16 1 C-13.98203642 1.61013722 -11.97607789 2.2654521 -10 3 C-5.18471421 3.55146455 -5.18471421 3.55146455 -1.0625 1.5 C-0.5365625 0.7575 -0.5365625 0.7575 0 0 Z " fill="#FDFDFD" transform="translate(143,136)"/>
</svg>
