<?xml version="1.0" encoding="UTF-8"?>
<svg version="1.1" xmlns="http://www.w3.org/2000/svg" width="329" height="110">
<path d="M0 0 C108.57 0 217.14 0 329 0 C329 36.3 329 72.6 329 110 C220.43 110 111.86 110 0 110 C0 73.7 0 37.4 0 0 Z " fill="#FDFDFD" transform="translate(0,0)"/>
<path d="M0 0 C6.00441145 2.36990037 9.73565053 5.44005106 12.66796875 11.3046875 C13.46649101 20.43065613 13.53161295 28.78575618 7.66796875 36.3046875 C0.79539919 42.82961735 -5.30281356 43.82588396 -14.6328125 43.671875 C-19.67601917 43.17128215 -21.76161857 41.78801694 -25.33203125 38.3046875 C-25.40550781 39.33916016 -25.40550781 39.33916016 -25.48046875 40.39453125 C-25.96931176 46.53878219 -26.86028724 52.3195952 -28.33203125 58.3046875 C-32.29203125 58.3046875 -36.25203125 58.3046875 -40.33203125 58.3046875 C-39.75806013 50.88550978 -38.79204789 43.74288506 -37.30078125 36.45703125 C-37.10480347 35.478517 -36.90882568 34.50000275 -36.70690918 33.49183655 C-36.29612173 31.44688501 -35.88256066 29.40248879 -35.46630859 27.35864258 C-34.82756315 24.22023398 -34.19828203 21.08003383 -33.5703125 17.93945312 C-33.16851661 15.94520204 -32.76619219 13.95105735 -32.36328125 11.95703125 C-32.17471558 11.01754135 -31.9861499 10.07805145 -31.79187012 9.11009216 C-31.61498657 8.244814 -31.43810303 7.37953583 -31.25585938 6.48803711 C-31.10121216 5.72623642 -30.94656494 4.96443573 -30.78723145 4.17955017 C-30.33203125 2.3046875 -30.33203125 2.3046875 -29.33203125 0.3046875 C-25.70203125 0.3046875 -22.07203125 0.3046875 -18.33203125 0.3046875 C-18.00203125 1.2946875 -17.67203125 2.2846875 -17.33203125 3.3046875 C-16.34203125 2.6446875 -15.35203125 1.9846875 -14.33203125 1.3046875 C-9.48203236 -1.42221951 -5.24286268 -1.56319859 0 0 Z " fill="#040404" transform="translate(179.33203125,33.6953125)"/>
<path d="M0 0 C3.96 0 7.92 0 12 0 C14.93072871 9.36125968 16.8745682 18.25612995 18 28 C18.66 28 19.32 28 20 28 C20.27328125 27.27312988 20.5465625 26.54625977 20.828125 25.79736328 C21.95510614 23.10716539 23.24181631 20.73504892 24.75 18.2421875 C25.2759375 17.36949219 25.801875 16.49679688 26.34375 15.59765625 C26.8903125 14.69917969 27.436875 13.80070312 28 12.875 C28.5465625 11.96878906 29.093125 11.06257813 29.65625 10.12890625 C31.72079238 6.71330305 33.78584787 3.32122819 36 0 C38.8203125 -0.29296875 38.8203125 -0.29296875 42.125 -0.1875 C43.76855469 -0.14689453 43.76855469 -0.14689453 45.4453125 -0.10546875 C46.70988281 -0.05326172 46.70988281 -0.05326172 48 0 C46.60668284 3.76967565 44.86986228 7.05424398 42.76171875 10.47265625 C42.11267578 11.52799561 41.46363281 12.58333496 40.79492188 13.6706543 C40.09947266 14.78996338 39.40402344 15.90927246 38.6875 17.0625 C38.33196045 17.63569977 37.9764209 18.20889954 37.61010742 18.79946899 C35.78520223 21.74058877 33.95495092 24.67828495 32.11865234 27.61230469 C30.77625283 29.75878263 29.43757023 31.90759334 28.10400391 34.05957031 C26.41655023 36.77790986 24.71171856 39.48439284 23 42.1875 C22.50975342 42.98099854 22.01950684 43.77449707 21.5144043 44.59204102 C17.66918409 50.58649815 12.95523162 56.68158946 6 59 C4.04524991 59.1447963 2.0848862 59.22067502 0.125 59.25 C-1.41800781 59.28867188 -1.41800781 59.28867188 -2.9921875 59.328125 C-6.3748189 58.95911067 -8.23935854 57.93550508 -11 56 C-9.75522355 52.55292675 -8.56007478 49.65809566 -6 47 C-3.66015625 46.93359375 -3.66015625 46.93359375 -1.0625 47.4375 C2.69085011 48.17736429 2.69085011 48.17736429 6.15625 46.83227539 C8.23135787 45.14690024 8.23135787 45.14690024 8.29711914 42.609375 C7.34480327 34.21695704 5.54155645 26.1745718 3.4375 18 C2.78436255 15.4389384 2.13900889 12.87617402 1.49609375 10.3125 C1.06574829 8.63607422 1.06574829 8.63607422 0.62670898 6.92578125 C0 4 0 4 0 0 Z " fill="#050505" transform="translate(254,34)"/>
<path d="M0 0 C3.30387804 2.25264412 6.02374287 4.23114721 7.75 7.875 C8.78143061 15.91248692 7.01808636 23.75902697 5.25 31.5625 C5.01152344 32.65755859 4.77304688 33.75261719 4.52734375 34.88085938 C3.94504052 37.54780815 3.34896524 40.21174383 2.75 42.875 C-1.21 42.875 -5.17 42.875 -9.25 42.875 C-8.81334233 37.78066053 -8.30448352 32.86577743 -7.1875 27.875 C-6.1670498 22.98920815 -5.36315189 17.83372061 -6.25 12.875 C-10.01875875 10.36249417 -11.78150134 10.34483914 -16.25 10.875 C-20.08236165 12.93857935 -21.65039023 14.28440338 -23.18359375 18.3515625 C-24.00534628 21.51083906 -24.64708237 24.66661689 -25.25 27.875 C-25.52895638 29.24786388 -25.81029612 30.62024516 -26.09375 31.9921875 C-26.83729187 35.61509422 -27.55045396 39.24331418 -28.25 42.875 C-32.54 42.875 -36.83 42.875 -41.25 42.875 C-38.93875074 28.45427987 -36.41137766 14.13483114 -33.25 -0.125 C-29.29 -0.125 -25.33 -0.125 -21.25 -0.125 C-20.92 0.865 -20.59 1.855 -20.25 2.875 C-19.115625 2.215 -17.98125 1.555 -16.8125 0.875 C-11.05452337 -1.98870165 -6.04397819 -2.0921463 0 0 Z " fill="#060606" transform="translate(103.25,34.125)"/>
<path d="M0 0 C-0.66241789 3.55079859 -1.57481771 6.67457466 -3 10 C-4.27810547 9.51080078 -4.27810547 9.51080078 -5.58203125 9.01171875 C-9.14392182 7.95739914 -11.98573942 7.76520689 -15.6875 7.8125 C-16.80511719 7.81894531 -17.92273438 7.82539062 -19.07421875 7.83203125 C-22.06281151 7.8757518 -22.06281151 7.8757518 -25 9 C-24.52156376 11.01915368 -24.52156376 11.01915368 -23 13 C-20.51193622 13.8480028 -18.24208137 14.47398515 -15.6875 15 C-10.58188986 16.06965256 -6.85038909 17.3013148 -3 21 C-1.46785112 24.06429776 -1.77061452 26.6165642 -2 30 C-4.38369734 35.39468345 -8.65573662 38.70021199 -14 41 C-17.05286066 41.40794254 -20.11002846 41.32441894 -23.1875 41.3125 C-24.00025391 41.32861328 -24.81300781 41.34472656 -25.65039062 41.36132812 C-31.5934746 41.36605612 -36.48735826 40.19063481 -42 38 C-40.94124926 34.59687262 -39.99097846 31.98646769 -38 29 C-35.23723823 29.52268466 -32.6739124 30.10869587 -30 31 C-28.00179272 31.09435979 -26.00042797 31.12990301 -24 31.125 C-22.948125 31.12757812 -21.89625 31.13015625 -20.8125 31.1328125 C-17.91873122 31.12353635 -17.91873122 31.12353635 -15 30 C-15 29.01 -15 28.02 -15 27 C-18.122287 25.5899349 -21.09049347 24.75821745 -24.4375 24.125 C-29.99720779 22.94819518 -33.80476441 20.79285339 -37 16 C-37.52463789 12.06521582 -37.86425659 9.50499855 -35.8671875 6.02734375 C-26.60144013 -5.39717723 -12.7438017 -4.64416201 0 0 Z " fill="#080808" transform="translate(59,36)"/>
<path d="M0 0 C0.94746094 -0.01417969 1.89492187 -0.02835938 2.87109375 -0.04296875 C5.60751644 0.19135482 7.22678123 0.79048617 9.5625 2.1875 C8.50374926 5.59062738 7.55347846 8.20103231 5.5625 11.1875 C3.3984375 11.48046875 3.3984375 11.48046875 0.9375 11.375 C0.12023437 11.34792969 -0.69703125 11.32085937 -1.5390625 11.29296875 C-2.16554687 11.25816406 -2.79203125 11.22335938 -3.4375 11.1875 C-4.4275 13.4975 -5.4175 15.8075 -6.4375 18.1875 C-3.1375 18.1875 0.1625 18.1875 3.5625 18.1875 C3.2325 21.1575 2.9025 24.1275 2.5625 27.1875 C-1.0675 27.1875 -4.6975 27.1875 -8.4375 27.1875 C-8.685 28.92 -8.9325 30.6525 -9.1875 32.4375 C-10.61066927 41.74997719 -12.54264903 50.96159939 -14.4375 60.1875 C-18.7275 60.1875 -23.0175 60.1875 -27.4375 60.1875 C-26.62543937 55.79158508 -25.8128695 51.39576535 -25 47 C-24.76990234 45.75412109 -24.53980469 44.50824219 -24.30273438 43.22460938 C-24.08037109 42.02255859 -23.85800781 40.82050781 -23.62890625 39.58203125 C-23.42467041 38.47706299 -23.22043457 37.37209473 -23.01000977 36.23364258 C-22.50512741 33.54732398 -21.98025276 30.8663881 -21.4375 28.1875 C-23.4175 28.1875 -25.3975 28.1875 -27.4375 28.1875 C-27.1075 24.8875 -26.7775 21.5875 -26.4375 18.1875 C-23.7975 18.1875 -21.1575 18.1875 -18.4375 18.1875 C-18.355 17.15625 -18.2725 16.125 -18.1875 15.0625 C-16.94836261 8.66029016 -13.73295585 4.85358482 -8.4375 1.1875 C-5.3864365 0.17047883 -3.19550939 0.02167917 0 0 Z " fill="#050505" transform="translate(249.4375,16.8125)"/>
<path d="M0 0 C3.96 0 7.92 0 12 0 C11.38572908 7.93177322 10.01166368 15.62252642 8.41601562 23.40698242 C7.99597832 25.45712929 7.58337168 27.50867036 7.171875 29.56054688 C5.15651531 39.53045406 5.15651531 39.53045406 4 43 C0.04 43 -3.92 43 -8 43 C-7.41087113 33.53245007 -5.53081018 24.53109618 -3.4375 15.3125 C-3.10418648 13.82110447 -2.77149972 12.32956873 -2.43945312 10.83789062 C-1.63350993 7.22361776 -0.81914166 3.61130744 0 0 Z " fill="#050505" transform="translate(205,34)"/>
<path d="M0 0 C3.96 0 7.92 0 12 0 C9.90217304 14.46306716 7.080873 28.71595248 4 43 C0.04 43 -3.92 43 -8 43 C-7.42523453 34.67308528 -6.09517528 26.62865456 -4.41601562 18.46264648 C-3.99448698 16.41066283 -3.58256458 14.35691217 -3.171875 12.30273438 C-1.14808914 2.29617828 -1.14808914 2.29617828 0 0 Z " fill="#040404" transform="translate(126,34)"/>
<path d="M0 0 C3.125 1.9375 3.125 1.9375 5 5 C5.96911862 9.74955433 5.47964432 13.07497168 3.25 17.375 C-1.32914573 22.71733668 -1.32914573 22.71733668 -5.078125 23.3515625 C-9.22989797 23.61276676 -11.4587103 23.33140186 -15.0625 21.125 C-17.79496981 16.71779062 -17.8901343 13.05758123 -17 8 C-13.00464975 0.28484089 -8.25435108 -1.23552389 0 0 Z " fill="#FAFAFA" transform="translate(175,44)"/>
<path d="M0 0 C2.375 1.5625 2.375 1.5625 4 4 C4.55802097 7.90614682 4.58392818 10.05111671 2.5 13.4375 C-1.24892004 15.78057502 -3.61035762 15.48773804 -8 15 C-10 14 -10 14 -11 12 C-11.39281877 8.90655222 -11.63008105 6.95424795 -11 4 C-7.74010218 0.16482609 -4.95707565 -0.84375756 0 0 Z " fill="#060606" transform="translate(309,62)"/>
<path d="M0 0 C2.875 1.6875 2.875 1.6875 5 4 C5.625 6.4375 5.625 6.4375 5 9 C2.3428669 12.62336332 0.91399461 13.85568506 -3.5625 14.5625 C-7 14 -7 14 -9.5 12.4375 C-11 10 -11 10 -11 6.4375 C-10 3 -10 3 -8.3125 1.0625 C-5.24716836 -0.34589562 -3.34404315 -0.47772045 0 0 Z " fill="#0C0C0C" transform="translate(217,14)"/>
<path d="M0 0 C2.375 1.0625 2.375 1.0625 4 3 C4.5625 6.4375 4.5625 6.4375 4 10 C1.41830549 12.96135546 -0.18881135 13.86756104 -4.0625 14.5 C-7 14 -7 14 -9.375 12.375 C-11 10 -11 10 -11.5625 7 C-11 4 -11 4 -8.875 1.625 C-5.51718047 -0.27289799 -3.79721069 -0.56554202 0 0 Z " fill="#080808" transform="translate(138,14)"/>
</svg>
