<?xml version="1.0" encoding="UTF-8"?>
<svg version="1.1" xmlns="http://www.w3.org/2000/svg" width="512" height="512">
<path d="M0 0 C0.85236242 -0.00445784 1.70472485 -0.00891569 2.58291644 -0.01350862 C3.51451738 -0.01332426 4.44611832 -0.01313989 5.40594959 -0.01294994 C6.89613117 -0.01846498 6.89613117 -0.01846498 8.41641742 -0.02409142 C11.7549591 -0.03512992 15.09346966 -0.03897239 18.43202686 -0.04278088 C20.82192553 -0.04904537 23.21182323 -0.05569216 25.60171986 -0.0626936 C32.77998302 -0.08192005 39.95824675 -0.0925214 47.13652846 -0.10142139 C50.51894724 -0.10580737 53.90136446 -0.11117336 57.28378201 -0.11641026 C68.53100955 -0.1334201 79.77823612 -0.1479138 91.02547455 -0.155159 C93.94289304 -0.15706881 96.86031153 -0.15898916 99.77772999 -0.16094494 C100.50281719 -0.16142868 101.2279044 -0.16191242 101.97496394 -0.16241082 C113.71835693 -0.17070943 125.461648 -0.19604456 137.20499649 -0.22852562 C149.268051 -0.26161833 161.33105376 -0.27960973 173.39415389 -0.28280324 C180.16456539 -0.28496623 186.93482824 -0.29368395 193.70519543 -0.31926441 C200.07539634 -0.34253243 206.44532986 -0.34678324 212.81556225 -0.33650303 C215.15161497 -0.33600727 217.48768079 -0.34233955 219.82369328 -0.35605907 C223.01736633 -0.37376394 226.21007833 -0.36667798 229.40375233 -0.35352612 C230.78442333 -0.36997998 230.78442333 -0.36997998 232.19298667 -0.38676625 C240.05863751 -0.30877433 246.94842897 1.90172669 252.77303028 7.38350391 C253.75290535 8.29399337 253.75290535 8.29399337 254.75257587 9.22287655 C255.40258816 9.85362024 256.05260044 10.48436394 256.72231007 11.13422108 C257.37222164 11.75636934 258.02213322 12.37851761 258.69173908 13.01951885 C260.78241831 15.04439223 262.84886875 17.09155369 264.91078663 19.14569569 C265.68581532 19.91415318 266.460844 20.68261066 267.25935841 21.47435474 C269.7967636 23.99221243 272.33028076 26.51392884 274.86293507 29.03656483 C276.16834877 30.33586524 276.16834877 30.33586524 277.50013447 31.66141415 C282.09831501 36.23882224 286.6932744 40.81943688 291.28578663 45.40253162 C295.07778808 49.18645074 298.87627054 52.96373141 302.68031788 56.73553944 C307.28906518 61.30585421 311.88791975 65.88590159 316.47974873 70.47321224 C318.22584515 72.21444557 319.97531177 73.95230626 321.72823811 75.68666363 C324.17882989 78.11288183 326.61645769 80.55145349 329.05141163 82.99335194 C329.77252125 83.7016515 330.49363087 84.40995106 331.23659229 85.13971424 C338.42556575 92.40352084 341.84039567 99.21925021 341.85653114 109.48343468 C341.86098899 110.79785532 341.86544683 112.11227595 341.87003976 113.46652752 C341.86995047 114.92888392 341.86976061 116.39124031 341.86948109 117.85359669 C341.87278047 119.40425996 341.87650619 120.95492238 341.88062257 122.5055837 C341.89064235 126.77370418 341.89435933 131.0418106 341.89701188 135.30994117 C341.90091501 139.91067565 341.91049337 144.51139898 341.91922474 149.11212635 C341.93898931 160.22666172 341.94905554 171.34119801 341.95795253 182.45574656 C341.96233561 187.68983927 341.96770238 192.92393097 341.9729414 198.15802288 C341.98995399 215.55764684 342.00444801 232.95727017 342.01169014 250.35690117 C342.01360003 254.87243685 342.01552037 259.38797253 342.01747608 263.90350819 C342.01795982 265.02582253 342.01844356 266.14813688 342.01894196 267.30446076 C342.02724169 285.48391241 342.05257752 303.66329825 342.08505676 321.84272117 C342.11813091 340.50731707 342.13613924 359.17187952 342.13933438 377.83650488 C342.14149919 388.31590762 342.15024358 398.7952144 342.17579556 409.27458858 C342.19750742 418.19968101 342.20555057 427.12465417 342.19582877 436.04977001 C342.19128545 440.6020278 342.1931722 445.15403953 342.21259022 449.70626354 C342.23023243 453.87828987 342.2292157 458.04989082 342.21369293 462.22192173 C342.21131845 463.72670374 342.21563211 465.23151529 342.22752158 466.7362522 C342.33118611 480.72914163 339.51692698 491.1190018 329.65199757 501.26312733 C322.34734304 508.1732796 314.49958283 512.24927351 304.35699081 512.26844215 C303.2620241 512.2729 302.16705738 512.27735784 301.03890985 512.28195077 C299.83630677 512.28176641 298.63370369 512.28158205 297.39465809 512.2813921 C296.11676617 512.28506879 294.83887426 512.28874547 293.52225834 512.29253358 C289.97243674 512.30254496 286.42263204 512.30626899 282.87279832 512.30892289 C279.04507599 512.31282854 275.21736701 512.32240675 271.38965321 512.33113575 C262.14387817 512.35089355 252.89810205 512.36096584 243.65231118 512.36986354 C239.29686496 512.37424786 234.94141995 512.37961433 230.58597469 512.38485241 C216.10470901 512.40186457 201.62344409 512.41635809 187.14216995 512.42360115 C183.38462225 512.42551101 179.62707455 512.42743134 175.86952686 512.42938709 C174.93562125 512.42987083 174.00171563 512.43035457 173.03950984 512.43085297 C157.91548555 512.43915084 142.79154041 512.4644837 127.66755068 512.49696777 C112.13534889 512.53005623 96.6031873 512.54805156 81.07095009 512.55124539 C72.3521166 512.55340891 63.63339852 512.56213435 54.91459942 512.58770657 C47.48818052 512.60943805 40.06190507 512.61745199 32.63545799 512.60773978 C28.84873201 512.60320204 25.06230184 512.60505025 21.27561665 512.62450123 C17.16315337 512.64544242 13.05134302 512.63512528 8.93884754 512.62196827 C7.75185951 512.63293752 6.56487148 512.64390676 5.34191412 512.65520841 C-7.1464821 512.55894577 -16.49870548 508.72662798 -25.40659618 500.06390858 C-33.11541924 491.91498697 -36.43534638 483.81386855 -36.41191101 472.67617416 C-36.41426324 471.91846294 -36.41661547 471.16075171 -36.41903898 470.38007954 C-36.42572633 467.82650903 -36.42527084 465.27298943 -36.42486095 462.7194109 C-36.42815975 460.87588694 -36.43188535 459.03236371 -36.43600243 457.1888414 C-36.44602886 452.1112094 -36.44974026 447.03358921 -36.45239174 441.95594871 C-36.4562929 436.48404142 -36.46587138 431.01214351 -36.47460461 425.5402422 C-36.49437451 412.3196439 -36.50443597 399.09904484 -36.5133324 385.87843546 C-36.5177145 379.65412206 -36.52308151 373.42980951 -36.52832127 367.20549679 C-36.54533419 346.51692954 -36.55985347 325.82836276 -36.56707001 305.13978958 C-36.56754476 303.80182779 -36.56802065 302.463866 -36.56849767 301.12590421 C-36.56873405 300.46239941 -36.56897042 299.79889462 -36.56921396 299.11528362 C-36.57041515 295.75367618 -36.5716306 292.39206874 -36.57285595 289.03046131 C-36.57321617 288.02978186 -36.57321617 288.02978186 -36.57358368 287.00888667 C-36.58147501 265.38366954 -36.60490325 243.75850728 -36.63741189 222.13331411 C-36.67172403 199.26663623 -36.69142132 176.39998229 -36.69471425 153.53327709 C-36.69688007 141.06973788 -36.70563937 128.60627932 -36.73117542 116.14276409 C-36.75287185 105.52868819 -36.76093801 94.91471253 -36.75120864 84.30061697 C-36.7466609 78.88561055 -36.74857795 73.47081098 -36.76797009 68.05583286 C-36.78558035 63.09554852 -36.7846212 58.13562226 -36.76907279 53.17533422 C-36.76669349 51.38387931 -36.77103695 49.59239973 -36.78290144 47.80098253 C-36.8746983 33.02138291 -34.78472584 21.88202215 -24.20737743 11.00531483 C-17.3769508 4.54377883 -9.59434117 0.02335298 0 0 Z " fill="#F3F3F3" transform="translate(103.27768993377686,-0.13422107696533203)"/>
<path d="M0 0 C0.85236242 -0.00445784 1.70472485 -0.00891569 2.58291644 -0.01350862 C3.51451738 -0.01332426 4.44611832 -0.01313989 5.40594959 -0.01294994 C6.89613117 -0.01846498 6.89613117 -0.01846498 8.41641742 -0.02409142 C11.7549591 -0.03512992 15.09346966 -0.03897239 18.43202686 -0.04278088 C20.82192553 -0.04904537 23.21182323 -0.05569216 25.60171986 -0.0626936 C32.77998302 -0.08192005 39.95824675 -0.0925214 47.13652846 -0.10142139 C50.51894724 -0.10580737 53.90136446 -0.11117336 57.28378201 -0.11641026 C68.53100955 -0.1334201 79.77823612 -0.1479138 91.02547455 -0.155159 C93.94289304 -0.15706881 96.86031153 -0.15898916 99.77772999 -0.16094494 C100.50281719 -0.16142868 101.2279044 -0.16191242 101.97496394 -0.16241082 C113.71835693 -0.17070943 125.461648 -0.19604456 137.20499649 -0.22852562 C149.268051 -0.26161833 161.33105376 -0.27960973 173.39415389 -0.28280324 C180.16456539 -0.28496623 186.93482824 -0.29368395 193.70519543 -0.31926441 C200.07539634 -0.34253243 206.44532986 -0.34678324 212.81556225 -0.33650303 C215.15161497 -0.33600727 217.48768079 -0.34233955 219.82369328 -0.35605907 C223.01736633 -0.37376394 226.21007833 -0.36667798 229.40375233 -0.35352612 C230.78442333 -0.36997998 230.78442333 -0.36997998 232.19298667 -0.38676625 C240.05863751 -0.30877433 246.94842897 1.90172669 252.77303028 7.38350391 C253.75290535 8.29399337 253.75290535 8.29399337 254.75257587 9.22287655 C255.40258816 9.85362024 256.05260044 10.48436394 256.72231007 11.13422108 C257.37222164 11.75636934 258.02213322 12.37851761 258.69173908 13.01951885 C260.78241831 15.04439223 262.84886875 17.09155369 264.91078663 19.14569569 C265.68581532 19.91415318 266.460844 20.68261066 267.25935841 21.47435474 C269.7967636 23.99221243 272.33028076 26.51392884 274.86293507 29.03656483 C276.16834877 30.33586524 276.16834877 30.33586524 277.50013447 31.66141415 C282.09831501 36.23882224 286.6932744 40.81943688 291.28578663 45.40253162 C295.07778808 49.18645074 298.87627054 52.96373141 302.68031788 56.73553944 C307.28906518 61.30585421 311.88791975 65.88590159 316.47974873 70.47321224 C318.22584515 72.21444557 319.97531177 73.95230626 321.72823811 75.68666363 C324.17882989 78.11288183 326.61645769 80.55145349 329.05141163 82.99335194 C329.77252125 83.7016515 330.49363087 84.40995106 331.23659229 85.13971424 C338.42556575 92.40352084 341.84039567 99.21925021 341.85653114 109.48343468 C341.86098899 110.79785532 341.86544683 112.11227595 341.87003976 113.46652752 C341.86995047 114.92888392 341.86976061 116.39124031 341.86948109 117.85359669 C341.87278047 119.40425996 341.87650619 120.95492238 341.88062257 122.5055837 C341.89064235 126.77370418 341.89435933 131.0418106 341.89701188 135.30994117 C341.90091501 139.91067565 341.91049337 144.51139898 341.91922474 149.11212635 C341.93898931 160.22666172 341.94905554 171.34119801 341.95795253 182.45574656 C341.96233561 187.68983927 341.96770238 192.92393097 341.9729414 198.15802288 C341.98995399 215.55764684 342.00444801 232.95727017 342.01169014 250.35690117 C342.01360003 254.87243685 342.01552037 259.38797253 342.01747608 263.90350819 C342.01795982 265.02582253 342.01844356 266.14813688 342.01894196 267.30446076 C342.02724169 285.48391241 342.05257752 303.66329825 342.08505676 321.84272117 C342.11813091 340.50731707 342.13613924 359.17187952 342.13933438 377.83650488 C342.14149919 388.31590762 342.15024358 398.7952144 342.17579556 409.27458858 C342.19750742 418.19968101 342.20555057 427.12465417 342.19582877 436.04977001 C342.19128545 440.6020278 342.1931722 445.15403953 342.21259022 449.70626354 C342.23023243 453.87828987 342.2292157 458.04989082 342.21369293 462.22192173 C342.21131845 463.72670374 342.21563211 465.23151529 342.22752158 466.7362522 C342.33118611 480.72914163 339.51692698 491.1190018 329.65199757 501.26312733 C322.34734304 508.1732796 314.49958283 512.24927351 304.35699081 512.26844215 C303.2620241 512.2729 302.16705738 512.27735784 301.03890985 512.28195077 C299.83630677 512.28176641 298.63370369 512.28158205 297.39465809 512.2813921 C296.11676617 512.28506879 294.83887426 512.28874547 293.52225834 512.29253358 C289.97243674 512.30254496 286.42263204 512.30626899 282.87279832 512.30892289 C279.04507599 512.31282854 275.21736701 512.32240675 271.38965321 512.33113575 C262.14387817 512.35089355 252.89810205 512.36096584 243.65231118 512.36986354 C239.29686496 512.37424786 234.94141995 512.37961433 230.58597469 512.38485241 C216.10470901 512.40186457 201.62344409 512.41635809 187.14216995 512.42360115 C183.38462225 512.42551101 179.62707455 512.42743134 175.86952686 512.42938709 C174.93562125 512.42987083 174.00171563 512.43035457 173.03950984 512.43085297 C157.91548555 512.43915084 142.79154041 512.4644837 127.66755068 512.49696777 C112.13534889 512.53005623 96.6031873 512.54805156 81.07095009 512.55124539 C72.3521166 512.55340891 63.63339852 512.56213435 54.91459942 512.58770657 C47.48818052 512.60943805 40.06190507 512.61745199 32.63545799 512.60773978 C28.84873201 512.60320204 25.06230184 512.60505025 21.27561665 512.62450123 C17.16315337 512.64544242 13.05134302 512.63512528 8.93884754 512.62196827 C7.75185951 512.63293752 6.56487148 512.64390676 5.34191412 512.65520841 C-7.1464821 512.55894577 -16.49870548 508.72662798 -25.40659618 500.06390858 C-33.11541924 491.91498697 -36.43534638 483.81386855 -36.41191101 472.67617416 C-36.41426324 471.91846294 -36.41661547 471.16075171 -36.41903898 470.38007954 C-36.42572633 467.82650903 -36.42527084 465.27298943 -36.42486095 462.7194109 C-36.42815975 460.87588694 -36.43188535 459.03236371 -36.43600243 457.1888414 C-36.44602886 452.1112094 -36.44974026 447.03358921 -36.45239174 441.95594871 C-36.4562929 436.48404142 -36.46587138 431.01214351 -36.47460461 425.5402422 C-36.49437451 412.3196439 -36.50443597 399.09904484 -36.5133324 385.87843546 C-36.5177145 379.65412206 -36.52308151 373.42980951 -36.52832127 367.20549679 C-36.54533419 346.51692954 -36.55985347 325.82836276 -36.56707001 305.13978958 C-36.56754476 303.80182779 -36.56802065 302.463866 -36.56849767 301.12590421 C-36.56873405 300.46239941 -36.56897042 299.79889462 -36.56921396 299.11528362 C-36.57041515 295.75367618 -36.5716306 292.39206874 -36.57285595 289.03046131 C-36.57321617 288.02978186 -36.57321617 288.02978186 -36.57358368 287.00888667 C-36.58147501 265.38366954 -36.60490325 243.75850728 -36.63741189 222.13331411 C-36.67172403 199.26663623 -36.69142132 176.39998229 -36.69471425 153.53327709 C-36.69688007 141.06973788 -36.70563937 128.60627932 -36.73117542 116.14276409 C-36.75287185 105.52868819 -36.76093801 94.91471253 -36.75120864 84.30061697 C-36.7466609 78.88561055 -36.74857795 73.47081098 -36.76797009 68.05583286 C-36.78558035 63.09554852 -36.7846212 58.13562226 -36.76907279 53.17533422 C-36.76669349 51.38387931 -36.77103695 49.59239973 -36.78290144 47.80098253 C-36.8746983 33.02138291 -34.78472584 21.88202215 -24.20737743 11.00531483 C-17.3769508 4.54377883 -9.59434117 0.02335298 0 0 Z M-16.80503368 25.87640858 C-20.4483874 31.46224001 -21.72293118 36.24624696 -21.66079998 42.87050056 C-21.6657595 43.62184268 -21.67071901 44.37318479 -21.67582881 45.14729485 C-21.68876722 47.6612834 -21.68040596 50.17473929 -21.67209911 52.68874073 C-21.67698885 54.51082078 -21.68317904 56.33289772 -21.690557 58.15496939 C-21.70696916 63.15939003 -21.70463597 68.16365326 -21.69918203 73.16809142 C-21.69651341 78.56632113 -21.71104051 83.96450873 -21.72327709 89.36272144 C-21.74434054 99.93768179 -21.74887141 110.51258733 -21.74708921 121.08756617 C-21.74578201 129.68285875 -21.74958356 138.27813422 -21.75701427 146.87342358 C-21.75911345 149.34851684 -21.76121105 151.82361011 -21.76330709 154.29870337 C-21.76435062 155.53059894 -21.76539415 156.76249451 -21.7664693 158.03172024 C-21.78537545 181.33496292 -21.78432035 204.63817412 -21.77749997 227.94142129 C-21.77192456 249.26088578 -21.79274923 270.58019219 -21.82586044 291.89963201 C-21.85959189 313.78825247 -21.87476643 335.67681535 -21.87014341 357.56546229 C-21.86789814 369.85511243 -21.87315048 382.1446515 -21.898036 394.43427944 C-21.91904205 404.8971904 -21.92264795 415.3599294 -21.90373641 425.8228474 C-21.8945743 431.16082747 -21.8934504 436.49848685 -21.91409206 441.83644199 C-21.93278714 446.72508848 -21.92831477 451.6131513 -21.90554625 456.50177547 C-21.90135681 458.26822052 -21.90557205 460.0347102 -21.91914219 461.8011081 C-21.99360259 472.20371898 -21.78452103 481.24699841 -14.28793001 489.26142627 C-6.46849704 496.77000784 0.68820806 497.57577696 11.15843678 497.52190113 C12.41171823 497.52728667 13.66499969 497.53267221 14.95625937 497.53822094 C18.42342661 497.55265266 21.89035568 497.54843805 25.35753584 497.54105413 C29.10133713 497.53631906 32.84508716 497.54883533 36.58887196 497.55907154 C43.91895063 497.57625858 51.24894358 497.57709971 58.57903717 497.57185864 C64.53799368 497.56781533 70.49692487 497.56926241 76.45588017 497.5746069 C77.30436913 497.57535532 78.1528581 497.57610374 79.02705885 497.57687484 C80.75083553 497.57840634 82.47461221 497.57994469 84.19838889 497.58148981 C100.36013604 497.59521464 116.52183478 497.5897774 132.68358083 497.5783046 C147.46281664 497.56837344 162.24192723 497.58131087 177.02114372 497.60523879 C192.20313842 497.62963327 207.38507482 497.63923673 222.56708872 497.63258606 C231.08794554 497.62909446 239.60870608 497.63132194 248.12954807 497.64883709 C255.38359313 497.66356348 262.6374741 497.6641889 269.89151596 497.64676618 C273.59091912 497.63825711 277.29002924 497.63610403 280.98941708 497.65141773 C285.00392064 497.66782979 289.01771801 497.65311022 293.03221607 497.63542652 C294.19574679 497.64503153 295.3592775 497.65463653 296.55806673 497.6645326 C305.81208284 497.58067186 313.30780845 495.34626199 320.16508847 488.92377508 C327.19742762 480.84223376 327.43276495 472.15566394 327.32358265 461.88504505 C327.32576597 460.35023385 327.33014927 458.81542448 327.33652848 457.28062499 C327.34766051 453.08439452 327.32777605 448.88880725 327.30263817 444.69265866 C327.28098211 440.15973236 327.28835723 435.62684034 327.29214954 431.09387684 C327.29476729 423.24730731 327.27912194 415.40094617 327.25096035 407.55442905 C327.21027046 396.20981399 327.19729751 384.86529936 327.19102039 373.52061923 C327.18008582 355.1132797 327.14683434 336.70605115 327.09950733 318.29877186 C327.05359007 300.42117333 327.01820875 282.54360498 326.99696827 264.66595936 C326.99565465 263.56339823 326.99434103 262.4608371 326.99298761 261.32486503 C326.98646227 255.7934652 326.98014377 250.26206515 326.97392809 244.73066497 C326.92212117 198.86510681 326.83407868 152.99966968 326.72231007 107.13422108 C325.990611 107.12835484 325.25891193 107.12248859 324.50504017 107.11644459 C317.57634332 107.05830492 310.64791668 106.98610799 303.71953392 106.89850616 C300.15838966 106.85396487 296.59735553 106.8146743 293.03603077 106.78778553 C288.93247337 106.75656453 284.82951308 106.7017833 280.72621632 106.64593983 C279.46024113 106.6395499 278.19426594 106.63315998 276.88992786 106.62657642 C265.00207037 106.43057698 255.85375243 103.70825959 246.97231007 95.63422108 C246.22981007 94.80922108 245.48731007 93.98422108 244.72231007 93.13422108 C244.04168507 92.39172108 243.36106007 91.64922108 242.65981007 90.88422108 C235.57152758 80.82343303 234.42515747 70.08261738 234.30824757 58.10297108 C234.27919834 56.25548267 234.27919834 56.25548267 234.24956226 54.37067127 C234.19005219 50.45859041 234.14349512 46.54647968 234.09731007 42.63422108 C234.06015606 39.97273155 234.02005087 37.31129662 233.98012257 34.64984608 C233.88437411 28.14474487 233.79924373 21.63957055 233.72231007 15.13422108 C203.95497147 15.02007217 174.18764026 14.93162843 144.42012984 14.87889443 C140.90301768 14.87264116 137.38590596 14.86616952 133.86879444 14.85956287 C133.16862307 14.85825132 132.46845171 14.85693977 131.74706303 14.85558847 C120.42116346 14.83385262 109.09539125 14.79444122 97.76956715 14.7484571 C86.14169649 14.7016416 74.51389995 14.67428902 62.88593948 14.6637786 C56.35738348 14.65726383 49.82911598 14.64196662 43.3006525 14.60557079 C37.15290314 14.57157584 31.00556052 14.56117547 24.8577261 14.56868267 C22.60432378 14.56730972 20.35090753 14.55739856 18.09758663 14.5381937 C15.01335089 14.51320148 11.93063729 14.51933903 8.84636402 14.53294849 C7.96111959 14.51838429 7.07587515 14.50382008 6.16380513 14.48881453 C-3.43074514 14.60272641 -10.64601694 18.64296876 -16.80503368 25.87640858 Z " fill="#000000" transform="translate(103.27768993377686,-0.13422107696533203)"/>
<path d="M0 0 C0.83144531 -0.02835938 1.66289062 -0.05671875 2.51953125 -0.0859375 C9.46481729 1.11398015 14.50452595 7.40692325 19.2565918 12.18530273 C20.04268829 12.96789459 20.82878479 13.75048645 21.63870239 14.55679321 C24.22641634 17.13573038 26.80677605 19.72188403 29.38671875 22.30859375 C31.18670404 24.10723137 32.9869861 25.90557204 34.78755188 27.70362854 C38.55572243 31.46885343 42.32035414 35.23756809 46.08227539 39.0090332 C50.42519575 43.36284434 54.77528455 47.7093933 59.12915105 52.05225605 C63.32724275 56.24016394 67.51968018 60.4336971 71.70975685 64.62962532 C73.4892884 66.41049073 75.270306 68.18987249 77.05283165 69.96774101 C79.54229041 72.45212072 82.02524777 74.9428217 84.5065918 77.43530273 C85.24378952 78.168452 85.98098724 78.90160126 86.74052429 79.65696716 C94.91158745 87.89609821 94.91158745 87.89609821 95.4375 92.62109375 C94.7778759 98.40311126 93.36953107 101.29496969 89.1875 105.375 C86.8574002 106.5400499 85.51502923 106.4959358 82.92138672 106.48852539 C81.60024368 106.48841209 81.60024368 106.48841209 80.25241089 106.48829651 C79.30028717 106.48313522 78.34816345 106.47797394 77.3671875 106.47265625 C76.39339142 106.4712413 75.41959534 106.46982635 74.41629028 106.46836853 C71.29832927 106.46275973 68.1804394 106.45020573 65.0625 106.4375 C62.95182395 106.43248613 60.84114678 106.42792303 58.73046875 106.42382812 C53.54945479 106.41278745 48.36848248 106.39604073 43.1875 106.375 C43.19749275 107.61408615 43.19749275 107.61408615 43.20768738 108.87820435 C43.2678827 116.67586018 43.31351714 124.47343759 43.34293652 132.27127266 C43.35856997 136.27990789 43.37976548 140.28835057 43.41381836 144.296875 C43.44649512 148.16778319 43.46437047 152.03850657 43.47213173 155.90954208 C43.47766037 157.38388858 43.48845651 158.85822534 43.50469017 160.33249283 C43.52657587 162.40303386 43.52946241 164.47281831 43.52807617 166.54345703 C43.53806892 168.30884323 43.53806892 168.30884323 43.54826355 170.1098938 C43.04413011 174.67257544 41.60922174 178.08656467 38.1875 181.1875 C34.38390558 183.44588419 31.21931745 183.51481335 26.88354492 183.55200195 C25.58176804 183.56483719 24.27999115 183.57767242 22.93876648 183.59089661 C21.51517111 183.5990644 20.09157143 183.60650805 18.66796875 183.61328125 C17.95005976 183.61735678 17.23215076 183.6214323 16.49248695 183.62563133 C12.69250401 183.64647473 8.892557 183.66078383 5.0925293 183.67016602 C1.17504504 183.68122634 -2.74187056 183.71562603 -6.65915394 183.75533772 C-9.67812632 183.78152759 -12.69696367 183.78985991 -15.71603966 183.79344749 C-17.15969368 183.79830747 -18.60334191 183.80990478 -20.04688454 183.82848549 C-22.07123677 183.85292237 -24.09586665 183.84948767 -26.12036133 183.8449707 C-27.27047195 183.85083694 -28.42058258 183.85670319 -29.60554504 183.86274719 C-34.31677156 183.14621468 -37.39765413 180.84498915 -40.66040039 177.45507812 C-42.95712191 173.30842262 -42.28136912 168.50051905 -42.25 163.875 C-42.2799707 162.30685547 -42.2799707 162.30685547 -42.31054688 160.70703125 C-42.30990234 159.70027344 -42.30925781 158.69351563 -42.30859375 157.65625 C-42.31137329 156.28049805 -42.31137329 156.28049805 -42.31420898 154.87695312 C-41.65861455 151.6075946 -40.4193395 150.39365529 -37.8125 148.375 C-36.8225 148.375 -35.8325 148.375 -34.8125 148.375 C-34.8125 141.775 -34.8125 135.175 -34.8125 128.375 C-36.4625 127.715 -38.1125 127.055 -39.8125 126.375 C-42.34025351 122.58336973 -42.03693035 119.56625969 -41.9375 115.1875 C-41.92847656 114.43791016 -41.91945312 113.68832031 -41.91015625 112.91601562 C-41.88662578 111.06887346 -41.85075561 109.22189588 -41.8125 107.375 C-43.05338379 107.39594727 -44.29426758 107.41689453 -45.57275391 107.43847656 C-50.19079989 107.5110537 -54.80879577 107.55686421 -59.42724609 107.59472656 C-61.42342618 107.61480169 -63.41954775 107.64206789 -65.41552734 107.67675781 C-68.2901862 107.72545657 -71.1640654 107.74800986 -74.0390625 107.765625 C-75.37065903 107.79659271 -75.37065903 107.79659271 -76.72915649 107.82818604 C-83.24507726 107.83052846 -86.78483324 106.19386216 -91.625 101.6875 C-93.46033559 98.11342543 -94.27266937 94.38041792 -93.8125 90.375 C-90.6359052 84.86343552 -86.37216221 80.65796886 -81.87866211 76.19824219 C-81.0831041 75.40078583 -80.28754608 74.60332947 -79.46788025 73.78170776 C-76.84672353 71.15685741 -74.21845547 68.53925797 -71.58984375 65.921875 C-69.76392257 64.09714632 -67.93837133 62.27204739 -66.11317444 60.44659424 C-62.29232202 56.62730414 -58.46826198 52.8112718 -54.64135742 48.99804688 C-50.21863677 44.59107744 -45.80119062 40.17887707 -41.38670534 35.76365924 C-37.13367131 31.51001482 -32.87773422 27.2592912 -28.6203022 23.01004791 C-26.81075608 21.20368787 -25.00181843 19.39671808 -23.1934948 17.58913422 C-20.67048474 15.06828662 -18.14421275 12.55075614 -15.61694336 10.03417969 C-14.86725281 9.28403595 -14.11756226 8.53389221 -13.34515381 7.76101685 C-12.65684982 7.07697784 -11.96854584 6.39293884 -11.25938416 5.68817139 C-10.66264861 5.09311169 -10.06591307 4.49805199 -9.45109463 3.88496017 C-6.29417103 0.97586428 -4.20859485 0.06464815 0 0 Z " fill="#94D428" transform="translate(250.8125,157.625)"/>
<path d="M0 0 C0.83144531 -0.02835938 1.66289062 -0.05671875 2.51953125 -0.0859375 C9.46481729 1.11398015 14.50452595 7.40692325 19.2565918 12.18530273 C20.04268829 12.96789459 20.82878479 13.75048645 21.63870239 14.55679321 C24.22641634 17.13573038 26.80677605 19.72188403 29.38671875 22.30859375 C31.18670404 24.10723137 32.9869861 25.90557204 34.78755188 27.70362854 C38.55572243 31.46885343 42.32035414 35.23756809 46.08227539 39.0090332 C50.42519575 43.36284434 54.77528455 47.7093933 59.12915105 52.05225605 C63.32724275 56.24016394 67.51968018 60.4336971 71.70975685 64.62962532 C73.4892884 66.41049073 75.270306 68.18987249 77.05283165 69.96774101 C79.54229041 72.45212072 82.02524777 74.9428217 84.5065918 77.43530273 C85.24378952 78.168452 85.98098724 78.90160126 86.74052429 79.65696716 C94.91158745 87.89609821 94.91158745 87.89609821 95.4375 92.62109375 C94.7778759 98.40311126 93.36953107 101.29496969 89.1875 105.375 C86.8574002 106.5400499 85.51502923 106.4959358 82.92138672 106.48852539 C81.60024368 106.48841209 81.60024368 106.48841209 80.25241089 106.48829651 C79.30028717 106.48313522 78.34816345 106.47797394 77.3671875 106.47265625 C76.39339142 106.4712413 75.41959534 106.46982635 74.41629028 106.46836853 C71.29832927 106.46275973 68.1804394 106.45020573 65.0625 106.4375 C62.95182395 106.43248613 60.84114678 106.42792303 58.73046875 106.42382812 C53.54945479 106.41278745 48.36848248 106.39604073 43.1875 106.375 C43.19749275 107.61408615 43.19749275 107.61408615 43.20768738 108.87820435 C43.2678827 116.67586018 43.31351714 124.47343759 43.34293652 132.27127266 C43.35856997 136.27990789 43.37976548 140.28835057 43.41381836 144.296875 C43.44649512 148.16778319 43.46437047 152.03850657 43.47213173 155.90954208 C43.47766037 157.38388858 43.48845651 158.85822534 43.50469017 160.33249283 C43.52657587 162.40303386 43.52946241 164.47281831 43.52807617 166.54345703 C43.53806892 168.30884323 43.53806892 168.30884323 43.54826355 170.1098938 C43.04413011 174.67257544 41.60922174 178.08656467 38.1875 181.1875 C34.38390558 183.44588419 31.21931745 183.51481335 26.88354492 183.55200195 C25.58176804 183.56483719 24.27999115 183.57767242 22.93876648 183.59089661 C21.51517111 183.5990644 20.09157143 183.60650805 18.66796875 183.61328125 C17.95005976 183.61735678 17.23215076 183.6214323 16.49248695 183.62563133 C12.69250401 183.64647473 8.892557 183.66078383 5.0925293 183.67016602 C1.17504504 183.68122634 -2.74187056 183.71562603 -6.65915394 183.75533772 C-9.67812632 183.78152759 -12.69696367 183.78985991 -15.71603966 183.79344749 C-17.15969368 183.79830747 -18.60334191 183.80990478 -20.04688454 183.82848549 C-22.07123677 183.85292237 -24.09586665 183.84948767 -26.12036133 183.8449707 C-27.27047195 183.85083694 -28.42058258 183.85670319 -29.60554504 183.86274719 C-34.31677156 183.14621468 -37.39765413 180.84498915 -40.66040039 177.45507812 C-42.95712191 173.30842262 -42.28136912 168.50051905 -42.25 163.875 C-42.2799707 162.30685547 -42.2799707 162.30685547 -42.31054688 160.70703125 C-42.30990234 159.70027344 -42.30925781 158.69351563 -42.30859375 157.65625 C-42.31137329 156.28049805 -42.31137329 156.28049805 -42.31420898 154.87695312 C-41.65904421 151.60973724 -40.39348004 150.41941018 -37.8125 148.375 C-34.875 147.8125 -34.875 147.8125 -31.8125 148.375 C-26.8125 153.375 -26.8125 153.375 -26.8125 168.375 C-8.6625 168.375 9.4875 168.375 28.1875 168.375 C28.14109375 163.60804688 28.0946875 158.84109375 28.046875 153.9296875 C28.02642862 150.90362396 28.00717244 147.87764599 27.9921875 144.8515625 C27.96830704 140.05190265 27.9401044 135.25254901 27.88574219 130.453125 C27.84217301 126.58220191 27.81833968 122.71160735 27.80799103 118.84045792 C27.8006194 117.36608842 27.78622408 115.89173622 27.76457977 114.41750717 C27.73539643 112.34679541 27.7315499 110.2774284 27.73339844 108.20654297 C27.72451599 107.02961884 27.71563354 105.8526947 27.70648193 104.6401062 C28.39917039 99.93820096 30.73369347 96.98294047 33.86621094 93.51831055 C37.58253552 91.68789952 41.2456937 92.00803929 45.328125 92.08203125 C46.21030701 92.08627609 47.09248901 92.09052094 48.00140381 92.09489441 C50.81374883 92.11166162 53.62537226 92.14931002 56.4375 92.1875 C58.3463438 92.20254938 60.25519886 92.21623734 62.1640625 92.22851562 C66.83881889 92.26155873 71.51303718 92.31332745 76.1875 92.375 C71.72287887 87.17637672 67.13364839 82.16283907 62.3059082 77.30053711 C61.33377884 76.31614151 61.33377884 76.31614151 60.3420105 75.31185913 C58.22707038 73.1723888 56.10825101 71.03682986 53.98828125 68.90234375 C53.26051168 68.16925051 52.53274212 67.43615726 51.78291893 66.68084908 C47.94303177 62.81439445 44.09958949 58.95151038 40.25366211 55.09106445 C37.07215154 51.89612979 33.89810112 48.69404856 30.73022461 45.4855957 C26.89469219 41.60095627 23.04722614 37.72853804 19.19063377 33.86480904 C17.72432125 32.3917635 16.26228303 30.91445062 14.80459023 29.43287468 C12.7748386 27.37172939 10.73012435 25.32668018 8.6809082 23.28491211 C8.07978714 22.66738571 7.47866608 22.04985931 6.85932922 21.41362 C5.02336168 19.54624518 5.02336168 19.54624518 2.1875 17.375 C-1.08595703 17.66250481 -2.74635976 18.93502694 -5.02018738 21.2151947 C-5.63005997 21.81949814 -6.23993256 22.42380157 -6.86828613 23.04641724 C-7.52558716 23.71293304 -8.18288818 24.37944885 -8.86010742 25.06616211 C-9.91195976 26.11494789 -9.91195976 26.11494789 -10.98506165 27.18492126 C-13.30335471 29.50020377 -15.61072123 31.82605793 -17.91796875 34.15234375 C-19.52353108 35.76096306 -21.12968427 37.36899283 -22.73640442 38.97645569 C-26.10254113 42.3471971 -29.46370361 45.72279332 -32.82104492 49.10229492 C-37.13207127 53.44162635 -41.45174886 57.77221249 -45.77471447 62.09964657 C-49.09080954 65.41989141 -52.40406322 68.74295851 -55.71627235 72.06707954 C-57.30867823 73.66519589 -58.9015622 75.26283598 -60.49492455 76.8599987 C-62.7169496 79.08887226 -64.93554846 81.32109645 -67.15307617 83.55444336 C-68.14813675 84.55118073 -68.14813675 84.55118073 -69.16329956 85.5680542 C-69.76471268 86.17517746 -70.36612579 86.78230072 -70.98576355 87.40782166 C-71.51059924 87.93563201 -72.03543493 88.46344236 -72.57617474 89.00724697 C-73.92498339 90.37662792 -73.92498339 90.37662792 -74.8125 92.375 C-73.63220215 92.34881592 -72.4519043 92.32263184 -71.23583984 92.2956543 C-66.84150271 92.20490433 -62.44724779 92.14766094 -58.05224609 92.1003418 C-56.15301569 92.07525396 -54.2538813 92.04117532 -52.35498047 91.99780273 C-49.61922479 91.9368967 -46.8847493 91.90873347 -44.1484375 91.88671875 C-43.30445404 91.86091232 -42.46047058 91.8351059 -41.59091187 91.80851746 C-37.44653903 91.80656195 -34.67186615 92.0383324 -31.35400391 94.65551758 C-26.19445234 100.17638645 -26.475177 104.52943105 -26.5 111.8125 C-26.48388672 112.75416016 -26.46777344 113.69582031 -26.45117188 114.66601562 C-26.44488688 123.57185262 -26.44488688 123.57185262 -29.8125 127.375 C-33.1875 128.5 -33.1875 128.5 -36.8125 128.375 C-39.50242013 126.39928666 -41.50523512 124.84957017 -42.2109375 121.46289062 C-42.30416875 119.30843801 -42.25003965 117.21510562 -42.125 115.0625 C-42.10244141 114.32193359 -42.07988281 113.58136719 -42.05664062 112.81835938 C-41.9980815 111.00302643 -41.90840886 109.18874319 -41.8125 107.375 C-43.05338379 107.39594727 -44.29426758 107.41689453 -45.57275391 107.43847656 C-50.19079989 107.5110537 -54.80879577 107.55686421 -59.42724609 107.59472656 C-61.42342618 107.61480169 -63.41954775 107.64206789 -65.41552734 107.67675781 C-68.2901862 107.72545657 -71.1640654 107.74800986 -74.0390625 107.765625 C-75.37065903 107.79659271 -75.37065903 107.79659271 -76.72915649 107.82818604 C-83.24507726 107.83052846 -86.78483324 106.19386216 -91.625 101.6875 C-93.46033559 98.11342543 -94.27266937 94.38041792 -93.8125 90.375 C-90.6359052 84.86343552 -86.37216221 80.65796886 -81.87866211 76.19824219 C-81.0831041 75.40078583 -80.28754608 74.60332947 -79.46788025 73.78170776 C-76.84672353 71.15685741 -74.21845547 68.53925797 -71.58984375 65.921875 C-69.76392257 64.09714632 -67.93837133 62.27204739 -66.11317444 60.44659424 C-62.29232202 56.62730414 -58.46826198 52.8112718 -54.64135742 48.99804688 C-50.21863677 44.59107744 -45.80119062 40.17887707 -41.38670534 35.76365924 C-37.13367131 31.51001482 -32.87773422 27.2592912 -28.6203022 23.01004791 C-26.81075608 21.20368787 -25.00181843 19.39671808 -23.1934948 17.58913422 C-20.67048474 15.06828662 -18.14421275 12.55075614 -15.61694336 10.03417969 C-14.86725281 9.28403595 -14.11756226 8.53389221 -13.34515381 7.76101685 C-12.65684982 7.07697784 -11.96854584 6.39293884 -11.25938416 5.68817139 C-10.66264861 5.09311169 -10.06591307 4.49805199 -9.45109463 3.88496017 C-6.29417103 0.97586428 -4.20859485 0.06464815 0 0 Z " fill="#030303" transform="translate(250.8125,157.625)"/>
<path d="M0 0 C4.10060168 0.65902527 5.03743355 1.29333939 7.5 4.5625 C7.99829102 7.81469727 7.99829102 7.81469727 8.00390625 11.62890625 C8.01332748 12.30420883 8.02274872 12.97951141 8.03245544 13.67527771 C8.06105749 15.82549619 8.06418507 17.97460682 8.0625 20.125 C8.06610771 22.27880127 8.07562259 24.43180056 8.10325623 26.58543396 C8.12774915 28.53672343 8.12997833 30.48825441 8.13110352 32.43969727 C8.24366664 35.46514416 8.24366664 35.46514416 9.64348602 37.23386574 C12.31311682 39.14441583 14.30773045 38.94011411 17.57312012 38.94345093 C18.84344589 38.9519104 20.11377167 38.96036987 21.42259216 38.96908569 C22.83316168 38.96325259 24.24372993 38.95710807 25.65429688 38.95068359 C27.13754157 38.95474799 28.62078325 38.96008913 30.10401917 38.96661377 C34.13498141 38.98030896 38.16571372 38.97497973 42.19668007 38.96547651 C46.41135919 38.95789128 50.62601837 38.96492236 54.84069824 38.96963501 C61.91906272 38.97509589 68.99733336 38.96789227 76.07568359 38.95361328 C84.2640197 38.9372861 92.45213173 38.94257437 100.6404624 38.9590925 C107.66558423 38.97269793 114.69063854 38.97463165 121.71576929 38.96677649 C125.91385732 38.96209477 130.11183997 38.96148876 134.30992126 38.97138596 C138.25636748 38.98003969 142.20252425 38.97406315 146.14893913 38.95670319 C147.59897823 38.95272978 149.04904161 38.95388697 150.49907112 38.96049118 C152.47499864 38.9686622 154.45097928 38.95660903 156.42687988 38.94345093 C158.08717602 38.94175431 158.08717602 38.94175431 159.78101349 38.94002342 C162.50482761 38.77643351 162.50482761 38.77643351 164.35651398 37.23386574 C166.22503448 34.50276007 165.86921636 31.88491924 165.87109375 28.62890625 C165.8884756 27.24413815 165.90605999 25.85937258 165.92382812 24.47460938 C165.93390062 22.29772277 165.93749687 20.12100074 165.93579102 17.9440918 C165.93936582 15.83853353 165.96672198 13.73423918 165.99609375 11.62890625 C165.99794678 10.37021729 165.9997998 9.11152832 166.00170898 7.81469727 C166.5 4.5625 166.5 4.5625 168.31274414 2.15600586 C170.5 0.5625 170.5 0.5625 174 0 C177.5 0.5625 177.5 0.5625 179.68334961 2.65161133 C181.92723279 6.24707151 182.02971268 8.47945792 182.06640625 12.69921875 C182.07260483 13.37870071 182.07880341 14.05818268 182.08518982 14.758255 C182.09226963 16.19290747 182.08914593 17.6276424 182.07641602 19.06225586 C182.06264412 21.22734304 182.09651976 23.38801817 182.13476562 25.55273438 C182.18074173 33.71801935 181.53777152 40.77684155 176.5 47.5625 C171.08366116 52.62022779 165.50955363 54.80596081 158.08161926 54.83665466 C156.13669586 54.85161736 156.13669586 54.85161736 154.15248108 54.86688232 C152.72250379 54.86777805 151.29252633 54.86844166 149.86254883 54.86889648 C148.35095817 54.87652125 146.83937138 54.8849493 145.32778931 54.89411926 C141.22629756 54.91604383 137.12488037 54.92486077 133.02333665 54.92994571 C130.45781147 54.93359264 127.89230571 54.93983455 125.32678795 54.9469471 C116.36750814 54.97143752 107.40828617 54.98449196 98.44897461 54.98803711 C90.11296233 54.99166886 81.77731902 55.0215393 73.44141942 55.06344169 C66.27348065 55.09820283 59.10566377 55.11358658 51.93764132 55.11428314 C47.66155391 55.11507418 43.38584223 55.12373204 39.1098423 55.15228081 C35.08362691 55.17856067 31.05809606 55.18061207 27.03183365 55.16462517 C25.56052463 55.16281833 24.08917535 55.16943192 22.61795235 55.18544388 C13.8210181 55.2752873 6.87040884 54.68121374 -0.5 49.5625 C-2.75390625 47.24609375 -2.75390625 47.24609375 -4.0625 45 C-4.51753906 44.25621094 -4.97257813 43.51242187 -5.44140625 42.74609375 C-8.39785426 36.64773789 -7.75820065 29.91813333 -7.79516602 23.29077148 C-7.80670847 21.84861457 -7.82719638 20.40650112 -7.85668945 18.96459961 C-7.89942869 16.87324207 -7.91553892 14.78314657 -7.92578125 12.69140625 C-7.94036377 11.44431885 -7.95494629 10.19723145 -7.9699707 8.91235352 C-7.22496627 3.60211673 -5.36256114 0.86184018 0 0 Z " fill="#060606" transform="translate(164.5,334.4375)"/>
<path d="M0 0 C2.26353426 0.95088133 3.52224698 1.98579159 5.25559425 3.71968269 C6.18519211 4.63875908 6.18519211 4.63875908 7.13356972 5.57640266 C7.80179253 6.25226921 8.47001534 6.92813576 9.15848732 7.62448311 C9.87108208 8.3334272 10.58367683 9.04237129 11.31786537 9.77279854 C13.67357276 12.12039323 16.01824093 14.47868347 18.36258888 16.83761787 C19.993039 18.46858642 21.624007 20.09903739 23.25547218 21.72899055 C26.67304085 25.14664898 30.08537686 28.56942218 33.49393654 31.99606514 C37.87284231 36.39768487 42.26276276 40.788118 46.65640831 45.17501926 C50.02469563 48.5399728 53.38799014 51.90987962 56.74968147 55.28142166 C58.36714958 56.90275023 59.98598198 58.5227189 61.60617256 60.1413269 C63.864265 62.39905037 66.11577544 64.66313139 68.36551857 66.92917061 C69.0418383 67.60301292 69.71815804 68.27685524 70.41497231 68.97111702 C71.02342491 69.58665443 71.63187752 70.20219185 72.25876808 70.83638191 C72.79189991 71.37156661 73.32503174 71.90675131 73.87431908 72.45815372 C75.00321388 73.84152412 75.00321388 73.84152412 75.00321388 75.84152412 C62.46321388 75.84152412 49.92321388 75.84152412 37.00321388 75.84152412 C37.00321388 75.51152412 37.00321388 75.18152412 37.00321388 74.84152412 C40.46821388 74.34652412 40.46821388 74.34652412 44.00321388 73.84152412 C24.86321388 54.70152412 5.72321388 35.56152412 -13.99678612 15.84152412 C-18.39440051 19.61090789 -22.50466333 23.22594871 -26.56490135 27.29611397 C-27.07310921 27.8041758 -27.58131706 28.31223763 -28.10492516 28.83569527 C-29.75746292 30.48892081 -31.40644602 32.14564221 -33.05537987 33.80246162 C-34.2110084 34.95995839 -35.36686026 36.11723223 -36.52292442 37.2742939 C-39.54506349 40.30022631 -42.56418565 43.32915109 -45.58266258 46.35873604 C-49.21568731 50.00385608 -52.85249571 53.6452007 -56.48866081 57.28718758 C-61.99425336 62.80243264 -67.49505595 68.32241397 -72.99678612 73.84152412 C-61.77678612 74.17152412 -50.55678612 74.50152412 -38.99678612 74.84152412 C-38.99678612 75.17152412 -38.99678612 75.50152412 -38.99678612 75.84152412 C-51.20678612 75.84152412 -63.41678612 75.84152412 -75.99678612 75.84152412 C-74.37407781 72.59610751 -73.46603946 71.05807053 -71.04979515 68.62037849 C-70.44700737 68.00761559 -69.84421959 67.39485268 -69.22316551 66.76352119 C-68.23349785 65.77285652 -68.23349785 65.77285652 -67.2238369 64.76217842 C-66.52771294 64.05773094 -65.83158897 63.35328346 -65.11437035 62.62748909 C-62.81239872 60.30142648 -60.50284105 57.98309071 -58.19209862 55.66574287 C-56.5902035 54.05488425 -54.98838775 52.44394671 -53.38664818 50.83293343 C-50.02946173 47.45925932 -46.66790768 44.09000257 -43.30391502 40.72311592 C-38.98528272 36.39908507 -34.68305475 32.05911399 -30.38459015 27.71504688 C-27.08339559 24.38418475 -23.77107874 21.06455839 -20.45552254 17.74799728 C-18.8637548 16.15201059 -17.27612798 14.55188313 -15.69268227 12.94763947 C-13.48287824 10.71112305 -11.2579856 8.49079436 -9.0285244 6.27389717 C-8.04492943 5.26805077 -8.04492943 5.26805077 -7.04146385 4.24188423 C-6.43303642 3.64322044 -5.82460899 3.04455666 -5.19774437 2.42775154 C-4.67307642 1.90107226 -4.14840847 1.37439299 -3.60784149 0.83175373 C-1.99678612 -0.15847588 -1.99678612 -0.15847588 0 0 Z " fill="#83BD25" transform="translate(251.9967861175537,174.1584758758545)"/>
<path d="M0 0 C9.9 0 19.8 0 30 0 C29.67 22.77 29.34 45.54 29 69 C10.85 69 -7.3 69 -26 69 C-26 68.67 -26 68.34 -26 68 C-18.41 68 -10.82 68 -3 68 C-3.01571045 66.04666748 -3.0314209 64.09333496 -3.04760742 62.08081055 C-3.09596068 55.63076772 -3.13044417 49.18076776 -3.15543652 42.73059368 C-3.17110009 38.81939774 -3.19235063 34.90839766 -3.22631836 30.99731445 C-3.25888769 27.22367741 -3.2768478 23.4502289 -3.28463173 19.67646217 C-3.29017965 18.23591964 -3.30101336 16.79538754 -3.31719017 15.35492516 C-3.33892959 13.3391766 -3.3402251 11.32323879 -3.34057617 9.30737305 C-3.34723801 8.15931686 -3.35389984 7.01126068 -3.36076355 5.82841492 C-3 3 -3 3 0 0 Z " fill="#88C426" transform="translate(250,257)"/>
<path d="M0 0 C0.66 0 1.32 0 2 0 C3.27433777 1.29310608 3.27433777 1.29310608 4.82104492 3.18774414 C10.15853587 9.45799716 16.03910721 15.18310606 21.86328125 20.99609375 C23.10416506 22.23765226 24.34490048 23.47935909 25.585495 24.72120667 C28.17004159 27.30721912 30.75636727 29.8914351 33.34399414 32.47436523 C36.66411224 35.78875069 39.97967216 39.10765417 43.29394245 42.42788601 C45.84768024 44.98522896 48.40378446 47.54019587 50.96062279 50.09443855 C52.18500392 51.31815215 53.40864139 52.54261029 54.63152504 53.76782036 C56.33308304 55.47190798 58.03779592 57.17277436 59.7434082 58.87280273 C60.50158844 59.63401932 60.50158844 59.63401932 61.27508545 60.41061401 C63.88956138 63.03465971 63.88956138 63.03465971 67 65 C67 65.66 67 66.32 67 67 C60.77446052 67.09948619 54.54939218 67.17175931 48.32324219 67.21972656 C46.20890228 67.23974016 44.09461701 67.26695972 41.98046875 67.30175781 C38.92694552 67.35072941 35.87415922 67.37307182 32.8203125 67.390625 C31.88760529 67.41127014 30.95489807 67.43191528 29.993927 67.45318604 C22.30284835 67.45576737 15.63216958 65.67405629 9.37890625 61.0703125 C1.28260212 52.39943195 -0.16123218 45.42410632 -0.09765625 33.88671875 C-0.0962413 32.91716751 -0.09482635 31.94761627 -0.09336853 30.94868469 C-0.08778513 27.86159133 -0.07523564 24.77457133 -0.0625 21.6875 C-0.05748286 19.59049584 -0.05292032 17.49349054 -0.04882812 15.39648438 C-0.03782112 10.26429479 -0.02056788 5.13215982 0 0 Z " fill="#A4CBD0" transform="translate(352,26)"/>
</svg>
