<?xml version="1.0" encoding="UTF-8"?>
<svg version="1.1" xmlns="http://www.w3.org/2000/svg" width="113" height="98">
<path d="M0 0 C37.29 0 74.58 0 113 0 C113 32.34 113 64.68 113 98 C75.71 98 38.42 98 0 98 C0 65.66 0 33.32 0 0 Z " fill="#FEFEFE" transform="translate(0,0)"/>
<path d="M0 0 C-0.81825274 3.65433265 -2.26434698 6.6796203 -4 10 C-8.75 9.125 -8.75 9.125 -11 8 C-13.63934052 7.84918054 -16.23472668 7.7686922 -18.875 7.75 C-19.59558594 7.729375 -20.31617187 7.70875 -21.05859375 7.6875 C-24.40790073 7.66282739 -26.60799026 7.76308446 -29.5078125 9.515625 C-31.25622217 10.91391297 -31.25622217 10.91391297 -31.0625 13.25 C-29.79583454 16.52842824 -29.22254701 16.67660998 -26.125 18.0625 C-23.48473272 19.11691984 -20.82852342 20.05747035 -18.1328125 20.9609375 C-11.8440026 23.09129316 -7.11775749 24.76448503 -4 31 C-3.43948041 35.5944229 -3.53620438 39.07240876 -5.625 43.25 C-11.92328884 50.54275549 -17.61002259 53.52810094 -27.2265625 54.23828125 C-35.23587745 54.41319732 -42.82633658 53.89977676 -50 50 C-51.4453125 48.125 -51.4453125 48.125 -52 46 C-51.3203125 43.859375 -51.3203125 43.859375 -50.125 41.75 C-49.73570313 41.04359375 -49.34640625 40.3371875 -48.9453125 39.609375 C-48.63335937 39.07828125 -48.32140625 38.5471875 -48 38 C-42 40 -42 40 -39.26953125 41.05859375 C-35.48364555 42.14867553 -32.2468417 42.23056245 -28.3125 42.1875 C-27.00925781 42.18105469 -25.70601562 42.17460938 -24.36328125 42.16796875 C-21.006054 42.15119247 -21.006054 42.15119247 -18 41 C-18 39.02 -18 37.04 -18 35 C-22.32705889 32.67620912 -26.31228559 30.82825392 -31.0625 29.5625 C-36.65484926 27.96837887 -41.31155212 25.78960954 -44.4375 20.625 C-45.73702452 14.56055223 -45.32698468 10.27728604 -42 5 C-32.06246976 -7.64776576 -13.16603964 -6.24829 0 0 Z " fill="#29292D" transform="translate(75,21)"/>
<path d="M0 0 C2.9375 2.0625 2.9375 2.0625 5 5 C5.1506132 9.29247606 4.66257079 11.22050496 1.875 14.5 C-1.93532871 16.48799759 -3.91964404 16.20899436 -8 15 C-10 13.375 -10 13.375 -11 11 C-10.93044263 7.10478751 -10.54011724 4.78016934 -8.3125 1.5625 C-5.22266708 -0.52522494 -3.6619192 -0.6725974 0 0 Z " fill="#2D2B32" transform="translate(85,59)"/>
<path d="M0 0 C0.66 0.33 1.32 0.66 2 1 C1.525625 1.598125 1.05125 2.19625 0.5625 2.8125 C-2.28030354 6.79242496 -2.32387146 10.22289602 -2 15 C-1.01754531 18.50876675 0.01803685 20.34720717 3.07421875 22.37890625 C8.12481105 25.03502622 13.24646274 26.84031802 18.7734375 28.2265625 C21.27360946 29.09504329 22.96997116 30.32221361 25 32 C24.8125 34.875 24.8125 34.875 24 38 C21.4375 39.375 21.4375 39.375 19 40 C19.33 38.02 19.66 36.04 20 34 C16.11839541 31.843553 12.31074809 30.43625349 8.0625 29.125 C2.13467496 27.1883317 -3.00748408 25.2053517 -6.4375 19.6875 C-7.58483392 14.20579351 -7.86673127 10.58402612 -5.1875 5.6875 C-3.5325128 3.65423001 -1.94535749 1.75082174 0 0 Z " fill="#0EF7F7" transform="translate(33,24)"/>
<path d="M0 0 C0.99 0.33 1.98 0.66 3 1 C3 2.98 3 4.96 3 7 C3.59425781 7.17015625 4.18851563 7.3403125 4.80078125 7.515625 C7.54244047 8.31722987 10.27082487 9.15689929 13 10 C13.95777344 10.2784375 14.91554688 10.556875 15.90234375 10.84375 C22.14560718 12.83063219 26.86750975 14.98866243 30 21 C31.04880046 26.76840253 29.25417497 31.28637687 26 36 C24.09876252 37.91978614 22.19684169 39.40229695 20 41 C19.34 40.67 18.68 40.34 18 40 C18.42152344 39.51789063 18.84304687 39.03578125 19.27734375 38.5390625 C19.82519531 37.90742187 20.37304688 37.27578125 20.9375 36.625 C21.48277344 35.99851563 22.02804688 35.37203125 22.58984375 34.7265625 C25.79166644 30.8063253 25.31932658 26.85712528 25 22 C24.48959656 19.08997479 24.48959656 19.08997479 23 17 C17.90623323 14.64303717 12.38943698 13.05797708 7.0625 11.29882812 C6.32773437 11.04681641 5.59296875 10.79480469 4.8359375 10.53515625 C4.17126465 10.312229 3.5065918 10.08930176 2.82177734 9.85961914 C0.70371236 8.86019448 -0.54524549 7.83285371 -2 6 C-1.57894737 1.57894737 -1.57894737 1.57894737 0 0 Z " fill="#F90FF9" transform="translate(45,30)"/>
<path d="M0 0 C0.99 0.33 1.98 0.66 3 1 C2.34 3.31 1.68 5.62 1 8 C2.41478135 8.64995297 3.83191487 9.29478722 5.25 9.9375 C6.03890625 10.29714844 6.8278125 10.65679687 7.640625 11.02734375 C11.26957164 12.52338301 14.40558923 13.12567436 18.328125 13.09765625 C19.12734375 13.09443359 19.9265625 13.09121094 20.75 13.08789062 C21.575 13.07951172 22.4 13.07113281 23.25 13.0625 C24.09046875 13.05798828 24.9309375 13.05347656 25.796875 13.04882812 C27.86461401 13.03707961 29.93231624 13.01914522 32 13 C25.55624018 17.29583988 17.49939344 16.67728512 10 16 C-0.61284994 13.80932616 -0.61284994 13.80932616 -3.4375 10.125 C-4.1844285 7.30327009 -3.54492727 6.25575401 -2.125 3.75 C-1.73570313 3.04359375 -1.34640625 2.3371875 -0.9453125 1.609375 C-0.63335938 1.07828125 -0.32140625 0.5471875 0 0 Z " fill="#15F9F9" transform="translate(23,61)"/>
<path d="M0 0 C0.99 0.33 1.98 0.66 3 1 C3 2.98 3 4.96 3 7 C8.65571861 8.70695733 14.31492008 10.39334698 20 12 C19.01 13.485 19.01 13.485 18 15 C15.2252155 14.07307199 12.45558212 13.13406325 9.6875 12.1875 C8.90181641 11.92646484 8.11613281 11.66542969 7.30664062 11.39648438 C6.54931641 11.13544922 5.79199219 10.87441406 5.01171875 10.60546875 C4.31522217 10.36981201 3.61872559 10.13415527 2.90112305 9.89135742 C0.74176894 8.87892621 -0.52409789 7.87080013 -2 6 C-1.57894737 1.57894737 -1.57894737 1.57894737 0 0 Z " fill="#EE0BEE" transform="translate(45,30)"/>
<path d="M0 0 C9.59722369 -0.26700159 18.14890592 0.00273171 27 4 C25.8905928 7.48670834 24.73662334 10.77484237 23 14 C21.68 13.67 20.36 13.34 19 13 C20.32 10.36 21.64 7.72 23 5 C15.32721195 2.59847776 8.02616194 1.40621064 0 1 C0 0.67 0 0.34 0 0 Z " fill="#F71CF7" transform="translate(52,16)"/>
<path d="M0 0 C0.66 0.33 1.32 0.66 2 1 C1.7525 2.0725 1.505 3.145 1.25 4.25 C0.58985999 7.98278203 0.58985999 7.98278203 2.75 10.3125 C4.46083151 11.59562363 6.22062768 12.81375178 8 14 C4.8125 14.8125 4.8125 14.8125 1 15 C-2.46194162 12.56927503 -3.79395747 11.12178713 -4.5625 6.9375 C-3.88943111 3.4225847 -2.73706304 2.22386372 0 0 Z " fill="#1DF8FA" transform="translate(74,62)"/>
<path d="M0 0 C3.49644963 -0.31785906 5.397402 -0.39644605 8.375 1.5625 C10.62340519 4.93510779 10.56783945 7.02512383 10 11 C8 13.4375 8 13.4375 6 15 C5.34 14.67 4.68 14.34 4 14 C4.66 13.01 5.32 12.02 6 11 C6.07216639 7.50278106 6.07216639 7.50278106 5 4 C2.5841005 1.54801956 2.5841005 1.54801956 0 0 Z " fill="#FB10FB" transform="translate(83,58)"/>
<path d="M0 0 C1.09248047 0.00483398 1.09248047 0.00483398 2.20703125 0.00976562 C2.92761719 -0.00634766 3.64820313 -0.02246094 4.390625 -0.0390625 C8.65733376 -0.04299133 11.2504125 0.26484807 14.33203125 3.32226562 C14.00203125 3.98226563 13.67203125 4.64226563 13.33203125 5.32226562 C8.58203125 4.44726562 8.58203125 4.44726562 6.33203125 3.32226562 C3.96079879 3.09196607 1.58461182 2.91106621 -0.79296875 2.75976562 C-2.07429688 2.67597656 -3.355625 2.5921875 -4.67578125 2.50585938 C-6.15691406 2.41498047 -6.15691406 2.41498047 -7.66796875 2.32226562 C-5.13504853 -0.2106546 -3.46282381 0.03520431 0 0 Z " fill="#18F2F5" transform="translate(53.66796875,27.677734375)"/>
<path d="M0 0 C1.0209375 0.433125 1.0209375 0.433125 2.0625 0.875 C8.33828415 3.2784918 14.34437931 4.4264998 21 5 C21 5.33 21 5.66 21 6 C13.2723068 6.31806054 7.06075526 6.32270836 0 3 C0 2.01 0 1.02 0 0 Z " fill="#FA23FA" transform="translate(31,58)"/>
<path d="M0 0 C0.66 0.33 1.32 0.66 2 1 C1.09515208 2.15518918 0.1755794 3.29885406 -0.75 4.4375 C-1.26046875 5.07558594 -1.7709375 5.71367188 -2.296875 6.37109375 C-4.19667629 8.18810554 -5.43586908 8.60423197 -8 9 C-7.04663979 7.68388323 -6.08714226 6.37221039 -5.125 5.0625 C-4.59132813 4.33160156 -4.05765625 3.60070312 -3.5078125 2.84765625 C-2 1 -2 1 0 0 Z " fill="#ED15F0" transform="translate(71,62)"/>
</svg>
